<?xml version="1.0" encoding="UTF-8" standalone="no"?>
<!-- Created with Inkscape (http://www.inkscape.org/) -->
<svg
   xmlns:dc="http://purl.org/dc/elements/1.1/"
   xmlns:cc="http://creativecommons.org/ns#"
   xmlns:rdf="http://www.w3.org/1999/02/22-rdf-syntax-ns#"
   xmlns:svg="http://www.w3.org/2000/svg"
   xmlns="http://www.w3.org/2000/svg"
   xmlns:sodipodi="http://sodipodi.sourceforge.net/DTD/sodipodi-0.dtd"
   xmlns:inkscape="http://www.inkscape.org/namespaces/inkscape"
   version="1.0"
   x="0.0000000"
   y="0.0000000"
   width="1062.9921"
   height="708.66138"
   id="svg1315"
   sodipodi:version="0.32"
   inkscape:version="0.46"
   sodipodi:docname="develer_logo.svg"
   sodipodi:docbase="/admin/promo/logo"
   inkscape:export-filename="/Users/simone/Desktop/develer_targa.png"
   inkscape:export-xdpi="50.800003"
   inkscape:export-ydpi="50.800003"
   inkscape:output_extension="org.inkscape.output.svg.inkscape">
  <metadata
     id="metadata29">
    <rdf:RDF>
      <cc:Work
         rdf:about="">
        <dc:format>image/svg+xml</dc:format>
        <dc:type
           rdf:resource="http://purl.org/dc/dcmitype/StillImage" />
      </cc:Work>
    </rdf:RDF>
  </metadata>
  <sodipodi:namedview
     inkscape:window-height="1002"
     inkscape:window-width="1190"
     inkscape:pageshadow="2"
     inkscape:pageopacity="0.0"
     guidetolerance="10.0"
     gridtolerance="10.0"
     objecttolerance="10.0"
     borderopacity="1.0"
     bordercolor="#666666"
     pagecolor="#ffffff"
     id="base"
     inkscape:zoom="0.5"
     inkscape:cx="540.555"
     inkscape:cy="252.62264"
     inkscape:window-x="0"
     inkscape:window-y="25"
     inkscape:current-layer="svg1315"
     width="30cm"
     height="20cm"
     units="cm"
     showguides="true"
     inkscape:guide-bbox="true"
     showgrid="false" />
  <defs
     id="defs1366">
    <inkscape:perspective
       sodipodi:type="inkscape:persp3d"
       inkscape:vp_x="0 : 354.33069 : 1"
       inkscape:vp_y="0 : 1000 : 0"
       inkscape:vp_z="1062.9921 : 354.33069 : 1"
       inkscape:persp3d-origin="531.49603 : 236.22046 : 1"
       id="perspective3559" />
  </defs>
  <desc
     id="desc1317">wmf2svg</desc>
  <path
     style="fill:#f4a460;fill-opacity:1;fill-rule:nonzero;stroke:none"
     d="M 51.213084,295.44264 C 53.303187,238.36921 107.38056,202.59187 154.0098,180.33271 C 274.1189,126.47614 410.3179,118.13532 539.76514,132.38083 C 627.26584,144.4806 720.19394,165.47722 787.42518,226.42578 C 807.4014,244.22259 772.11578,222.5604 762.728,220.78256 C 634.9238,173.90254 495.4465,166.97594 360.91,179.5333 C 270.39918,190.12524 175.67173,207.47907 100.09335,261.56623 C 78.68258,278.35017 58.707925,302.34067 59.735798,331.0887 C 54.678127,319.83566 51.11962,307.88136 51.213084,295.44264 z"
     id="polygon1319" />
  <path
     style="fill:#4169e1;fill-opacity:1;fill-rule:evenodd;stroke:none"
     d="M 1005.7624,312.12802 C 986.85034,296.64613 960.72842,312.46393 952.11938,331.84714 C 942.56288,355.55917 936.55133,404.57066 932.12776,429.36098 C 923.42644,429.45691 936.35209,429.49844 921.13492,429.4314 C 903.66473,429.35443 917.5628,429.67568 907.59501,429.03637 C 914.69132,388.40815 924.96961,327.98094 932.06592,287.35272 C 941.43282,287.81182 937.9652,287.6057 956.32065,288.41436 C 952.74044,306.29188 955.44553,307.33169 964.27805,297.72941 C 977.16259,285.74472 996.22694,282.00741 1013.0317,286.5943 C 1010.6086,295.10554 1008.1855,303.61678 1005.7624,312.12802 z M 796.45453,343.98196 C 817.08638,351.56309 843.8166,350.59457 861.12689,335.89206 C 871.94295,325.57113 864.898,304.98287 849.09485,306.06061 C 823.76627,302.61392 803.44187,320.66878 796.45453,343.98196 z M 791.94257,362.1842 C 787.07047,381.54607 795.04545,407.23318 817.51068,409.96512 C 832.14557,413.43278 847.41657,408.21723 859.12152,399.34714 C 858.71136,409.29719 859.86831,424.00283 859.15336,423.57191 C 829.98266,437.53077 784.65505,434.78228 771.56267,406.52578 C 753.27804,364.56574 770.94937,307.48032 815.2106,290.15267 C 838.42053,281.61718 871.65677,280.34636 887.19635,303.02689 C 898.97772,326.32598 883.2718,354.68177 859.68347,362.708 C 838.41651,370.73592 812.62976,373.14106 791.94257,362.1842 z M 729.27551,413.7572 C 728.08968,424.21986 720.90176,431.06886 720.40056,431.84067 C 698.97571,432.3634 680.30259,414.71881 684.16597,395.98507 C 692.68116,340.04546 705.40698,284.83092 715.73944,229.20667 C 725.47806,229.70704 743.08336,229.71798 743.17111,229.50646 C 732.06857,282.17236 717.02871,343.85421 710.22473,397.32468 C 709.47067,408.24319 719.17779,414.65471 729.27551,413.7572 z M 565.33862,343.98196 C 586.12942,351.61889 612.75456,350.4882 630.2616,335.89206 C 640.88559,325.33457 633.98715,305.1188 618.22955,306.06061 C 593.17171,302.38722 572.16363,320.89341 565.33862,343.98196 z M 561.07721,362.1842 C 555.58736,382.26654 565.17911,408.53408 588.40002,410.47073 C 602.49998,412.78498 616.87455,408.01267 628.00562,399.34714 C 627.33439,409.29918 627.9806,423.30712 626.52029,424.98612 C 613.2668,438.6371 555.41645,435.04353 541.27448,408.19547 C 522.23185,366.62431 538.81676,309.48841 582.38403,290.89206 C 605.65228,281.74185 638.2841,279.99655 655.32843,301.51004 C 668.78145,324.6682 652.74722,354.70287 628.59759,362.77051 C 607.54116,370.65277 581.49343,373.18003 561.07721,362.1842 z M 448.27664,432.21228 C 441.92891,433.00781 442.67277,426.65476 434.18289,405.30439 C 425.69301,383.95402 400.90036,287.09995 400.90036,287.09995 C 401.41697,287.57111 427.3837,287.69575 427.53647,287.28204 C 427.77289,287.54249 444.62632,355.33165 452.28735,384.93704 C 470.08477,352.32468 487.88218,319.71231 505.6796,287.09995 C 512.87075,289.53609 532.2267,288.52186 532.00398,289.43137 C 532.00398,289.43137 454.62437,431.41675 448.27664,432.21228 z M 288.6011,343.98196 C 309.39101,351.62962 336.01383,350.47462 353.52414,335.89206 C 364.04807,325.52399 357.18891,305.07518 341.49203,306.06061 C 316.31722,302.46241 295.49763,320.75996 288.6011,343.98196 z M 284.33975,362.1842 C 278.48049,382.2933 288.53585,408.49568 311.66254,410.47073 C 325.79188,412.81797 340.08717,407.94683 351.2681,399.34714 C 348.00878,409.19467 345.99589,426.63558 345.18656,426.0468 C 319.12647,434.28082 276.86941,434.8659 263.70918,406.52578 C 246.2146,365.63912 261.94758,310.77565 303.8478,291.66953 C 326.89873,281.85168 359.28214,279.69724 377.33755,299.99316 C 392.54156,322.08762 377.37825,353.41692 353.52414,361.9314 C 332.09713,370.74454 305.37618,373.3724 284.33975,362.1842 z M 208.13664,326.79092 C 204.23727,309.81759 184.61411,301.18546 168.99023,308.57734 C 135.43814,320.67263 123.78673,363.82065 134.18958,395.30219 C 143.11686,417.90834 176.41341,415.27285 188.03672,396.41022 C 204.33746,377.16089 203.07429,350.14307 208.13664,326.79092 z M 191.09122,429.4314 C 194.8135,414.48423 194.79399,411.21863 183.32051,423.11118 C 158.44465,440.2981 115.78716,432.77012 106.86675,401.11682 C 95.892724,359.72434 112.87658,307.21374 154.49367,289.88083 C 173.84761,282.35046 200.92271,281.25599 212.89935,301.51004 C 217.24426,277.40892 221.58916,253.30779 225.93407,229.20667 C 225.79481,229.5243 251.2061,228.84057 250.58286,229.26725 C 250.37237,229.0492 226.47379,366.3634 215.65669,429.4314 C 207.4682,429.4314 199.27971,429.4314 191.09122,429.4314 z"
     id="path1321"
     sodipodi:nodetypes="cccsccccccccccccccccccccccccccccccccccccccccsccccszccccccccccccccccccccccccccc" />
  <flowRoot
     xml:space="preserve"
     id="flowRoot2961"
     style="font-family:Bitstream Vera Sans;font-weight:bold;font-style:oblique;font-stretch:normal;font-variant:normal;font-size:24;text-anchor:start;text-align:start;writing-mode:lr;line-height:125%"><flowRegion
       id="flowRegion2963"><rect
         id="rect2965"
         width="55"
         height="29"
         x="955"
         y="367.66138"
         style="font-family:Bitstream Vera Sans;font-weight:bold;font-style:oblique;font-stretch:normal;font-variant:normal;font-size:24;text-anchor:start;text-align:start;writing-mode:lr;line-height:125%" /></flowRegion><flowPara
       id="flowPara2967">.com</flowPara></flowRoot>  <path
     transform="translate(-5,56)"
     style="font-size:28px;font-style:oblique;font-variant:normal;font-weight:bold;font-stretch:normal;text-align:start;line-height:100%;writing-mode:lr-tb;text-anchor:start;fill:#4169e1;fill-opacity:1;font-family:Bitstream Vera Sans"
     d="M 944.32422,366.69242 L 949.24609,366.69242 L 948.2207,371.98343 L 943.28516,371.98343 L 944.32422,366.69242 M 968.93359,357.14945 L 968.1543,361.14163 C 967.49803,360.70415 966.8509,360.37146 966.21289,360.14359 C 965.57486,359.91573 964.95051,359.8018 964.33984,359.80179 C 962.74478,359.8018 961.4414,360.33956 960.42969,361.41507 C 959.41796,362.48149 958.9121,363.84867 958.91211,365.51663 C 958.9121,366.58305 959.22656,367.41247 959.85547,368.00492 C 960.48437,368.58825 961.37304,368.87992 962.52148,368.87992 C 963.2871,368.87992 964.03905,368.76599 964.77734,368.53812 C 965.51561,368.31026 966.21743,367.97302 966.88281,367.5264 L 966.13086,371.53226 C 965.31965,371.81481 964.50389,372.02445 963.68359,372.16117 C 962.86327,372.307 962.0384,372.37992 961.20898,372.37992 C 958.80273,372.37992 956.94791,371.84216 955.64453,370.76663 C 954.35026,369.682 953.70312,368.1462 953.70312,366.15921 C 953.70312,364.91052 953.9401,363.69828 954.41406,362.52249 C 954.89713,361.34672 955.58528,360.28943 956.47852,359.35062 C 957.472,358.32068 958.61132,357.55506 959.89648,357.05374 C 961.18163,356.55246 962.66275,356.30181 964.33984,356.30179 C 965.11457,356.30181 965.88475,356.37472 966.65039,356.52054 C 967.416,356.65727 968.17707,356.86691 968.93359,357.14945 M 979.78906,359.80179 C 978.52213,359.8018 977.47851,360.37602 976.6582,361.52445 C 975.83788,362.67289 975.42773,364.13578 975.42773,365.91312 C 975.42773,366.87927 975.64648,367.61755 976.08398,368.12796 C 976.53059,368.62927 977.17773,368.87992 978.02539,368.87992 C 979.29231,368.87992 980.33593,368.3057 981.15625,367.15726 C 981.97655,365.99971 982.38671,364.52771 982.38672,362.74124 C 982.38671,361.78422 982.1634,361.05506 981.7168,360.55374 C 981.27928,360.05245 980.63671,359.8018 979.78906,359.80179 M 980.18555,356.30179 C 982.46418,356.30181 984.25519,356.88058 985.55859,358.03812 C 986.86196,359.19568 987.51365,360.7725 987.51367,362.76859 C 987.51365,363.92615 987.30858,365.0518 986.89844,366.14554 C 986.48826,367.23018 985.89126,368.22367 985.10742,369.12601 C 984.17772,370.20153 983.07941,371.01273 981.8125,371.5596 C 980.54556,372.10648 979.1328,372.37992 977.57422,372.37992 C 975.32291,372.37992 973.54557,371.80114 972.24219,370.64359 C 970.94792,369.48604 970.30078,367.90922 970.30078,365.91312 C 970.30078,364.76469 970.51042,363.6436 970.92969,362.54984 C 971.34896,361.44698 971.95052,360.43982 972.73438,359.52835 C 973.64583,358.47107 974.73046,357.66899 975.98828,357.1221 C 977.2552,356.57524 978.65429,356.30181 980.18555,356.30179 M 1006.0938,359.2139 C 1006.8502,358.27511 1007.707,357.55506 1008.6641,357.05374 C 1009.6302,356.55246 1010.6328,356.30181 1011.6719,356.30179 C 1013.039,356.30181 1014.1146,356.68006 1014.8984,357.43656 C 1015.6914,358.18397 1016.0879,359.21391 1016.0879,360.5264 C 1016.0879,360.79985 1016.0651,361.1143 1016.0195,361.46976 C 1015.983,361.81612 1015.9238,362.21261 1015.8418,362.65921 L 1014.0234,371.98343 L 1009.0879,371.98343 L 1010.6328,363.99906 L 1010.6738,363.79398 C 1010.9108,362.66378 1011.0293,361.93917 1011.0293,361.62015 C 1011.0293,361.11886 1010.8834,360.72237 1010.5918,360.4307 C 1010.3092,360.13904 1009.9219,359.99321 1009.4297,359.9932 C 1008.4909,359.99321 1007.6933,360.38058 1007.0371,361.15531 C 1006.39,361.92094 1005.9251,363.01925 1005.6426,364.45023 L 1004.166,371.98343 L 999.23047,371.98343 L 1000.8027,363.99906 C 1000.9394,363.31547 1001.0351,362.8005 1001.0898,362.45413 C 1001.1445,362.09868 1001.1719,361.82068 1001.1719,361.62015 C 1001.1719,361.10974 1001.0306,360.71326 1000.748,360.4307 C 1000.4655,360.13904 1000.0736,359.99321 999.57227,359.9932 C 998.66991,359.99321 997.87694,360.39425 997.19336,361.19632 C 996.51887,361.9893 996.04947,363.07393 995.78516,364.45023 L 994.30859,371.98343 L 989.40039,371.98343 L 992.38086,356.67093 L 997.30273,356.67093 L 996.85156,358.91312 C 997.61718,358.04725 998.43293,357.39556 999.29883,356.95804 C 1000.1647,356.52056 1001.067,356.30181 1002.0059,356.30179 C 1003.0631,356.30181 1003.97,356.57524 1004.7266,357.1221 C 1005.4831,357.65988 1005.9388,358.35714 1006.0938,359.2139"
     id="flowRoot2969" />
</svg>
