<?xml version="1.0" encoding="UTF-8" standalone="no"?>
<!-- Generator: Adobe Illustrator 18.1.0, SVG Export Plug-In . SVG Version: 6.00 Build 0)  -->

<svg
   xmlns:dc="http://purl.org/dc/elements/1.1/"
   xmlns:cc="http://creativecommons.org/ns#"
   xmlns:rdf="http://www.w3.org/1999/02/22-rdf-syntax-ns#"
   xmlns:svg="http://www.w3.org/2000/svg"
   xmlns="http://www.w3.org/2000/svg"
   xmlns:sodipodi="http://sodipodi.sourceforge.net/DTD/sodipodi-0.dtd"
   xmlns:inkscape="http://www.inkscape.org/namespaces/inkscape"
   version="1.1"
   id="Layer_1"
   x="0px"
   y="0px"
   viewBox="0 0 48 48"
   enable-background="new 0 0 48 48"
   xml:space="preserve"
   inkscape:version="0.48.4 r9939"
   width="100%"
   height="100%"
   sodipodi:docname="ep-bg-green.svg"><metadata
     id="metadata9"><rdf:RDF><cc:Work
         rdf:about=""><dc:format>image/svg+xml</dc:format><dc:type
           rdf:resource="http://purl.org/dc/dcmitype/StillImage" /><dc:title></dc:title></cc:Work></rdf:RDF></metadata><defs
     id="defs7"><clipPath
       clipPathUnits="userSpaceOnUse"
       id="clipPath3238"><path
         inkscape:connector-curvature="0"
         d="m 0,841.89 595.275,0 L 595.275,0 0,0 0,841.89 z"
         id="path3240" /></clipPath><clipPath
       clipPathUnits="userSpaceOnUse"
       id="clipPath3090"><path
         inkscape:connector-curvature="0"
         d="m 0,841.89 595.275,0 L 595.275,0 0,0 0,841.89 z"
         id="path3092" /></clipPath><clipPath
       clipPathUnits="userSpaceOnUse"
       id="clipPath3208"><path
         inkscape:connector-curvature="0"
         d="m 0,841.89 595.275,0 L 595.275,0 0,0 0,841.89 z"
         id="path3210" /></clipPath><clipPath
       clipPathUnits="userSpaceOnUse"
       id="clipPath3238-4"><path
         inkscape:connector-curvature="0"
         d="m 0,841.89 595.275,0 L 595.275,0 0,0 0,841.89 z"
         id="path3240-6" /></clipPath><clipPath
       clipPathUnits="userSpaceOnUse"
       id="clipPath3238-4-5"><path
         inkscape:connector-curvature="0"
         d="m 0,841.89 595.275,0 L 595.275,0 0,0 0,841.89 z"
         id="path3240-6-0" /></clipPath></defs><sodipodi:namedview
     pagecolor="#ffffff"
     bordercolor="#666666"
     borderopacity="1"
     objecttolerance="10"
     gridtolerance="10"
     guidetolerance="10"
     inkscape:pageopacity="0"
     inkscape:pageshadow="2"
     inkscape:window-width="640"
     inkscape:window-height="480"
     id="namedview5"
     showgrid="false"
     inkscape:zoom="2.4583333"
     inkscape:cx="61.072798"
     inkscape:cy="44.177899"
     inkscape:window-x="1902"
     inkscape:window-y="338"
     inkscape:window-maximized="0"
     inkscape:current-layer="Layer_1" /><path
     d="m 1.0220823,19.762235 c -0.85968098,-0.197296 -0.69849081,5.131866 -0.69849081,6.71024 0,3.355764 -0.42984046,4.737702 3.65364401,5.132295 5.1580856,0.59189 11.3907725,-0.394593 16.7637785,-0.394593 6.662527,0 13.110134,0.394593 19.772662,0.394593 1.934283,0 6.447607,0.789187 7.952049,-0.59189 1.504442,-1.381937 0.644761,-6.118779 0.429841,-7.89488 -0.214921,-2.171124 0.5373,-2.911739 -1.611902,-4.09552 C 45.564302,18.232433 41.480817,18.824323 39.761456,18.824323 35.248131,18.627027 30.77564,19.218917 26.22148,19.417074 18.269431,19.762235 8.3293702,17.985705 0.80716203,19.762235 1.666843,20.156829 2.9026344,21.341469 3.9772355,21.341469"
     style="fill:#dcac1d;fill-opacity:1;fill-rule:nonzero;stroke:none"
     id="path3024-0"
     inkscape:connector-curvature="0" /></svg>