<?xml version="1.0" encoding="UTF-8" standalone="no"?>
<!-- Generator: Adobe Illustrator 18.1.0, SVG Export Plug-In . SVG Version: 6.00 Build 0)  -->

<svg
   xmlns:dc="http://purl.org/dc/elements/1.1/"
   xmlns:cc="http://creativecommons.org/ns#"
   xmlns:rdf="http://www.w3.org/1999/02/22-rdf-syntax-ns#"
   xmlns:svg="http://www.w3.org/2000/svg"
   xmlns="http://www.w3.org/2000/svg"
   xmlns:sodipodi="http://sodipodi.sourceforge.net/DTD/sodipodi-0.dtd"
   xmlns:inkscape="http://www.inkscape.org/namespaces/inkscape"
   version="1.1"
   id="Layer_1"
   x="0px"
   y="0px"
   viewBox="0 0 48 48"
   enable-background="new 0 0 48 48"
   xml:space="preserve"
   inkscape:version="0.48.4 r9939"
   width="100%"
   height="100%"
   sodipodi:docname="ep-recruiting.svg"><metadata
     id="metadata9"><rdf:RDF><cc:Work
         rdf:about=""><dc:format>image/svg+xml</dc:format><dc:type
           rdf:resource="http://purl.org/dc/dcmitype/StillImage" /><dc:title></dc:title></cc:Work></rdf:RDF></metadata><defs
     id="defs7"><clipPath
       clipPathUnits="userSpaceOnUse"
       id="clipPath3238"><path
         inkscape:connector-curvature="0"
         d="m 0,841.89 595.275,0 L 595.275,0 0,0 0,841.89 z"
         id="path3240" /></clipPath><clipPath
       clipPathUnits="userSpaceOnUse"
       id="clipPath3090"><path
         inkscape:connector-curvature="0"
         d="m 0,841.89 595.275,0 L 595.275,0 0,0 0,841.89 z"
         id="path3092" /></clipPath><clipPath
       clipPathUnits="userSpaceOnUse"
       id="clipPath3208"><path
         inkscape:connector-curvature="0"
         d="m 0,841.89 595.275,0 L 595.275,0 0,0 0,841.89 z"
         id="path3210" /></clipPath></defs><sodipodi:namedview
     pagecolor="#ffffff"
     bordercolor="#666666"
     borderopacity="1"
     objecttolerance="10"
     gridtolerance="10"
     guidetolerance="10"
     inkscape:pageopacity="0"
     inkscape:pageshadow="2"
     inkscape:window-width="640"
     inkscape:window-height="480"
     id="namedview5"
     showgrid="false"
     inkscape:zoom="3.4766083"
     inkscape:cx="62.5951"
     inkscape:cy="19.894329"
     inkscape:window-x="1902"
     inkscape:window-y="338"
     inkscape:window-maximized="0"
     inkscape:current-layer="Layer_1" /><g
     id="g3204"
     transform="matrix(0.42500022,0,0,-0.42500022,-156.91091,167.3178)"><g
       id="g3206"
       clip-path="url(#clipPath3208)"><g
         id="g3212"
         transform="translate(423.5215,306.0547)"><path
           d="M 0,0 C -0.398,0.16 -0.797,0.32 -1.194,0.48 -1.62,0.1 -2.045,-0.281 -2.47,-0.662 1.579,0.619 5.847,0.717 9.884,2.076 10.159,2.168 11.452,2.953 10.566,3.188 5.551,4.516 0.414,4.479 -4.719,4.982 -4.739,4.646 -4.759,4.309 -4.78,3.973 0.271,6.631 5.951,7.271 11.427,8.611 11.935,8.736 13.639,9.734 12.238,9.908 4.925,10.82 -2.549,8.992 -9.727,11.012 -10.088,10.6 -10.448,10.186 -10.81,9.771 c 6.799,1.807 14.105,0.266 20.487,3.764 0.542,0.297 0.951,0.899 0.061,1.01 -6.216,0.771 -12.438,0.35 -18.681,0.297 -0.297,-0.465 -0.593,-0.93 -0.89,-1.395 5.921,0.772 11.898,0.715 17.791,1.742 0.271,0.049 2.647,0.956 1.495,1.331 -4.12,1.339 -8.289,0.996 -12.558,0.931 -0.297,-0.465 -0.593,-0.93 -0.89,-1.394 5.76,1.213 12.017,0.556 17.287,3.566 0.356,0.203 0.973,0.672 0.333,0.953 -5.493,2.41 -11.735,1.582 -17.565,1.512 -0.936,-0.012 -3.328,-1.434 -1.272,-1.432 6.509,0.004 13.072,0.065 19.264,2.285 0.242,0.088 1.592,0.918 0.682,1.112 -6.288,1.351 -12.765,-1.348 -18.902,0.578 -0.782,0.246 -3.54,-0.971 -2.482,-1.303 6.3,-1.976 12.549,0.785 18.902,-0.578 0.227,0.371 0.456,0.742 0.683,1.111 C 7.573,21.939 1.683,22.092 -3.94,22.088 c -0.424,-0.477 -0.848,-0.955 -1.272,-1.432 5.449,0.065 11.228,0.867 16.355,-1.383 0.11,0.319 0.221,0.635 0.333,0.954 -4.401,-2.512 -10.108,-1.793 -14.963,-2.815 -0.79,-0.166 -2.86,-1.422 -0.889,-1.392 3.849,0.056 7.621,0.41 11.347,-0.803 0.499,0.443 0.997,0.885 1.495,1.328 -5.884,-1.027 -11.874,-0.971 -17.791,-1.742 -0.871,-0.114 -2.809,-1.408 -0.89,-1.393 6.018,0.051 12.021,0.465 18.014,-0.279 0.02,0.336 0.04,0.672 0.061,1.01 -5.619,-3.08 -12.877,-1.567 -18.986,-3.19 -0.25,-0.066 -2.13,-0.947 -1.083,-1.242 C -4.792,7.621 2.763,9.434 10.299,8.494 10.569,8.928 10.84,9.359 11.11,9.791 5.077,8.313 -1.036,7.504 -6.597,4.578 -7.132,4.297 -7.555,3.656 -6.658,3.568 -1.716,3.084 3.252,3.164 8.084,1.885 8.312,2.254 8.539,2.625 8.767,2.996 5.015,1.732 0.993,1.713 -2.786,0.518 -2.925,0.475 -4.728,-0.24 -4.062,-0.623 -3.35,-1.033 -3.257,-1.1 -2.482,-1.303 -1.692,-1.508 1.039,-0.27 0,0"
           style="fill:#8ca220;fill-opacity:1;fill-rule:nonzero;stroke:none"
           id="path3214"
           inkscape:connector-curvature="0" /></g><g
         id="g3216"
         transform="translate(419.4795,329.707)"><path
           d="m 0,0 c -2.84,-0.551 -6.104,2.529 -8.127,4.221 -3.432,2.867 -6.151,6.34 -6.167,10.996 -0.029,8.871 10.818,12.943 17.921,14.074 7.707,1.227 15.555,0.131 20.018,-6.93 C 29.453,13.17 22.27,4.088 13.621,0.871 c 0.619,-0.342 1.237,-0.683 1.856,-1.023 -0.155,5.287 3.636,9.32 2.755,14.797 -0.147,0.919 -1.629,0.914 -2.225,0.562 C 13.205,13.559 10.256,11.309 7.811,15.221 7.129,16.313 5.019,15.582 4.861,14.432 4.77,13.754 4.676,13.078 4.584,12.402 5.566,12.666 6.551,12.928 7.533,13.191 6.894,13.949 6.115,14.512 5.361,15.154 4.605,15.801 3.085,15.32 2.72,14.447 2.303,13.447 1.875,10.504 0.059,11.262 -0.703,11.578 -2.863,10.955 -2.34,9.77 -0.522,5.65 2.717,2.473 4.744,-1.525 5.281,-2.586 7.739,-1.91 7.693,-0.734 7.584,2.096 9.775,3.793 11.602,5.619 12.975,6.992 10.041,7.654 9.014,6.625 6.773,4.387 4.452,2.457 4.584,-0.928 5.566,-0.664 6.551,-0.402 7.533,-0.139 5.604,3.666 2.447,6.674 0.719,10.588 -0.08,10.092 -0.88,9.594 -1.68,9.096 2.799,7.229 4.127,10.34 5.666,14.023 4.784,13.787 3.904,13.551 3.023,13.314 3.608,12.826 4.182,12.322 4.744,11.805 5.537,10.867 7.52,11.322 7.693,12.596 7.786,13.271 7.879,13.949 7.971,14.625 6.988,14.361 6.004,14.098 5.021,13.834 8.865,7.682 12.26,10.238 17.399,13.264 16.657,13.451 15.916,13.639 15.174,13.826 16,8.682 12.22,4.701 12.367,-0.348 12.394,-1.254 13.426,-1.668 14.223,-1.371 24.07,2.293 31.271,10.248 27.627,21.23 24.105,31.834 12.014,32.969 2.654,31.479 -6.42,30.035 -16.082,24.98 -17.404,15.023 -18.42,7.361 -7.092,-3.738 0.602,-2.242 2.549,-1.863 1.91,0.373 0,0"
           style="fill:#8ca220;fill-opacity:1;fill-rule:nonzero;stroke:none"
           id="path3218"
           inkscape:connector-curvature="0" /></g><g
         id="g3220"
         transform="translate(434.9326,339.2578)"><path
           d="M 0,0 C 2.985,2.527 5.387,6.189 6.123,10.061 6.377,11.398 3.271,10.924 3.045,9.742 2.377,6.225 0.21,2.973 -2.5,0.678 -3.031,0.229 -2.77,-0.416 -2.162,-0.58 -1.398,-0.787 -0.582,-0.494 0,0"
           style="fill:#8ca220;fill-opacity:1;fill-rule:nonzero;stroke:none"
           id="path3222"
           inkscape:connector-curvature="0" /></g><g
         id="g3224"
         transform="translate(477.0498,335.7969)"><path
           d="m 0,0 c 0,28.689 -23.259,51.947 -51.947,51.947 -28.69,0 -51.949,-23.258 -51.949,-51.947 0,-28.689 23.259,-51.945 51.949,-51.945 C -23.259,-51.945 0,-28.689 0,0 z"
           style="fill:none;stroke:#8ca220;stroke-width:1.222;stroke-linecap:butt;stroke-linejoin:miter;stroke-miterlimit:10;stroke-opacity:1;stroke-dasharray:none"
           id="path3226"
           inkscape:connector-curvature="0" /></g></g></g></svg>