<?xml version="1.0" encoding="utf-8"?>
<!-- Generator: Adobe Illustrator 18.1.0, SVG Export Plug-In . SVG Version: 6.00 Build 0)  -->
<!DOCTYPE svg PUBLIC "-//W3C//DTD SVG 1.1//EN" "http://www.w3.org/Graphics/SVG/1.1/DTD/svg11.dtd">
<svg version="1.1" id="Layer_1" xmlns="http://www.w3.org/2000/svg" xmlns:xlink="http://www.w3.org/1999/xlink" x="0px" y="0px"
	 viewBox="0 0 48 48" enable-background="new 0 0 48 48" xml:space="preserve">
<path fill="#565656" d="M40,24c0-2.2,1.8-4,4-4v-8c0-2.2-1.8-4-4-4H8c-2.2,0-4,1.8-4,4l0,8c2.2,0,4,1.8,4,4c0,2.2-1.8,4-4,4l0,8
	c0,2.2,1.8,4,4,4h32c2.2,0,4-1.8,4-4v-8C41.8,28,40,26.2,40,24z M31.2,33.6L24,29l-7.2,4.6l2.2-8.2L12.4,20l8.5-0.5l3.1-7.9l3.1,7.9
	l8.5,0.5L29,25.4L31.2,33.6z"/>
</svg>
