<?xml version="1.0" encoding="utf-8"?>
<!-- Generator: Adobe Illustrator 18.1.0, SVG Export Plug-In . SVG Version: 6.00 Build 0)  -->
<!DOCTYPE svg PUBLIC "-//W3C//DTD SVG 1.1//EN" "http://www.w3.org/Graphics/SVG/1.1/DTD/svg11.dtd">
<svg version="1.1" id="Layer_1" xmlns="http://www.w3.org/2000/svg" xmlns:xlink="http://www.w3.org/1999/xlink" x="0px" y="0px"
	 viewBox="0 0 48 48" enable-background="new 0 0 48 48" xml:space="preserve">
<path fill="#565656" d="M2,44h8V20H2V44z M46,22c0-2.2-1.8-4-4-4H29.4l1.9-9.1c0-0.2,0.1-0.4,0.1-0.6c0-0.8-0.3-1.6-0.9-2.1L28.3,4
	L15.2,17.2C14.4,17.9,14,18.9,14,20v20c0,2.2,1.8,4,4,4h18c1.7,0,3.1-1,3.7-2.4l6-14.1c0.2-0.5,0.3-1,0.3-1.5v-3.8l0,0L46,22z"/>
</svg>
