<?xml version="1.0" encoding="utf-8"?>
<!-- Generator: Adobe Illustrator 18.1.0, SVG Export Plug-In . SVG Version: 6.00 Build 0)  -->
<!DOCTYPE svg PUBLIC "-//W3C//DTD SVG 1.1//EN" "http://www.w3.org/Graphics/SVG/1.1/DTD/svg11.dtd">
<svg version="1.1" id="Layer_1" xmlns="http://www.w3.org/2000/svg" xmlns:xlink="http://www.w3.org/1999/xlink" x="0px" y="0px"
	 viewBox="0 0 32 32" enable-background="new 0 0 32 32" xml:space="preserve">
<g>
	<path fill="#FFFFFF" d="M4.7,22.7c-2.6,0-4.7,2.1-4.7,4.6C0,29.9,2.1,32,4.7,32c2.6,0,4.7-2.1,4.7-4.6C9.3,24.8,7.2,22.7,4.7,22.7z
		"/>
	<path fill="#FFFFFF" d="M0,10.7v6.7c4,0,7.8,1.2,10.7,4s4,6.7,4,10.7h6.7C21.3,20.3,11.7,10.7,0,10.7z"/>
	<path fill="#FFFFFF" d="M0,0v6.7c14.2,0,25.3,11.1,25.3,25.3H32C32,14.4,17.7,0,0,0z"/>
</g>
</svg>
