<?xml version="1.0" encoding="utf-8"?>
<!-- Generator: Adobe Illustrator 18.1.0, SVG Export Plug-In . SVG Version: 6.00 Build 0)  -->
<!DOCTYPE svg PUBLIC "-//W3C//DTD SVG 1.1//EN" "http://www.w3.org/Graphics/SVG/1.1/DTD/svg11.dtd">
<svg version="1.1" id="Layer_1" xmlns="http://www.w3.org/2000/svg" xmlns:xlink="http://www.w3.org/1999/xlink" x="0px" y="0px"
	 viewBox="0 0 40 32" enable-background="new 0 0 40 32" xml:space="preserve">
<path fill="#FFFFFF" d="M40,3.8c-1.5,0.6-3.1,1.1-4.7,1.3c1.7-1,3-2.6,3.6-4.5c-1.6,0.9-3.3,1.6-5.2,2C32.2,1,30,0,27.7,0
	c-4.5,0-8.2,3.6-8.2,8.1c0,0.6,0.1,1.2,0.2,1.8C12.9,9.6,6.8,6.4,2.8,1.5C2.1,2.7,1.7,4.1,1.7,5.5c0,2.8,1.5,5.3,3.7,6.7
	c-1.4,0-2.6-0.4-3.7-1c0,0,0,0.1,0,0.1c0,3.9,2.8,7.2,6.6,7.9c-0.7,0.2-1.4,0.3-2.2,0.3c-0.5,0-1-0.1-1.5-0.1c1,3.2,4.1,5.5,7.7,5.6
	C9.3,27.2,5.8,28.5,2,28.5c-0.7,0-1.3,0-2-0.1C3.6,30.7,7.9,32,12.6,32c15.1,0,23.4-12.3,23.4-23c0-0.3,0-0.7,0-1
	C37.5,6.8,38.9,5.4,40,3.8z"/>
</svg>
