<?xml version="1.0" encoding="utf-8"?>
<!-- Generator: Adobe Illustrator 13.0.0, SVG Export Plug-In . SVG Version: 6.00 Build 14948)  -->
<!DOCTYPE svg PUBLIC "-//W3C//DTD SVG 1.1//EN" "http://www.w3.org/Graphics/SVG/1.1/DTD/svg11.dtd">
<svg version="1.1" id="Livello_1" xmlns="http://www.w3.org/2000/svg" xmlns:xlink="http://www.w3.org/1999/xlink" x="0px" y="0px"
	 width="722.083px" height="75.416px" viewBox="0 0 722.083 75.416" enable-background="new 0 0 722.083 75.416"
	 xml:space="preserve">
<rect x="0.083" y="0.082" fill="#FFE3BD" width="722" height="75.334"/>
<rect x="0.75" y="0.75" fill="#666666" stroke="#EBB483" stroke-width="1.5" width="76.333" height="73.667"/>
<g>
	<g>
		<path fill="#001799" d="M96.383,12.639h21.885c4.767,0,8.336,1.134,10.71,3.4c2.373,2.268,3.561,5.494,3.561,9.679
			c0,4.302-1.293,7.663-3.88,10.085c-2.586,2.422-6.535,3.633-11.843,3.633h-7.208v15.811H96.383V12.639z M109.607,30.804h3.226
			c2.538,0,4.32-0.44,5.348-1.322c1.026-0.882,1.54-2.011,1.54-3.386c0-1.338-0.446-2.471-1.337-3.4s-2.567-1.396-5.028-1.396
			h-3.749V30.804z"/>
		<path fill="#001799" d="M138.758,24.381h11.073v5.057c1.065-2.189,2.166-3.695,3.299-4.52c1.133-0.822,2.533-1.234,4.2-1.234
			c1.744,0,3.652,0.543,5.726,1.627l-3.662,8.429c-1.395-0.582-2.5-0.872-3.313-0.872c-1.55,0-2.751,0.64-3.604,1.918
			c-1.221,1.802-1.831,5.174-1.831,10.114v10.347h-11.887V24.381z"/>
		<path fill="#001799" d="M164.566,39.9c0-4.708,1.588-8.588,4.767-11.64c3.177-3.052,7.469-4.577,12.875-4.577
			c6.181,0,10.85,1.792,14.008,5.377c2.538,2.887,3.808,6.442,3.808,10.666c0,4.747-1.575,8.637-4.723,11.669
			c-3.149,3.032-7.503,4.548-13.064,4.548c-4.96,0-8.971-1.259-12.032-3.778C166.446,49.046,164.566,44.958,164.566,39.9z
			 M176.424,39.871c0,2.752,0.557,4.786,1.671,6.104c1.114,1.318,2.514,1.977,4.199,1.977c1.705,0,3.105-0.649,4.2-1.947
			s1.642-3.381,1.642-6.249c0-2.674-0.552-4.664-1.656-5.972c-1.104-1.309-2.471-1.963-4.098-1.963
			c-1.725,0-3.149,0.664-4.272,1.991C176.986,35.14,176.424,37.159,176.424,39.871z"/>
		<path fill="#001799" d="M227.198,24.381h11.073v29.15l0.029,1.366c0,1.938-0.412,3.782-1.235,5.536
			c-0.824,1.754-1.918,3.173-3.284,4.258c-1.366,1.085-3.101,1.87-5.203,2.354c-2.103,0.484-4.51,0.727-7.222,0.727
			c-6.201,0-10.458-0.93-12.773-2.79c-2.315-1.86-3.473-4.35-3.473-7.47c0-0.388,0.019-0.91,0.058-1.569l11.48,1.309
			c0.291,1.064,0.736,1.802,1.337,2.208c0.872,0.601,1.966,0.901,3.284,0.901c1.705,0,2.979-0.455,3.822-1.366
			c0.843-0.911,1.264-2.499,1.264-4.767V49.55c-1.163,1.376-2.325,2.373-3.488,2.993c-1.821,0.97-3.788,1.453-5.9,1.453
			c-4.127,0-7.459-1.802-9.998-5.405c-1.802-2.558-2.703-5.938-2.703-10.144c0-4.805,1.163-8.467,3.488-10.986
			c2.325-2.518,5.367-3.777,9.126-3.777c2.402,0,4.383,0.406,5.943,1.221c1.56,0.813,3.018,2.16,4.374,4.039V24.381z
			 M216.067,39.349c0,2.229,0.475,3.88,1.424,4.955c0.949,1.075,2.199,1.613,3.749,1.613c1.472,0,2.708-0.557,3.706-1.672
			c0.998-1.113,1.497-2.794,1.497-5.042c0-2.247-0.523-3.967-1.569-5.159c-1.046-1.191-2.325-1.787-3.836-1.787
			s-2.717,0.548-3.618,1.643S216.067,36.811,216.067,39.349z"/>
		<path fill="#001799" d="M246.612,24.381h11.073v5.057c1.065-2.189,2.166-3.695,3.299-4.52c1.133-0.822,2.533-1.234,4.2-1.234
			c1.744,0,3.652,0.543,5.726,1.627l-3.662,8.429c-1.395-0.582-2.5-0.872-3.313-0.872c-1.55,0-2.751,0.64-3.604,1.918
			c-1.221,1.802-1.831,5.174-1.831,10.114v10.347h-11.887V24.381z"/>
		<path fill="#001799" d="M284.715,34.379l-11.306-1.192c0.426-1.976,1.041-3.53,1.845-4.664s1.962-2.116,3.473-2.95
			c1.085-0.6,2.577-1.065,4.476-1.395c1.898-0.33,3.953-0.494,6.161-0.494c3.546,0,6.394,0.199,8.545,0.596
			c2.15,0.396,3.942,1.226,5.376,2.484c1.007,0.872,1.802,2.107,2.383,3.706c0.582,1.599,0.872,3.124,0.872,4.577v13.631
			c0,1.453,0.092,2.592,0.276,3.415s0.586,1.875,1.206,3.153h-11.102c-0.446-0.794-0.736-1.399-0.872-1.816
			c-0.136-0.416-0.271-1.07-0.407-1.962c-1.55,1.492-3.091,2.558-4.621,3.197c-2.092,0.853-4.524,1.278-7.295,1.278
			c-3.682,0-6.477-0.853-8.385-2.558c-1.909-1.704-2.863-3.807-2.863-6.307c0-2.344,0.688-4.272,2.063-5.783
			c1.375-1.512,3.914-2.635,7.615-3.372c4.437-0.891,7.314-1.516,8.632-1.874c1.317-0.358,2.712-0.828,4.185-1.41
			c0-1.453-0.301-2.47-0.901-3.052c-0.601-0.58-1.657-0.871-3.168-0.871c-1.938,0-3.391,0.311-4.359,0.93
			C285.79,32.131,285.18,33.042,284.715,34.379z M294.974,40.598c-1.627,0.582-3.323,1.096-5.086,1.541
			c-2.403,0.64-3.924,1.27-4.563,1.889c-0.659,0.64-0.988,1.366-0.988,2.18c0,0.931,0.324,1.691,0.974,2.282
			c0.649,0.591,1.603,0.886,2.863,0.886c1.317,0,2.543-0.319,3.676-0.959c1.134-0.64,1.938-1.419,2.413-2.34
			c0.475-0.92,0.712-2.116,0.712-3.589V40.598z"/>
		<path fill="#001799" d="M313.72,24.381h11.044v4.505c1.591-1.88,3.197-3.216,4.817-4.011s3.575-1.191,5.865-1.191
			c2.464,0,4.415,0.436,5.851,1.308s2.61,2.17,3.521,3.895c1.857-2.015,3.551-3.386,5.08-4.112c1.528-0.727,3.415-1.09,5.66-1.09
			c3.309,0,5.892,0.983,7.749,2.949c1.857,1.967,2.786,5.043,2.786,9.228v19.386h-11.858V37.663c0-1.396-0.271-2.432-0.811-3.11
			c-0.792-1.065-1.776-1.599-2.954-1.599c-1.39,0-2.51,0.505-3.36,1.512c-0.85,1.008-1.274,2.626-1.274,4.854v15.927h-11.858V38.244
			c0-1.356-0.078-2.276-0.233-2.761c-0.253-0.775-0.69-1.4-1.312-1.875s-1.352-0.712-2.187-0.712c-1.362,0-2.479,0.514-3.354,1.54
			c-0.875,1.027-1.312,2.713-1.312,5.058v15.752H313.72V24.381z"/>
		<path fill="#001799" d="M373.242,24.381h11.044v4.505c1.591-1.88,3.196-3.216,4.816-4.011c1.621-0.795,3.576-1.191,5.865-1.191
			c2.464,0,4.415,0.436,5.851,1.308s2.609,2.17,3.521,3.895c1.857-2.015,3.551-3.386,5.079-4.112c1.529-0.727,3.415-1.09,5.66-1.09
			c3.309,0,5.892,0.983,7.749,2.949c1.857,1.967,2.786,5.043,2.786,9.228v19.386h-11.857V37.663c0-1.396-0.271-2.432-0.812-3.11
			c-0.792-1.065-1.776-1.599-2.954-1.599c-1.391,0-2.51,0.505-3.359,1.512c-0.85,1.008-1.274,2.626-1.274,4.854v15.927h-11.858
			V38.244c0-1.356-0.078-2.276-0.233-2.761c-0.253-0.775-0.69-1.4-1.312-1.875s-1.352-0.712-2.187-0.712
			c-1.361,0-2.479,0.514-3.354,1.54c-0.875,1.027-1.312,2.713-1.312,5.058v15.752h-11.857V24.381z"/>
		<path fill="#001799" d="M443.459,34.379l-11.306-1.192c0.426-1.976,1.041-3.53,1.846-4.664c0.804-1.134,1.962-2.116,3.473-2.95
			c1.085-0.6,2.577-1.065,4.476-1.395c1.899-0.33,3.953-0.494,6.162-0.494c3.546,0,6.394,0.199,8.544,0.596
			c2.151,0.396,3.943,1.226,5.377,2.484c1.008,0.872,1.802,2.107,2.384,3.706c0.581,1.599,0.871,3.124,0.871,4.577v13.631
			c0,1.453,0.092,2.592,0.276,3.415c0.184,0.823,0.586,1.875,1.206,3.153h-11.102c-0.446-0.794-0.737-1.399-0.872-1.816
			c-0.136-0.416-0.271-1.07-0.407-1.962c-1.551,1.492-3.091,2.558-4.621,3.197c-2.093,0.853-4.524,1.278-7.295,1.278
			c-3.682,0-6.477-0.853-8.385-2.558c-1.908-1.704-2.862-3.807-2.862-6.307c0-2.344,0.688-4.272,2.063-5.783
			c1.375-1.512,3.913-2.635,7.614-3.372c4.437-0.891,7.313-1.516,8.632-1.874c1.317-0.358,2.712-0.828,4.186-1.41
			c0-1.453-0.301-2.47-0.901-3.052c-0.601-0.58-1.656-0.871-3.168-0.871c-1.938,0-3.391,0.311-4.359,0.93
			C444.534,32.131,443.924,33.042,443.459,34.379z M453.719,40.598c-1.628,0.582-3.323,1.096-5.087,1.541
			c-2.402,0.64-3.923,1.27-4.562,1.889c-0.659,0.64-0.988,1.366-0.988,2.18c0,0.931,0.324,1.691,0.974,2.282
			s1.604,0.886,2.862,0.886c1.317,0,2.544-0.319,3.677-0.959c1.134-0.64,1.938-1.419,2.412-2.34c0.475-0.92,0.713-2.116,0.713-3.589
			V40.598z"/>
		<path fill="#001799" d="M471.041,24.381h28.627v6.917L484.09,47.166h16.537v8.08h-30.749v-7.673l14.796-15.112h-13.633V24.381z"/>
		<path fill="#001799" d="M505.916,12.639h11.829v8.051h-11.829V12.639z M505.916,24.381h11.829v30.865h-11.829V24.381z"/>
		<path fill="#001799" d="M523.849,39.9c0-4.708,1.588-8.588,4.766-11.64s7.47-4.577,12.875-4.577
			c6.181,0,10.851,1.792,14.009,5.377c2.538,2.887,3.808,6.442,3.808,10.666c0,4.747-1.574,8.637-4.723,11.669
			c-3.149,3.032-7.504,4.548-13.064,4.548c-4.96,0-8.971-1.259-12.032-3.778C525.728,49.046,523.849,44.958,523.849,39.9z
			 M535.706,39.871c0,2.752,0.557,4.786,1.671,6.104c1.114,1.318,2.515,1.977,4.2,1.977c1.704,0,3.104-0.649,4.199-1.947
			s1.643-3.381,1.643-6.249c0-2.674-0.553-4.664-1.657-5.972c-1.104-1.309-2.47-1.963-4.098-1.963c-1.725,0-3.148,0.664-4.272,1.991
			C536.268,35.14,535.706,37.159,535.706,39.871z"/>
		<path fill="#001799" d="M565.003,24.381h11.015v5.027c1.646-2.053,3.313-3.521,4.999-4.402s3.739-1.322,6.161-1.322
			c3.274,0,5.837,0.973,7.688,2.92c1.85,1.947,2.775,4.956,2.775,9.024v19.618h-11.887V38.273c0-1.938-0.358-3.309-1.075-4.113
			c-0.717-0.804-1.725-1.206-3.022-1.206c-1.435,0-2.597,0.543-3.488,1.628s-1.337,3.032-1.337,5.842v14.822h-11.828V24.381z"/>
		<path fill="#001799" d="M638.969,42.749h-23.716c0.213,1.898,0.727,3.313,1.54,4.243c1.144,1.337,2.635,2.005,4.476,2.005
			c1.163,0,2.268-0.29,3.313-0.871c0.64-0.368,1.327-1.018,2.063-1.947l11.654,1.075c-1.782,3.1-3.934,5.323-6.452,6.67
			s-6.132,2.02-10.84,2.02c-4.089,0-7.306-0.576-9.649-1.729c-2.345-1.152-4.287-2.983-5.827-5.492
			c-1.541-2.51-2.311-5.459-2.311-8.851c0-4.824,1.545-8.729,4.636-11.712c3.09-2.983,7.357-4.476,12.802-4.476
			c4.418,0,7.905,0.668,10.463,2.005s4.505,3.274,5.842,5.813c1.337,2.538,2.006,5.841,2.006,9.91V42.749z M626.937,37.081
			c-0.232-2.285-0.848-3.924-1.846-4.911c-0.998-0.988-2.311-1.482-3.938-1.482c-1.879,0-3.381,0.746-4.505,2.237
			c-0.717,0.931-1.172,2.316-1.365,4.156H626.937z"/>
		<path fill="#001799" d="M644.433,43.389h12.643v11.857h-12.643V43.389z"/>
		<path fill="#001799" d="M664.661,12.639h11.829v8.051h-11.829V12.639z M664.661,24.381h11.829v30.865h-11.829V24.381z"/>
		<path fill="#001799" d="M698.316,12.639v11.742h6.511v8.661h-6.511v10.935c0,1.315,0.126,2.186,0.378,2.61
			c0.388,0.657,1.065,0.986,2.034,0.986c0.872,0,2.093-0.251,3.662-0.754l0.872,8.165c-2.926,0.64-5.658,0.959-8.195,0.959
			c-2.946,0-5.115-0.377-6.511-1.132c-1.395-0.755-2.427-1.901-3.095-3.439c-0.669-1.539-1.003-4.03-1.003-7.475V33.042H682.1
			v-8.661h4.359v-5.668L698.316,12.639z"/>
	</g>
</g>
</svg>
