<?xml version="1.0" encoding="utf-8"?>
<!-- Generator: Adobe Illustrator 13.0.0, SVG Export Plug-In . SVG Version: 6.00 Build 14948)  -->
<!DOCTYPE svg PUBLIC "-//W3C//DTD SVG 1.1//EN" "http://www.w3.org/Graphics/SVG/1.1/DTD/svg11.dtd">
<svg version="1.1" id="Livello_1" xmlns="http://www.w3.org/2000/svg" xmlns:xlink="http://www.w3.org/1999/xlink" x="0px" y="0px"
	 width="165.227px" height="23.522px" viewBox="0 0 165.227 23.522" enable-background="new 0 0 165.227 23.522"
	 xml:space="preserve">
<g>
	<path fill="#53698A" d="M14.55,22.233c0,0,0.286-1.364,0.305-1.83c0.271-6.533-2.44-9.611-2.471-14.279
		c-0.025-3.789,2.73-5.934,2.73-5.934c4.485-0.793,7.609,0.948,9.028,4.339c2.116,5.061-1.146,12.448-7.365,16.454
		C16.081,21.432,15.253,21.906,14.55,22.233L14.55,22.233z"/>
	<path fill="#53698A" d="M12.46,0.479c0,0-0.663,0.955-1.031,1.781c-1.791,4.017,0.144,8.61,0.498,9.722s1.342,4.112,1.393,6.603
		c0.05,2.489-0.752,4.03-0.752,4.03c-5.212,2.004-10.155,0.637-11.919-3.58C-1.468,13.975,1.757,6.576,7.976,2.57
		C9.477,1.603,10.935,0.999,12.46,0.479L12.46,0.479z"/>
	<path fill="#53698A" d="M38.778,18.474l1.794-1.076c1.264,2.332,2.725,3.498,4.381,3.498c0.709,0,1.375-0.164,1.997-0.494
		s1.097-0.772,1.422-1.326c0.326-0.555,0.488-1.143,0.488-1.765c0-0.707-0.24-1.4-0.719-2.079c-0.662-0.938-1.87-2.066-3.625-3.387
		c-1.765-1.331-2.863-2.292-3.294-2.886c-0.748-0.994-1.122-2.069-1.122-3.226c0-0.918,0.221-1.754,0.662-2.509
		c0.442-0.755,1.063-1.35,1.865-1.785c0.802-0.435,1.673-0.653,2.614-0.653c0.999,0,1.933,0.247,2.801,0.739
		c0.869,0.493,1.788,1.398,2.758,2.718L49.08,5.549c-0.799-1.054-1.48-1.749-2.044-2.084c-0.563-0.335-1.177-0.503-1.841-0.503
		c-0.857,0-1.558,0.258-2.102,0.774c-0.544,0.517-0.816,1.153-0.816,1.909c0,0.459,0.096,0.904,0.288,1.334
		c0.192,0.431,0.543,0.899,1.052,1.406c0.278,0.268,1.191,0.971,2.738,2.109c1.835,1.35,3.094,2.55,3.776,3.602
		c0.682,1.053,1.023,2.11,1.023,3.173c0,1.531-0.582,2.861-1.746,3.991c-1.165,1.129-2.581,1.693-4.248,1.693
		c-1.284,0-2.449-0.344-3.493-1.03S39.66,20.087,38.778,18.474L38.778,18.474z"/>
	<path fill-rule="evenodd" clip-rule="evenodd" fill="#53698A" d="M64.208,1.316h4.209c2.413,0,4.04,0.105,4.883,0.316
		c1.207,0.296,2.193,0.906,2.958,1.829c0.766,0.923,1.149,2.083,1.149,3.479c0,1.406-0.374,2.566-1.12,3.479
		s-1.775,1.528-3.086,1.844c-0.957,0.229-2.747,0.344-5.369,0.344h-1.507v9.819h-2.117V1.316L64.208,1.316z M66.325,3.374v7.173
		l3.577,0.043c1.446,0,2.505-0.132,3.175-0.395c0.67-0.263,1.197-0.688,1.58-1.277s0.575-1.246,0.575-1.973
		c0-0.708-0.191-1.356-0.575-1.944c-0.383-0.588-0.888-1.007-1.516-1.255s-1.655-0.373-3.082-0.373H66.325L66.325,3.374z"/>
	<path fill-rule="evenodd" clip-rule="evenodd" fill="#53698A" d="M98.84,1.316l9.849,21.109h-2.268l-3.297-6.938h-9.149
		l-3.275,6.938h-2.354l9.966-21.109H98.84L98.84,1.316z M98.573,5.743l-3.627,7.685h7.243L98.573,5.743L98.573,5.743z"/>
	<path fill="#53698A" d="M139.778,5.212l-1.665,1.278c-0.918-1.196-2.02-2.104-3.306-2.72c-1.286-0.617-2.699-0.926-4.238-0.926
		c-1.683,0-3.242,0.405-4.676,1.214c-1.435,0.809-2.546,1.896-3.335,3.26c-0.788,1.365-1.183,2.899-1.183,4.604
		c0,2.575,0.882,4.725,2.646,6.447c1.765,1.724,3.99,2.586,6.677,2.586c2.955,0,5.427-1.157,7.415-3.47l1.665,1.264
		c-1.052,1.34-2.365,2.375-3.939,3.107c-1.573,0.731-3.332,1.098-5.273,1.098c-3.693,0-6.606-1.229-8.74-3.688
		c-1.789-2.076-2.684-4.582-2.684-7.518c0-3.09,1.083-5.689,3.25-7.798c2.167-2.109,4.882-3.164,8.145-3.164
		c1.971,0,3.75,0.388,5.339,1.164C137.463,2.726,138.765,3.813,139.778,5.212L139.778,5.212z"/>
	<polygon fill="#53698A" points="153.144,1.316 165.227,1.316 165.227,3.374 155.261,3.374 155.261,9.989 165.139,9.989 
		165.139,12.047 155.261,12.047 155.261,20.367 165.139,20.367 165.139,22.425 153.144,22.425 153.144,1.316 	"/>
</g>
</svg>
