<?xml version="1.0" encoding="UTF-8" standalone="no"?>
<!-- Generator: Adobe Illustrator 13.0.1, SVG Export Plug-In . SVG Version: 6.00 Build 14948)  -->
<svg
   xmlns:dc="http://purl.org/dc/elements/1.1/"
   xmlns:cc="http://creativecommons.org/ns#"
   xmlns:rdf="http://www.w3.org/1999/02/22-rdf-syntax-ns#"
   xmlns:svg="http://www.w3.org/2000/svg"
   xmlns="http://www.w3.org/2000/svg"
   xmlns:sodipodi="http://sodipodi.sourceforge.net/DTD/sodipodi-0.dtd"
   xmlns:inkscape="http://www.inkscape.org/namespaces/inkscape"
   version="1.1"
   x="0px"
   y="0px"
   width="791.704px"
   height="183.953px"
   viewBox="0 0 791.704 183.953"
   enable-background="new 0 0 791.704 183.953"
   xml:space="preserve"
   id="svg2"
   sodipodi:version="0.32"
   inkscape:version="0.46"
   sodipodi:docname="unbit.svg"
   inkscape:output_extension="org.inkscape.output.svg.inkscape"><metadata
   id="metadata61"><rdf:RDF><cc:Work
       rdf:about=""><dc:format>image/svg+xml</dc:format><dc:type
         rdf:resource="http://purl.org/dc/dcmitype/StillImage" /></cc:Work></rdf:RDF></metadata><defs
   id="defs59"><inkscape:perspective
   sodipodi:type="inkscape:persp3d"
   inkscape:vp_x="0 : 91.976501 : 1"
   inkscape:vp_y="0 : 1000 : 0"
   inkscape:vp_z="791.70398 : 91.976501 : 1"
   inkscape:persp3d-origin="395.85199 : 61.317668 : 1"
   id="perspective63" />
	
	
</defs><sodipodi:namedview
   inkscape:window-height="480"
   inkscape:window-width="640"
   inkscape:pageshadow="2"
   inkscape:pageopacity="0.0"
   guidetolerance="10.0"
   gridtolerance="10.0"
   objecttolerance="10.0"
   borderopacity="1.0"
   bordercolor="#666666"
   pagecolor="#ffffff"
   id="base"
   showgrid="false" />
<g
   id="g5"
   inkscape:export-filename="/home/dvd/Projects/pycon_site/sponsor-original/Livello_2.png"
   inkscape:export-xdpi="123.48"
   inkscape:export-ydpi="123.48">
		<g
   id="g7">
			
				<radialGradient
   gradientUnits="userSpaceOnUse"
   gradientTransform="translate(-58,-62)"
   fy="66.618103"
   fx="358.6937"
   r="123.1034"
   cy="85.618698"
   cx="380.3613"
   id="SVGID_1_">
				<stop
   id="stop10"
   style="stop-color:#DEDC1F"
   offset="0" />
				<stop
   id="stop12"
   style="stop-color:#DEDC1F"
   offset="1" />
			</radialGradient>
			<path
   style="fill:url(#SVGID_1_)"
   id="path14"
   d="M 437.237,77.16 C 434.281,80.115 429.303,80.669 429.303,80.669 C 429.303,80.669 396.725,80.775 393.319,80.669 C 389.913,80.563 387.357,79.179 383.631,75.559 C 379.904,71.94 379.266,65.446 379.266,65.446 C 379.266,65.446 379.266,35.742 379.266,32.548 C 379.266,29.355 380.33,25.628 384.483,21.263 C 388.636,16.898 395.236,16.762 395.236,16.762 L 408.561,16.762 C 395.464,6.281 378.864,0 360.787,0 C 334.245,0 310.865,13.514 297.137,34.033 L 297.137,50.16 L 306.637,50.16 L 306.637,97.01 L 330.738,125.561 L 302.026,125.561 C 316.065,142.371 337.174,153.071 360.788,153.071 C 402.873,153.071 437.012,119.101 437.309,77.087 C 437.285,77.109 437.26,77.137 437.237,77.16 z" />
		</g>
	</g><g
   id="g16">
		<g
   id="g18">
			
				<radialGradient
   gradientUnits="userSpaceOnUse"
   gradientTransform="translate(-98,-62)"
   fy="67.9944"
   fx="619.97748"
   r="114.1864"
   cy="85.618698"
   cx="640.07568"
   id="SVGID_2_">
				<stop
   id="stop21"
   style="stop-color:#DEDC1F"
   offset="0" />
				<stop
   id="stop23"
   style="stop-color:#DEDC1F"
   offset="1" />
			</radialGradient>
			<path
   style="fill:url(#SVGID_2_)"
   id="path25"
   d="M 637.237,77.16 C 634.281,80.115 629.303,80.669 629.303,80.669 C 629.303,80.669 596.725,80.775 593.319,80.669 C 589.913,80.563 587.357,79.179 583.631,75.559 C 579.904,71.94 579.266,65.446 579.266,65.446 C 579.266,65.446 579.266,35.742 579.266,32.548 C 579.266,29.355 580.33,25.628 584.483,21.263 C 588.636,16.898 595.236,16.762 595.236,16.762 L 608.561,16.762 C 595.464,6.281 578.864,0 560.787,0 C 518.517,0 484.252,34.266 484.252,76.535 C 484.252,118.804 518.518,153.07 560.787,153.07 C 602.872,153.07 637.011,119.1 637.308,77.086 C 637.285,77.109 637.26,77.137 637.237,77.16 z" />
		</g>
	</g>
<g
   id="Livello_3"
   inkscape:export-filename="/home/dvd/Projects/pycon_site/sponsor-original/Livello_2.png"
   inkscape:export-xdpi="123.48"
   inkscape:export-ydpi="123.48">
	<polygon
   fill="#DEDC1F"
   points="0,56.619 137.568,56.619 137.568,43.119 165.562,43.119 165.53,55.619 205.583,55.619    205.583,43.119 290.403,43.119 290.403,56.867 301.704,56.867 301.704,76.851 290.503,76.851 290.503,97.285 299.704,97.285    319.704,121.285 0,121.285  "
   id="polygon28" />
</g>
<g
   id="Livello_4"
   display="none">
	<path
   display="inline"
   fill="#DEDC1F"
   d="M597.28,110.086h-37.487c-7.045,0-12.756-5.71-12.756-12.755V60.904   c0-7.045,5.711-12.756,12.756-12.756h19.824c-13.562-11.742-31.234-18.863-50.581-18.863c-24.473,0-46.274,11.38-60.445,29.123   v23.819c2.816,0,11.301,0,11.301,0v46.183l24.436,29.573l-33.051,0.037c14.164,15.905,34.787,25.933,57.76,25.933   c42.71,0,77.334-34.625,77.334-77.334c0-0.113-0.008-0.224-0.009-0.337C604.048,108.629,600.835,110.086,597.28,110.086z"
   id="path31" />
</g>
<g
   id="Livello_5">
	<g
   id="g34">
		<path
   d="M385.704,62.195c0,7.045,5.711,12.756,12.756,12.756h27.488c7.045,0,12.756-5.711,12.756-12.756v-26.82    c0-7.045-5.711-12.756-12.756-12.756h-27.488c-7.045,0-12.756,5.711-12.756,12.756V62.195z"
   id="path36" />
	</g>
	<g
   id="g38">
		<path
   d="M585.704,62.195c0,7.045,5.711,12.756,12.756,12.756h27.488c7.045,0,12.756-5.711,12.756-12.756v-26.82    c0-7.045-5.711-12.756-12.756-12.756h-27.488c-7.045,0-12.756,5.711-12.756,12.756V62.195z"
   id="path40" />
	</g>
	<g
   id="g42">
		<path
   d="M738.704,62.195c0,7.045,5.711,12.756,12.756,12.756h27.488c7.045,0,12.756-5.711,12.756-12.756v-26.82    c0-7.045-5.711-12.756-12.756-12.756h-27.488c-7.045,0-12.756,5.711-12.756,12.756V62.195z"
   id="path44" />
	</g>
</g>
<g
   id="Livello_2"
   inkscape:export-xdpi="123.48"
   inkscape:export-ydpi="123.48">
	<path
   fill="#FFFFFF"
   d="M69.004,63.338v51.5H6.467v-51.5h15.25v40.346h11.955V63.338H69.004z"
   id="path47" />
	<path
   fill="#FFFFFF"
   d="M75.767,114.838v-51.5h62.537v51.5h-15.25V74.492h-11.955v40.346H75.767z"
   id="path49" />
	<path
   d="M144.141,114.838h-0.1v-65.25h15.125v14.078l47.609,0.047l-0.1,51.125H144.141z M159.167,71.297v32.582h17.875V71.297   H159.167z"
   id="path51" />
	<path
   d="M241.719,59.463H211.93v-11.25h29.789V59.463z M211.93,62.963h29.789v51.875H211.93V62.963z"
   id="path53" />
	<path
   d="M254.345,70.516h-7.201v-7.338h7.201V48.463h29.689v14.715h11.344v7.338h-11.344v33.266h12.606l9.237,11.057h-51.533   V70.516z"
   id="path55" />
</g>
<g
   id="Livello_6">
</g>
</svg>