<?xml version="1.0" encoding="UTF-8"?>
<svg width="431pt" xmlns:xlink="http://www.w3.org/1999/xlink" xmlns="http://www.w3.org/2000/svg" height="144pt" viewBox="0 0 431 144" >
 <g transform="translate(0, 0.416992)" style="fill:#000000; fill-rule:nonzero; stroke:none; stroke-width:1; stroke-linecap:butt; stroke-linejoin:miter; stroke-dasharray:none;" >
  <path d="M14.6562 0 C14.6562 0 38.7197 0 38.7197 0 C38.7197 0 53.1787 76.1514 53.1787 76.1514 C53.1787 76.1514 34.0654 76.1514 34.0654 76.1514 C34.0654 76.1514 32.2822 62.46 32.2822 62.46 C32.2822 62.46 19.9033 62.46 19.9033 62.46 C19.9033 62.46 18.123 76.1514 18.123 76.1514 C18.123 76.1514 0 76.1514 0 76.1514 C0 76.1514 14.6562 0 14.6562 0 Z M30.5996 48.6738 C30.5996 48.6738 27.8262 25.3848 27.8262 25.3848 C27.332 21.1055 26.9336 16.7314 26.54 12.3603 C26.1436 16.4473 25.6494 20.8213 25.0557 25.4795 C25.0557 25.4795 21.9854 48.6738 21.9854 48.6738 C21.9854 48.6738 30.5996 48.6738 30.5996 48.6738 Z" />
 </g>
 <g transform="translate(54.1689, 11.9014)" style="fill:#000000; fill-rule:nonzero; stroke:none; stroke-width:1; stroke-linecap:butt; stroke-linejoin:miter; stroke-dasharray:none;" >
  <path d="M20.6963 12.1806 C17.9239 12.1806 16.9336 13.9629 16.9336 17.4267 C16.9336 17.4267 16.9336 48.4257 16.9336 48.4257 C16.9336 51.8896 17.8243 53.6757 20.6963 53.6757 C23.5665 53.6757 24.459 51.9892 24.459 48.4257 C24.459 48.4257 24.459 37.7295 24.459 37.7295 C24.459 37.7295 41.4922 37.7295 41.4922 37.7295 C41.4922 37.7295 41.4922 46.0468 41.4922 46.0468 C41.4922 59.3183 34.6592 65.8545 20.6963 65.8545 C6.7334 65.8545 0 59.3183 0 46.0468 C0 46.0468 0 19.8056 0 19.8056 C0 6.5361 6.7334 0 20.6963 0 C34.6592 0 41.4922 6.5361 41.4922 19.8056 C41.4922 19.8056 41.4922 25.2509 41.4922 25.2509 C41.4922 25.2509 24.459 25.2509 24.459 25.2509 C24.459 25.2509 24.459 17.4267 24.459 17.4267 C24.459 13.9629 23.5665 12.1806 20.6963 12.1806 " />
 </g>
 <g transform="translate(97.7412, 0.90625)" style="fill:#000000; fill-rule:nonzero; stroke:none; stroke-width:1; stroke-linecap:butt; stroke-linejoin:miter; stroke-dasharray:none;" >
  <path d="M25.1508 76.2549 C22.9738 76.6504 20.6948 76.8496 18.5168 76.8496 C5.6438 76.8496 4.1598 71.3037 4.1598 58.2314 C4.1598 58.2314 4.1598 25.3526 4.1598 25.3526 C4.1598 25.3526 0 25.3526 0 25.3526 C0 25.3526 0 13.2715 0 13.2715 C0 13.2715 4.1598 13.2715 4.1598 13.2715 C4.1598 13.2715 4.1598 0 4.1598 0 C4.1598 0 20.5968 0 20.5968 0 C20.5968 0 20.5968 13.2715 20.5968 13.2715 C20.5968 13.2715 25.1508 13.2715 25.1508 13.2715 C25.1508 13.2715 25.1508 25.3526 25.1508 25.3526 C25.1508 25.3526 20.3008 25.3526 20.3008 25.3526 C20.3008 25.3526 20.3008 60.4111 20.3008 60.4111 C20.3008 62.6876 21.8858 63.7754 24.7568 63.7754 C24.7568 63.7754 25.1508 63.7754 25.1508 63.7754 C25.1508 63.7754 25.1508 76.2549 25.1508 76.2549 " />
 </g>
 <g transform="translate(127.541, 0.416992)" style="fill:#000000; fill-rule:nonzero; stroke:none; stroke-width:1; stroke-linecap:butt; stroke-linejoin:miter; stroke-dasharray:none;" >
  <path d="M0 0 C0 0 16.736 0 16.736 0 C16.736 0 16.736 9.50977 16.736 9.50977 C16.736 9.50977 0 9.50977 0 9.50977 C0 9.50977 0 0 0 0 Z M0 13.6963 C0 13.6963 16.736 13.6963 16.736 13.6963 C16.736 13.6963 16.736 76.1514 16.736 76.1514 C16.736 76.1514 0 76.1514 0 76.1514 C0 76.1514 0 13.6963 0 13.6963 Z" />
 </g>
 <g transform="translate(148.634, 14.1836)" style="fill:#000000; fill-rule:nonzero; stroke:none; stroke-width:1; stroke-linecap:butt; stroke-linejoin:miter; stroke-dasharray:none;" >
  <path d="M0 0 C0 0 17.723 0 17.723 0 C17.723 0 20.003 24.9512 20.003 24.9512 C20.2 27.7217 20.696 34.2607 21.489 44.6562 C22.18 34.3574 22.776 27.8213 23.073 24.8516 C23.073 24.8516 25.746 0 25.746 0 C25.746 0 42.682 0 42.682 0 C42.682 0 31.193 62.3848 31.193 62.3848 C31.193 62.3848 11.683 62.3848 11.683 62.3848 C11.683 62.3848 0 0 0 0 " />
 </g>
 <g transform="translate(193.286, 11.9014)" style="fill:#000000; fill-rule:nonzero; stroke:none; stroke-width:1; stroke-linecap:butt; stroke-linejoin:miter; stroke-dasharray:none;" >
  <path d="M20.697 53.6757 C23.567 53.6757 24.46 51.9892 24.46 48.4257 C24.46 48.4257 24.46 40.997 24.46 40.997 C24.46 40.997 41.493 40.997 41.493 40.997 C41.493 40.997 41.493 46.0468 41.493 46.0468 C41.493 59.3183 34.66 65.8545 20.697 65.8545 C6.734 65.8545 0 59.3183 0 46.0468 C0 46.0468 0 19.8056 0 19.8056 C0 6.5361 6.734 0 20.697 0 C34.66 0 41.493 6.5361 41.493 19.8056 C41.493 19.8056 41.493 35.75 41.493 35.75 C41.493 35.75 16.936 35.75 16.936 35.75 C16.936 35.75 16.936 48.4257 16.936 48.4257 C16.936 51.8896 17.826 53.6757 20.697 53.6757 Z M16.936 24.1601 C16.936 24.1601 24.46 24.1601 24.46 24.1601 C24.46 24.1601 24.46 17.4267 24.46 17.4267 C24.46 13.9629 23.567 12.1806 20.697 12.1806 C17.923 12.1806 16.936 13.9629 16.936 17.4267 C16.936 17.4267 16.936 24.1601 16.936 24.1601 Z" />
 </g>
 <g transform="translate(238.375, 0.536133)" style="fill:#c90000; fill-rule:nonzero; stroke:none; stroke-width:1; stroke-linecap:butt; stroke-linejoin:miter; stroke-dasharray:none;" >
  <path d="M17.872 52.5869 C17.872 52.5869 17.872 56.3028 17.872 56.3028 C17.872 61.3682 19.764 63.8096 23.758 63.8096 C27.351 63.8096 29.748 61.3682 29.748 57.711 C29.748 54.5157 27.651 51.4239 23.559 48.3262 C17.368 43.7276 11.678 39.8819 7.288 35.6582 C3.096 31.6231 0.997 26.1827 0.997 19.9873 C0.997 7.50879 9.484 0 24.458 0 C39.232 0 46.722 6.38184 46.722 19.1446 C46.722 19.1446 46.722 25.7588 46.722 25.7588 C46.722 25.7588 29.65 25.7588 29.65 25.7588 C29.65 25.7588 29.65 20.1748 29.65 20.1748 C29.65 15.3877 27.95 13.1368 23.958 13.1368 C20.761 13.1368 18.669 15.3877 18.669 18.6709 C18.669 22.9912 23.16 26.3672 31.043 32.4678 C37.734 37.7246 42.725 41.4746 44.919 45.3213 C46.722 48.42 47.714 52.2666 47.714 56.6758 C47.714 69.4385 38.935 77.2266 23.36 77.2266 C8.085 77.2266 0 69.8125 0 55.833 C0 55.833 0 52.5869 0 52.5869 C0 52.5869 17.872 52.5869 17.872 52.5869 " />
 </g>
 <g transform="translate(288.804, 0.90625)" style="fill:#c90000; fill-rule:nonzero; stroke:none; stroke-width:1; stroke-linecap:butt; stroke-linejoin:miter; stroke-dasharray:none;" >
  <path d="M25.154 76.2549 C22.974 76.6504 20.696 76.8496 18.517 76.8496 C5.644 76.8496 4.16 71.3037 4.16 58.2314 C4.16 58.2314 4.16 25.3526 4.16 25.3526 C4.16 25.3526 0 25.3526 0 25.3526 C0 25.3526 0 13.2715 0 13.2715 C0 13.2715 4.16 13.2715 4.16 13.2715 C4.16 13.2715 4.16 0 4.16 0 C4.16 0 20.6 0 20.6 0 C20.6 0 20.6 13.2715 20.6 13.2715 C20.6 13.2715 25.154 13.2715 25.154 13.2715 C25.154 13.2715 25.154 25.3526 25.154 25.3526 C25.154 25.3526 20.3 25.3526 20.3 25.3526 C20.3 25.3526 20.3 60.4111 20.3 60.4111 C20.3 62.6876 21.884 63.7754 24.759 63.7754 C24.759 63.7754 25.154 63.7754 25.154 63.7754 C25.154 63.7754 25.154 76.2549 25.154 76.2549 " />
 </g>
 <g transform="translate(317.112, 11.9014)" style="fill:#c90000; fill-rule:nonzero; stroke:none; stroke-width:1; stroke-linecap:butt; stroke-linejoin:miter; stroke-dasharray:none;" >
  <path d="M12.975 65.8545 C4.953 65.8545 0 59.9121 0 50.6025 C0 50.6025 0 45.5527 0 45.5527 C0 37.2334 3.664 31.789 11.786 28.0234 C19.609 24.3593 24.659 22.9726 24.659 17.6259 C24.659 17.6259 24.659 15.3466 24.659 15.3466 C24.659 13.0703 22.976 11.2871 20.799 11.2871 C18.423 11.2871 16.736 13.4668 16.736 17.4267 C16.736 17.4267 16.736 21.3896 16.736 21.3896 C16.736 21.3896 1.09 21.3896 1.09 21.3896 C1.09 21.3896 1.09 17.4267 1.09 17.4267 C1.09 6.5361 8.32 0 21.195 0 C35.949 0 41.299 6.1396 41.299 18.8164 C41.299 18.8164 41.299 64.667 41.299 64.667 C41.299 64.667 25.649 64.667 25.649 64.667 C25.649 64.667 25.352 60.1093 25.352 60.1093 C21.492 63.9716 17.627 65.8545 12.975 65.8545 Z M16.836 43.1757 C16.836 43.1757 16.836 49.6132 16.836 49.6132 C16.836 53.1757 17.033 55.455 19.909 55.455 C22.779 55.455 24.659 52.8798 24.659 47.5332 C24.659 47.5332 24.659 32.9756 24.659 32.9756 C18.717 36.2431 16.836 38.1259 16.836 43.1757 Z" />
 </g>
 <g transform="translate(361.509, 0.90625)" style="fill:#c90000; fill-rule:nonzero; stroke:none; stroke-width:1; stroke-linecap:butt; stroke-linejoin:miter; stroke-dasharray:none;" >
  <path d="M25.154 76.2549 C22.974 76.6504 20.697 76.8496 18.517 76.8496 C5.644 76.8496 4.16 71.3037 4.16 58.2314 C4.16 58.2314 4.16 25.3526 4.16 25.3526 C4.16 25.3526 0 25.3526 0 25.3526 C0 25.3526 0 13.2715 0 13.2715 C0 13.2715 4.16 13.2715 4.16 13.2715 C4.16 13.2715 4.16 0 4.16 0 C4.16 0 20.597 0 20.597 0 C20.597 0 20.597 13.2715 20.597 13.2715 C20.597 13.2715 25.154 13.2715 25.154 13.2715 C25.154 13.2715 25.154 25.3526 25.154 25.3526 C25.154 25.3526 20.298 25.3526 20.298 25.3526 C20.298 25.3526 20.298 60.4111 20.298 60.4111 C20.298 62.6876 21.884 63.7754 24.757 63.7754 C24.757 63.7754 25.154 63.7754 25.154 63.7754 C25.154 63.7754 25.154 76.2549 25.154 76.2549 " />
 </g>
 <g transform="translate(389.43, 11.9014)" style="fill:#c90000; fill-rule:nonzero; stroke:none; stroke-width:1; stroke-linecap:butt; stroke-linejoin:miter; stroke-dasharray:none;" >
  <path d="M20.702 53.6757 C23.572 53.6757 24.463 51.9892 24.463 48.4257 C24.463 48.4257 24.463 40.997 24.463 40.997 C24.463 40.997 41.496 40.997 41.496 40.997 C41.496 40.997 41.496 46.0468 41.496 46.0468 C41.496 59.3183 34.662 65.8545 20.702 65.8545 C6.738 65.8545 0 59.3183 0 46.0468 C0 46.0468 0 19.8056 0 19.8056 C0 6.5361 6.738 0 20.702 0 C34.662 0 41.496 6.5361 41.496 19.8056 C41.496 19.8056 41.496 35.75 41.496 35.75 C41.496 35.75 16.937 35.75 16.937 35.75 C16.937 35.75 16.937 48.4257 16.937 48.4257 C16.937 51.8896 17.829 53.6757 20.702 53.6757 Z M16.937 24.1601 C16.937 24.1601 24.463 24.1601 24.463 24.1601 C24.463 24.1601 24.463 17.4267 24.463 17.4267 C24.463 13.9629 23.572 12.1806 20.702 12.1806 C17.926 12.1806 16.937 13.9629 16.937 17.4267 C16.937 17.4267 16.937 24.1601 16.937 24.1601 Z" />
 </g>
 <g transform="translate(9.91895, 118.497)" style="fill:#000000; fill-rule:nonzero; stroke:none; stroke-width:1; stroke-linecap:butt; stroke-linejoin:miter; stroke-dasharray:none;" >
  <path d="M0 0 C0 0 5.76755 0 5.76755 0 C10.3965 0 12.5079 3.03 12.5079 9.501 C12.5079 13.86 11.8584 16.864 10.1797 18.706 C8.82615 20.195 7.33785 20.358 5.25295 20.358 C5.25295 20.358 0 20.358 0 20.358 C0 20.358 0 0 0 0 Z M5.22655 18.409 C6.93165 18.409 8.01365 18.136 8.66305 17.191 C9.80075 15.539 10.0186 13.264 10.0186 10.207 C10.0186 4.113 9.17875 1.974 5.14555 1.974 C5.14555 1.974 2.27445 1.974 2.27445 1.974 C2.27445 1.974 2.27445 18.409 2.27445 18.409 C2.27445 18.409 5.22655 18.409 5.22655 18.409 Z" />
 </g>
 <g transform="translate(24.999, 123.638)" style="fill:#000000; fill-rule:nonzero; stroke:none; stroke-width:1; stroke-linecap:butt; stroke-linejoin:miter; stroke-dasharray:none;" >
  <path d="M0.5694 18.167 C1.0293 18.357 1.4629 18.44 1.8955 18.44 C3.2764 18.44 3.8174 17.544 4.4688 15.35 C4.4688 15.35 0 0 0 0 C0 0 2.3018 0 2.3018 0 C2.3018 0 5.5508 12.266 5.5508 12.266 C5.5508 12.266 8.9072 0 8.9072 0 C8.9072 0 11.1006 0 11.1006 0 C11.1006 0 6.416 15.893 6.416 15.893 C5.5235 18.98 4.5762 20.332 1.9776 20.332 C1.624 20.332 1.1377 20.252 0.5694 20.089 C0.5694 20.089 0.5694 18.167 0.5694 18.167 " />
 </g>
 <g transform="translate(38.8604, 123.313)" style="fill:#000000; fill-rule:nonzero; stroke:none; stroke-width:1; stroke-linecap:butt; stroke-linejoin:miter; stroke-dasharray:none;" >
  <path d="M0 0.325 C0 0.325 2.0048 0.325 2.0048 0.325 C2.0048 0.325 2.0048 2.221 2.0048 2.221 C2.7363 0.731 4.0078 0 5.8212 0 C8.6914 0 9.5312 1.435 9.5312 4.521 C9.5312 4.521 9.5312 15.542 9.5312 15.542 C9.5312 15.542 7.3916 15.542 7.3916 15.542 C7.3916 15.542 7.3916 4.358 7.3916 4.358 C7.3916 2.71 6.7158 1.897 5.2539 1.897 C3.3847 1.897 2.1396 3.143 2.1396 5.225 C2.1396 5.225 2.1396 15.542 2.1396 15.542 C2.1396 15.542 0 15.542 0 15.542 C0 15.542 0 0.325 0 0.325 " />
 </g>
 <g transform="translate(51.8281, 123.206)" style="fill:#000000; fill-rule:nonzero; stroke:none; stroke-width:1; stroke-linecap:butt; stroke-linejoin:miter; stroke-dasharray:none;" >
  <path d="M9.0703 15.811 C7.8799 15.811 7.1494 15.026 7.0948 13.618 C6.4444 15.189 5.1729 16.028 3.4942 16.028 C1.3008 16.028 0 14.483 0 11.802 C0 8.665 1.4365 7.852 4.5235 6.821 C6.3096 6.227 6.9053 6.038 6.9053 4.982 C6.9053 4.982 6.9053 3.573 6.9053 3.573 C6.9053 2.301 6.1739 1.785 4.6573 1.785 C3.1416 1.785 2.4112 2.544 2.4112 4.196 C2.4112 4.196 2.4112 4.465 2.4112 4.465 C2.4112 4.465 0.4073 4.465 0.4073 4.465 C0.4619 1.352 1.8155 0 4.9004 0 C7.7715 0 9.0703 1.245 9.0703 4.086 C9.0703 4.086 9.0703 12.995 9.0703 12.995 C9.0703 13.78 9.3418 14.104 9.9649 14.104 C10.0733 14.104 10.1817 14.08 10.3155 14.05 C10.3155 14.05 10.3155 15.675 10.3155 15.675 C9.8565 15.758 9.4502 15.811 9.0703 15.811 Z M4.5235 8.689 C2.8985 9.258 2.1407 9.745 2.1407 11.778 C2.1407 13.292 2.8448 14.16 4.0615 14.16 C5.7686 14.16 6.959 12.778 6.959 10.45 C6.959 10.45 6.959 7.443 6.959 7.443 C6.418 8.042 5.5781 8.312 4.5235 8.689 Z" />
 </g>
 <g transform="translate(65.5557, 123.289)" style="fill:#000000; fill-rule:nonzero; stroke:none; stroke-width:1; stroke-linecap:butt; stroke-linejoin:miter; stroke-dasharray:none;" >
  <path d="M0 0.349 C0 0.349 1.9765 0.349 1.9765 0.349 C1.9765 0.349 1.9765 2.191 1.9765 2.191 C2.789 0.755 4.1425 0 5.9843 0 C7.6894 0 8.8261 0.783 9.2597 2.218 C10.1543 0.729 11.4531 0 13.2129 0 C15.6757 0 17.0302 1.323 17.0302 3.733 C17.0302 3.733 17.0302 15.566 17.0302 15.566 C17.0302 15.566 14.8369 15.566 14.8369 15.566 C14.8369 15.566 14.8369 5.059 14.8369 5.059 C14.8369 2.894 14.4843 1.892 12.6982 1.892 C10.8574 1.892 9.6113 3.191 9.6113 4.979 C9.6113 4.979 9.6113 15.566 9.6113 15.566 C9.6113 15.566 7.4179 15.566 7.4179 15.566 C7.4179 15.566 7.4179 4.979 7.4179 4.979 C7.4179 2.868 6.8769 1.892 5.2255 1.892 C3.3847 1.892 2.0849 3.111 2.0849 4.87 C2.0849 4.87 2.0849 15.566 2.0849 15.566 C2.0849 15.566 0 15.566 0 15.566 C0 15.566 0 0.349 0 0.349 " />
 </g>
 <g transform="translate(86.4033, 118.497)" style="fill:#000000; fill-rule:nonzero; stroke:none; stroke-width:1; stroke-linecap:butt; stroke-linejoin:miter; stroke-dasharray:none;" >
  <path d="M0 0 C0 0 2.1934 0 2.1934 0 C2.1934 0 2.1934 2.757 2.1934 2.757 C2.1934 2.757 0 2.757 0 2.757 C0 2.757 0 0 0 0 Z M0 5.141 C0 5.141 2.1934 5.141 2.1934 5.141 C2.1934 5.141 2.1934 20.358 2.1934 20.358 C2.1934 20.358 0 20.358 0 20.358 C0 20.358 0 5.141 0 5.141 Z" />
 </g>
 <g transform="translate(92.1143, 123.232)" style="fill:#000000; fill-rule:nonzero; stroke:none; stroke-width:1; stroke-linecap:butt; stroke-linejoin:miter; stroke-dasharray:none;" >
  <path d="M9.8297 10.264 C9.8297 13.971 8.0427 16.028 4.9824 16.028 C1.5712 16.028 0 13.375 0 7.906 C0 2.625 1.6523 0 5.1171 0 C7.9327 0 9.7207 1.842 9.7207 4.849 C9.7207 4.849 9.7207 5.172 9.7207 5.172 C9.7207 5.172 7.6367 5.172 7.6367 5.172 C7.5546 3.005 6.6875 1.895 5.1992 1.895 C3.0058 1.895 2.3017 3.79 2.3017 7.986 C2.3017 12.21 3.0058 14.134 5.2255 14.134 C6.7968 14.134 7.6904 12.808 7.7451 10.264 C7.7451 10.264 9.8297 10.264 9.8297 10.264 " />
 </g>
 <g transform="translate(107.466, 118.497)" style="fill:#000000; fill-rule:nonzero; stroke:none; stroke-width:1; stroke-linecap:butt; stroke-linejoin:miter; stroke-dasharray:none;" >
  <path d="M5.198 2.082 C5.198 2.082 0 2.082 0 2.082 C0 2.082 0 0 0 0 C0 0 12.4 0 12.4 0 C12.4 0 12.4 2.082 12.4 2.082 C12.4 2.082 7.526 2.082 7.526 2.082 C7.526 2.082 7.526 20.358 7.526 20.358 C7.526 20.358 5.198 20.358 5.198 20.358 C5.198 20.358 5.198 2.082 5.198 2.082 " />
 </g>
 <g transform="translate(119.596, 123.206)" style="fill:#000000; fill-rule:nonzero; stroke:none; stroke-width:1; stroke-linecap:butt; stroke-linejoin:miter; stroke-dasharray:none;" >
  <path d="M5.333 0 C9.042 0 10.694 2.597 10.694 8.042 C10.694 13.51 9.07 16.054 5.333 16.054 C1.597 16.054 0 13.537 0 8.042 C0 2.651 1.678 0 5.333 0 Z M5.333 14.24 C7.634 14.24 8.392 12.292 8.392 8.042 C8.392 3.816 7.661 1.868 5.333 1.868 C2.95 1.868 2.274 3.873 2.274 8.042 C2.274 12.292 2.977 14.24 5.333 14.24 Z" />
 </g>
 <g transform="translate(133.349, 123.206)" style="fill:#000000; fill-rule:nonzero; stroke:none; stroke-width:1; stroke-linecap:butt; stroke-linejoin:miter; stroke-dasharray:none;" >
  <path d="M5.334 0 C9.043 0 10.694 2.597 10.694 8.042 C10.694 13.51 9.069 16.054 5.334 16.054 C1.598 16.054 0 13.537 0 8.042 C0 2.651 1.678 0 5.334 0 Z M5.334 14.24 C7.635 14.24 8.393 12.292 8.393 8.042 C8.393 3.816 7.662 1.868 5.334 1.868 C2.951 1.868 2.274 3.873 2.274 8.042 C2.274 12.292 2.978 14.24 5.334 14.24 Z" />
 </g>
 <g transform="translate(147.508, 118.497)" style="fill:#000000; fill-rule:nonzero; stroke:none; stroke-width:1; stroke-linecap:butt; stroke-linejoin:miter; stroke-dasharray:none;" >
  <path d="M0 0 C0 0 2.112 0 2.112 0 C2.112 0 2.112 20.358 2.112 20.358 C2.112 20.358 0 20.358 0 20.358 C0 20.358 0 0 0 0 " />
 </g>
 <g transform="translate(153.113, 123.206)" style="fill:#000000; fill-rule:nonzero; stroke:none; stroke-width:1; stroke-linecap:butt; stroke-linejoin:miter; stroke-dasharray:none;" >
  <path d="M2.112 11.073 C2.085 11.262 2.057 11.423 2.057 11.588 C2.057 13.238 3.005 14.133 4.819 14.133 C6.471 14.133 7.472 13.184 7.472 11.669 C7.472 9.854 6.471 9.531 4.656 8.908 C1.542 7.823 0.243 7.04 0.243 4.222 C0.243 1.595 1.868 0 4.684 0 C7.635 0 9.15 1.435 9.15 4.222 C9.15 4.222 9.15 4.439 9.15 4.439 C9.15 4.439 7.12 4.439 7.12 4.439 C7.039 2.597 6.335 1.814 4.764 1.814 C3.113 1.814 2.273 2.597 2.273 4.142 C2.273 4.819 2.49 5.388 2.924 5.741 C3.79 6.47 5.144 6.687 6.659 7.283 C8.745 8.095 9.585 9.232 9.585 11.29 C9.585 14.349 7.743 16.054 4.521 16.054 C1.542 16.054 0 14.459 0 11.399 C0 11.399 0 11.073 0 11.073 C0 11.073 2.112 11.073 2.112 11.073 " />
 </g>
 <g transform="translate(169.357, 118.386)" style="fill:#000000; fill-rule:nonzero; stroke:none; stroke-width:1; stroke-linecap:butt; stroke-linejoin:miter; stroke-dasharray:none;" >
  <path d="M2.138 6.985 C2.138 6.985 0 6.985 0 6.985 C0 6.985 0 5.252 0 5.252 C0 5.252 2.138 5.252 2.138 5.252 C2.138 5.252 2.138 3.195 2.138 3.195 C2.138 0.976 3.248 0 5.74 0 C6.064 0 6.362 0.054 6.634 0.111 C6.634 0.111 6.634 2.003 6.634 2.003 C6.335 1.949 6.064 1.922 5.766 1.922 C4.737 1.922 4.332 2.276 4.332 3.278 C4.332 3.278 4.332 5.252 4.332 5.252 C4.332 5.252 6.634 5.252 6.634 5.252 C6.634 5.252 6.634 6.985 6.634 6.985 C6.634 6.985 4.332 6.985 4.332 6.985 C4.332 6.985 4.332 20.469 4.332 20.469 C4.332 20.469 2.138 20.469 2.138 20.469 C2.138 20.469 2.138 6.985 2.138 6.985 " />
 </g>
 <g transform="translate(177.533, 123.206)" style="fill:#000000; fill-rule:nonzero; stroke:none; stroke-width:1; stroke-linecap:butt; stroke-linejoin:miter; stroke-dasharray:none;" >
  <path d="M5.333 0 C9.043 0 10.695 2.597 10.695 8.042 C10.695 13.51 9.07 16.054 5.333 16.054 C1.598 16.054 0 13.537 0 8.042 C0 2.651 1.678 0 5.333 0 Z M5.333 14.24 C7.635 14.24 8.393 12.292 8.393 8.042 C8.393 3.816 7.662 1.868 5.333 1.868 C2.952 1.868 2.274 3.873 2.274 8.042 C2.274 12.292 2.978 14.24 5.333 14.24 Z" />
 </g>
 <g transform="translate(191.043, 123.289)" style="fill:#000000; fill-rule:nonzero; stroke:none; stroke-width:1; stroke-linecap:butt; stroke-linejoin:miter; stroke-dasharray:none;" >
  <path d="M0 0.349 C0 0.349 1.977 0.349 1.977 0.349 C1.977 0.349 1.977 2.84 1.977 2.84 C2.598 1.026 3.925 0 5.496 0 C5.793 0 6.092 0 6.416 0.053 C6.416 0.053 6.416 2.325 6.416 2.325 C6.173 2.191 5.902 2.135 5.577 2.135 C3.439 2.135 2.112 3.599 2.112 6.252 C2.112 6.252 2.112 15.566 2.112 15.566 C2.112 15.566 0 15.566 0 15.566 C0 15.566 0 0.349 0 0.349 " />
 </g>
 <g transform="translate(203.144, 118.497)" style="fill:#000000; fill-rule:nonzero; stroke:none; stroke-width:1; stroke-linecap:butt; stroke-linejoin:miter; stroke-dasharray:none;" >
  <path d="M0 0 C0 0 5.768 0 5.768 0 C10.397 0 12.509 3.03 12.509 9.501 C12.509 13.86 11.859 16.864 10.181 18.706 C8.827 20.195 7.338 20.358 5.253 20.358 C5.253 20.358 0 20.358 0 20.358 C0 20.358 0 0 0 0 Z M5.226 18.409 C6.932 18.409 8.014 18.136 8.664 17.191 C9.801 15.539 10.018 13.264 10.018 10.207 C10.018 4.113 9.178 1.974 5.145 1.974 C5.145 1.974 2.275 1.974 2.275 1.974 C2.275 1.974 2.275 18.409 2.275 18.409 C2.275 18.409 5.226 18.409 5.226 18.409 Z" />
 </g>
 <g transform="translate(218.225, 123.638)" style="fill:#000000; fill-rule:nonzero; stroke:none; stroke-width:1; stroke-linecap:butt; stroke-linejoin:miter; stroke-dasharray:none;" >
  <path d="M0.567 18.167 C1.029 18.357 1.462 18.44 1.895 18.44 C3.276 18.44 3.817 17.544 4.466 15.35 C4.466 15.35 0 0 0 0 C0 0 2.301 0 2.301 0 C2.301 0 5.549 12.266 5.549 12.266 C5.549 12.266 8.905 0 8.905 0 C8.905 0 11.1 0 11.1 0 C11.1 0 6.415 15.893 6.415 15.893 C5.525 18.98 4.576 20.332 1.976 20.332 C1.622 20.332 1.136 20.252 0.567 20.089 C0.567 20.089 0.567 18.167 0.567 18.167 " />
 </g>
 <g transform="translate(232.086, 123.313)" style="fill:#000000; fill-rule:nonzero; stroke:none; stroke-width:1; stroke-linecap:butt; stroke-linejoin:miter; stroke-dasharray:none;" >
  <path d="M0 0.325 C0 0.325 2.002 0.325 2.002 0.325 C2.002 0.325 2.002 2.221 2.002 2.221 C2.734 0.731 4.006 0 5.821 0 C8.692 0 9.531 1.435 9.531 4.521 C9.531 4.521 9.531 15.542 9.531 15.542 C9.531 15.542 7.393 15.542 7.393 15.542 C7.393 15.542 7.393 4.358 7.393 4.358 C7.393 2.71 6.716 1.897 5.252 1.897 C3.383 1.897 2.138 3.143 2.138 5.225 C2.138 5.225 2.138 15.542 2.138 15.542 C2.138 15.542 0 15.542 0 15.542 C0 15.542 0 0.325 0 0.325 " />
 </g>
 <g transform="translate(245.054, 123.206)" style="fill:#000000; fill-rule:nonzero; stroke:none; stroke-width:1; stroke-linecap:butt; stroke-linejoin:miter; stroke-dasharray:none;" >
  <path d="M9.071 15.811 C7.879 15.811 7.147 15.026 7.094 13.618 C6.445 15.189 5.172 16.028 3.493 16.028 C1.299 16.028 0 14.483 0 11.802 C0 8.665 1.436 7.852 4.523 6.821 C6.308 6.227 6.904 6.038 6.904 4.982 C6.904 4.982 6.904 3.573 6.904 3.573 C6.904 2.301 6.174 1.785 4.656 1.785 C3.141 1.785 2.41 2.544 2.41 4.196 C2.41 4.196 2.41 4.465 2.41 4.465 C2.41 4.465 0.406 4.465 0.406 4.465 C0.46 1.352 1.815 0 4.902 0 C7.77 0 9.071 1.245 9.071 4.086 C9.071 4.086 9.071 12.995 9.071 12.995 C9.071 13.78 9.341 14.104 9.964 14.104 C10.071 14.104 10.181 14.08 10.317 14.05 C10.317 14.05 10.317 15.675 10.317 15.675 C9.855 15.758 9.448 15.811 9.071 15.811 Z M4.523 8.689 C2.898 9.258 2.138 9.745 2.138 11.778 C2.138 13.292 2.844 14.16 4.063 14.16 C5.768 14.16 6.96 12.778 6.96 10.45 C6.96 10.45 6.96 7.443 6.96 7.443 C6.417 8.042 5.578 8.312 4.523 8.689 Z" />
 </g>
 <g transform="translate(258.239, 123.289)" style="fill:#000000; fill-rule:nonzero; stroke:none; stroke-width:1; stroke-linecap:butt; stroke-linejoin:miter; stroke-dasharray:none;" >
  <path d="M0 0.349 C0 0.349 1.977 0.349 1.977 0.349 C1.977 0.349 1.977 2.191 1.977 2.191 C2.79 0.755 4.142 0 5.984 0 C7.689 0 8.828 0.783 9.261 2.218 C10.153 0.729 11.452 0 13.214 0 C15.678 0 17.03 1.323 17.03 3.733 C17.03 3.733 17.03 15.566 17.03 15.566 C17.03 15.566 14.839 15.566 14.839 15.566 C14.839 15.566 14.839 5.059 14.839 5.059 C14.839 2.894 14.486 1.892 12.699 1.892 C10.856 1.892 9.611 3.191 9.611 4.979 C9.611 4.979 9.611 15.566 9.611 15.566 C9.611 15.566 7.419 15.566 7.419 15.566 C7.419 15.566 7.419 4.979 7.419 4.979 C7.419 2.868 6.877 1.892 5.225 1.892 C3.386 1.892 2.085 3.111 2.085 4.87 C2.085 4.87 2.085 15.566 2.085 15.566 C2.085 15.566 0 15.566 0 15.566 C0 15.566 0 0.349 0 0.349 " />
 </g>
 <g transform="translate(279.086, 118.497)" style="fill:#000000; fill-rule:nonzero; stroke:none; stroke-width:1; stroke-linecap:butt; stroke-linejoin:miter; stroke-dasharray:none;" >
  <path d="M0 0 C0 0 2.194 0 2.194 0 C2.194 0 2.194 2.757 2.194 2.757 C2.194 2.757 0 2.757 0 2.757 C0 2.757 0 0 0 0 Z M0 5.141 C0 5.141 2.194 5.141 2.194 5.141 C2.194 5.141 2.194 20.358 2.194 20.358 C2.194 20.358 0 20.358 0 20.358 C0 20.358 0 5.141 0 5.141 Z" />
 </g>
 <g transform="translate(284.8, 123.232)" style="fill:#000000; fill-rule:nonzero; stroke:none; stroke-width:1; stroke-linecap:butt; stroke-linejoin:miter; stroke-dasharray:none;" >
  <path d="M9.827 10.264 C9.827 13.971 8.04 16.028 4.98 16.028 C1.57 16.028 0 13.375 0 7.906 C0 2.625 1.65 0 5.116 0 C7.933 0 9.718 1.842 9.718 4.849 C9.718 4.849 9.718 5.172 9.718 5.172 C9.718 5.172 7.634 5.172 7.634 5.172 C7.553 3.005 6.688 1.895 5.197 1.895 C3.004 1.895 2.301 3.79 2.301 7.986 C2.301 12.21 3.004 14.134 5.226 14.134 C6.794 14.134 7.687 12.808 7.743 10.264 C7.743 10.264 9.827 10.264 9.827 10.264 " />
 </g>
 <g transform="translate(303.21, 118.497)" style="fill:#000000; fill-rule:nonzero; stroke:none; stroke-width:1; stroke-linecap:butt; stroke-linejoin:miter; stroke-dasharray:none;" >
  <path d="M0 0 C0 0 2.275 0 2.275 0 C2.275 0 2.275 18.166 2.275 18.166 C2.275 18.166 10.397 18.166 10.397 18.166 C10.397 18.166 10.397 20.358 10.397 20.358 C10.397 20.358 0 20.358 0 20.358 C0 20.358 0 0 0 0 " />
 </g>
 <g transform="translate(315.069, 123.206)" style="fill:#000000; fill-rule:nonzero; stroke:none; stroke-width:1; stroke-linecap:butt; stroke-linejoin:miter; stroke-dasharray:none;" >
  <path d="M9.068 15.811 C7.877 15.811 7.146 15.026 7.094 13.618 C6.441 15.189 5.169 16.028 3.491 16.028 C1.299 16.028 0 14.483 0 11.802 C0 8.665 1.432 7.852 4.519 6.821 C6.307 6.227 6.903 6.038 6.903 4.982 C6.903 4.982 6.903 3.573 6.903 3.573 C6.903 2.301 6.172 1.785 4.656 1.785 C3.14 1.785 2.408 2.544 2.408 4.196 C2.408 4.196 2.408 4.465 2.408 4.465 C2.408 4.465 0.404 4.465 0.404 4.465 C0.46 1.352 1.812 0 4.899 0 C7.769 0 9.068 1.245 9.068 4.086 C9.068 4.086 9.068 12.995 9.068 12.995 C9.068 13.78 9.339 14.104 9.962 14.104 C10.071 14.104 10.178 14.08 10.314 14.05 C10.314 14.05 10.314 15.675 10.314 15.675 C9.854 15.758 9.448 15.811 9.068 15.811 Z M4.519 8.689 C2.894 9.258 2.139 9.745 2.139 11.778 C2.139 13.292 2.842 14.16 4.059 14.16 C5.765 14.16 6.957 12.778 6.957 10.45 C6.957 10.45 6.957 7.443 6.957 7.443 C6.415 8.042 5.575 8.312 4.519 8.689 Z" />
 </g>
 <g transform="translate(328.253, 123.313)" style="fill:#000000; fill-rule:nonzero; stroke:none; stroke-width:1; stroke-linecap:butt; stroke-linejoin:miter; stroke-dasharray:none;" >
  <path d="M0 0.325 C0 0.325 2.002 0.325 2.002 0.325 C2.002 0.325 2.002 2.221 2.002 2.221 C2.735 0.731 4.007 0 5.822 0 C8.69 0 9.529 1.435 9.529 4.521 C9.529 4.521 9.529 15.542 9.529 15.542 C9.529 15.542 7.391 15.542 7.391 15.542 C7.391 15.542 7.391 4.358 7.391 4.358 C7.391 2.71 6.714 1.897 5.252 1.897 C3.384 1.897 2.139 3.143 2.139 5.225 C2.139 5.225 2.139 15.542 2.139 15.542 C2.139 15.542 0 15.542 0 15.542 C0 15.542 0 0.325 0 0.325 " />
 </g>
 <g transform="translate(341.249, 123.289)" style="fill:#000000; fill-rule:nonzero; stroke:none; stroke-width:1; stroke-linecap:butt; stroke-linejoin:miter; stroke-dasharray:none;" >
  <path d="M2.571 16.974 C2.654 18.19 3.493 18.842 5.062 18.842 C7.173 18.842 8.012 17.514 8.012 14.537 C8.012 14.347 7.986 14.103 7.986 13.724 C7.363 15.106 6.227 15.809 4.602 15.809 C1.488 15.809 0 13.047 0 7.497 C0 2.514 1.597 0 4.765 0 C6.39 0 7.552 0.783 8.012 2.135 C8.012 2.135 8.012 0.349 8.012 0.349 C8.012 0.349 10.07 0.349 10.07 0.349 C10.07 0.349 10.07 14.863 10.07 14.863 C10.07 18.653 8.149 20.711 4.899 20.711 C2.274 20.711 0.459 19.169 0.459 17.054 C0.459 17.054 0.459 16.974 0.459 16.974 C0.459 16.974 2.571 16.974 2.571 16.974 Z M5.088 13.941 C7.336 13.941 8.012 11.91 8.012 7.794 C8.012 3.79 7.2 1.812 5.035 1.812 C3.003 1.812 2.248 3.76 2.248 7.983 C2.248 12.019 2.977 13.941 5.088 13.941 Z" />
 </g>
 <g transform="translate(355.136, 123.638)" style="fill:#000000; fill-rule:nonzero; stroke:none; stroke-width:1; stroke-linecap:butt; stroke-linejoin:miter; stroke-dasharray:none;" >
  <path d="M7.447 13.238 C6.85 14.757 5.497 15.622 3.656 15.622 C1.085 15.622 0 14.404 0 11.696 C0 11.696 0 0 0 0 C0 0 2.221 0 2.221 0 C2.221 0 2.221 11.75 2.221 11.75 C2.221 12.995 2.87 13.728 4.009 13.728 C6.011 13.728 7.256 12.426 7.256 10.101 C7.256 10.101 7.256 0 7.256 0 C7.256 0 9.424 0 9.424 0 C9.424 0 9.424 15.217 9.424 15.217 C9.424 15.217 7.447 15.217 7.447 15.217 C7.447 15.217 7.447 13.238 7.447 13.238 " />
 </g>
 <g transform="translate(368.161, 123.206)" style="fill:#000000; fill-rule:nonzero; stroke:none; stroke-width:1; stroke-linecap:butt; stroke-linejoin:miter; stroke-dasharray:none;" >
  <path d="M9.068 15.811 C7.879 15.811 7.146 15.026 7.092 13.618 C6.443 15.189 5.171 16.028 3.49 16.028 C1.298 16.028 0 14.483 0 11.802 C0 8.665 1.434 7.852 4.519 6.821 C6.307 6.227 6.903 6.038 6.903 4.982 C6.903 4.982 6.903 3.573 6.903 3.573 C6.903 2.301 6.171 1.785 4.655 1.785 C3.139 1.785 2.408 2.544 2.408 4.196 C2.408 4.196 2.408 4.465 2.408 4.465 C2.408 4.465 0.406 4.465 0.406 4.465 C0.459 1.352 1.811 0 4.898 0 C7.769 0 9.068 1.245 9.068 4.086 C9.068 4.086 9.068 12.995 9.068 12.995 C9.068 13.78 9.34 14.104 9.963 14.104 C10.07 14.104 10.179 14.08 10.313 14.05 C10.313 14.05 10.313 15.675 10.313 15.675 C9.853 15.758 9.447 15.811 9.068 15.811 Z M4.519 8.689 C2.896 9.258 2.137 9.745 2.137 11.778 C2.137 13.292 2.84 14.16 4.059 14.16 C5.764 14.16 6.957 12.778 6.957 10.45 C6.957 10.45 6.957 7.443 6.957 7.443 C6.417 8.042 5.577 8.312 4.519 8.689 Z" />
 </g>
 <g transform="translate(380.939, 123.289)" style="fill:#000000; fill-rule:nonzero; stroke:none; stroke-width:1; stroke-linecap:butt; stroke-linejoin:miter; stroke-dasharray:none;" >
  <path d="M2.571 16.974 C2.653 18.19 3.493 18.842 5.061 18.842 C7.173 18.842 8.013 17.514 8.013 14.537 C8.013 14.347 7.985 14.103 7.985 13.724 C7.363 15.106 6.227 15.809 4.602 15.809 C1.488 15.809 0 13.047 0 7.497 C0 2.514 1.598 0 4.765 0 C6.39 0 7.553 0.783 8.013 2.135 C8.013 2.135 8.013 0.349 8.013 0.349 C8.013 0.349 10.07 0.349 10.07 0.349 C10.07 0.349 10.07 14.863 10.07 14.863 C10.07 18.653 8.148 20.711 4.901 20.711 C2.274 20.711 0.459 19.169 0.459 17.054 C0.459 17.054 0.459 16.974 0.459 16.974 C0.459 16.974 2.571 16.974 2.571 16.974 Z M5.089 13.941 C7.336 13.941 8.013 11.91 8.013 7.794 C8.013 3.79 7.202 1.812 5.035 1.812 C3.004 1.812 2.247 3.76 2.247 7.983 C2.247 12.019 2.978 13.941 5.089 13.941 Z" />
 </g>
 <g transform="translate(394.449, 123.206)" style="fill:#000000; fill-rule:nonzero; stroke:none; stroke-width:1; stroke-linecap:butt; stroke-linejoin:miter; stroke-dasharray:none;" >
  <path d="M9.475 10.503 C9.448 14.104 7.77 16.054 4.793 16.054 C1.489 16.054 0 13.51 0 8.203 C0 2.651 1.435 0 4.845 0 C8.04 0 9.529 2.248 9.529 6.796 C9.529 7.229 9.529 7.663 9.502 8.122 C9.502 8.122 2.192 8.122 2.192 8.122 C2.192 8.122 2.192 8.798 2.192 8.798 C2.192 12.482 2.977 14.269 4.953 14.269 C6.418 14.269 7.39 12.915 7.39 10.613 C7.39 10.613 7.39 10.503 7.39 10.503 C7.39 10.503 9.475 10.503 9.475 10.503 Z M7.364 6.387 C7.364 6.387 7.364 5.984 7.364 5.984 C7.364 3.167 6.524 1.761 4.899 1.761 C3.058 1.761 2.192 3.274 2.192 6.387 C2.192 6.387 7.364 6.387 7.364 6.387 Z" />
 </g>
 <g transform="translate(407.065, 123.206)" style="fill:#000000; fill-rule:nonzero; stroke:none; stroke-width:1; stroke-linecap:butt; stroke-linejoin:miter; stroke-dasharray:none;" >
  <path d="M2.111 11.073 C2.084 11.262 2.058 11.423 2.058 11.588 C2.058 13.238 3.006 14.133 4.818 14.133 C6.471 14.133 7.473 13.184 7.473 11.669 C7.473 9.854 6.471 9.531 4.655 8.908 C1.542 7.823 0.243 7.04 0.243 4.222 C0.243 1.595 1.868 0 4.685 0 C7.636 0 9.151 1.435 9.151 4.222 C9.151 4.222 9.151 4.439 9.151 4.439 C9.151 4.439 7.12 4.439 7.12 4.439 C7.039 2.597 6.334 1.814 4.765 1.814 C3.113 1.814 2.274 2.597 2.274 4.142 C2.274 4.819 2.49 5.388 2.924 5.741 C3.789 6.47 5.144 6.687 6.66 7.283 C8.745 8.095 9.584 9.232 9.584 11.29 C9.584 14.349 7.742 16.054 4.521 16.054 C1.542 16.054 0 14.459 0 11.399 C0 11.399 0 11.073 0 11.073 C0 11.073 2.111 11.073 2.111 11.073 " />
 </g>
</svg>
