<?xml version="1.0" encoding="utf-8"?>
<!-- Generator: Adobe Illustrator 13.0.0, SVG Export Plug-In . SVG Version: 6.00 Build 14948)  -->
<!DOCTYPE svg PUBLIC "-//W3C//DTD SVG 1.1//EN" "http://www.w3.org/Graphics/SVG/1.1/DTD/svg11.dtd">
<svg version="1.1" xmlns="http://www.w3.org/2000/svg" xmlns:xlink="http://www.w3.org/1999/xlink" x="0px" y="0px"
	 width="287.119px" height="267.876px" viewBox="0 0 287.119 267.876" enable-background="new 0 0 287.119 267.876"
	 xml:space="preserve">
<g id="Sfondo">
</g>
<g id="Guide">
</g>
<g id="Primo_piano">
	<g>
		<g>
			<g>
				<path fill-rule="evenodd" clip-rule="evenodd" fill="#F7B36D" d="M65.899,201.991c2.837-0.02,5.044-0.681,6.621-1.985
					c1.577-1.304,2.377-3.134,2.401-5.49c-0.024-2.348-0.764-4.178-2.221-5.493c-1.457-1.314-3.487-1.982-6.092-2.004
					c-1.226,0.001-2.37,0.155-3.431,0.46c-1.061,0.306-2.021,0.752-2.88,1.341c-0.938,0.655-1.633,1.442-2.086,2.361
					c-0.452,0.919-0.677,2.016-0.675,3.291c0.012,2.434,0.733,4.293,2.163,5.577S63.196,201.981,65.899,201.991z M65.777,187.864
					c1.939,0.034,3.497,0.722,4.672,2.063c1.175,1.341,1.779,3.132,1.81,5.372c-0.022,1.804-0.541,3.228-1.556,4.271
					s-2.396,1.576-4.143,1.598c-1.976-0.024-3.521-0.699-4.635-2.024c-1.114-1.325-1.681-3.158-1.7-5.497
					c0.016-1.81,0.51-3.222,1.483-4.236C62.68,188.396,64.037,187.881,65.777,187.864z"/>
				<path fill-rule="evenodd" clip-rule="evenodd" fill="#F7B36D" d="M93.328,199.081l-3.739-4.175l-0.318-0.347
					c-0.037-0.032-0.062-0.065-0.077-0.097c-0.015-0.033-0.022-0.065-0.021-0.098c0.001-0.043,0.018-0.086,0.049-0.127
					c0.031-0.041,0.072-0.078,0.122-0.111c0.025-0.011,0.073-0.033,0.144-0.065s0.162-0.076,0.272-0.13l0.832-0.392
					c0.925-0.415,1.567-0.857,1.927-1.326c0.359-0.469,0.532-1.085,0.516-1.848c-0.002-0.398-0.071-0.781-0.208-1.15
					c-0.136-0.368-0.328-0.681-0.574-0.938c-0.347-0.355-0.79-0.615-1.329-0.778s-1.221-0.243-2.045-0.241h-9.194v0.585
					c1.133,0.194,1.893,0.446,2.277,0.758c0.385,0.311,0.563,0.819,0.535,1.524v8.759c0.039,0.686-0.118,1.173-0.471,1.462
					s-1.133,0.57-2.341,0.842v0.563h8.289v-0.563c-1.242-0.195-2.074-0.451-2.496-0.769c-0.422-0.317-0.618-0.829-0.587-1.536v-3.24
					c-0.007-0.275,0.038-0.458,0.134-0.549c0.097-0.09,0.289-0.132,0.575-0.125c0.365-0.006,0.669,0.055,0.915,0.185
					c0.245,0.129,0.52,0.365,0.823,0.707l2.569,2.892c0.025,0.032,0.085,0.098,0.18,0.195s0.223,0.229,0.382,0.392
					c0.782,0.804,1.343,1.326,1.686,1.565c0.33,0.253,0.739,0.457,1.228,0.609c0.489,0.153,0.984,0.231,1.485,0.235h2.054v-0.563
					c-0.611,0.007-1.198-0.154-1.761-0.483S93.988,199.834,93.328,199.081z M84.891,193.822v-4.262
					c-0.017-0.618,0.127-1.04,0.431-1.266c0.304-0.227,0.87-0.333,1.697-0.321c1.109-0.003,1.926,0.215,2.45,0.658
					c0.524,0.442,0.784,1.129,0.78,2.06c-0.018,1.082-0.404,1.946-1.156,2.593s-1.762,0.978-3.028,0.995h-0.563
					c-0.229,0.002-0.389-0.03-0.48-0.098S84.888,193.993,84.891,193.822z"/>
				<path fill-rule="evenodd" clip-rule="evenodd" fill="#F7B36D" d="M108.381,186.91c-2.691,0.032-4.83,0.723-6.417,2.072
					c-1.586,1.35-2.398,3.165-2.435,5.447c0.027,2.36,0.84,4.205,2.438,5.534c1.598,1.329,3.818,2.005,6.658,2.028
					c0.63-0.001,1.29-0.042,1.978-0.125c0.688-0.082,1.366-0.199,2.033-0.352c0.703-0.155,1.171-0.278,1.407-0.369
					c0.236-0.09,0.345-0.192,0.327-0.304v-3.13c-0.012-0.533,0.097-0.924,0.327-1.171s0.651-0.416,1.263-0.502v-0.587h-7.481v0.587
					c1.004,0.134,1.747,0.276,2.228,0.424c0.481,0.148,0.792,0.366,0.934,0.651c0.142,0.286,0.205,0.703,0.189,1.25v1.739
					c0.013,0.387-0.172,0.663-0.554,0.826c-0.381,0.164-1.037,0.244-1.966,0.239c-2.148-0.034-3.864-0.721-5.146-2.06
					s-1.94-3.123-1.972-5.353c0.015-1.896,0.523-3.37,1.523-4.421c1-1.051,2.4-1.584,4.201-1.601
					c0.725,0.002,1.397,0.096,2.018,0.283c0.621,0.187,1.171,0.455,1.651,0.804c0.481,0.359,0.856,0.777,1.127,1.255
					c0.27,0.479,0.481,1.082,0.632,1.81h0.562l0.342-4.13c-1.079-0.272-2.115-0.481-3.106-0.626
					C110.15,186.985,109.23,186.912,108.381,186.91z"/>
				<path fill-rule="evenodd" clip-rule="evenodd" fill="#F7B36D" d="M126.037,201.752v-0.563c-1.135-0.139-1.903-0.312-2.302-0.519
					c-0.399-0.207-0.585-0.526-0.559-0.959c0.005-0.232,0.086-0.577,0.241-1.035c0.156-0.458,0.352-0.939,0.59-1.443l0.587-1.174
					l0.171-0.37h5.282l1.516,3.414l0.171,0.37c0.013,0.043,0.024,0.087,0.034,0.133c0.009,0.045,0.015,0.095,0.015,0.149
					c0.025,0.389-0.148,0.682-0.52,0.88c-0.372,0.198-1.096,0.383-2.17,0.554v0.563h8.559v-0.563
					c-0.945-0.293-1.617-0.564-2.015-0.812c-0.398-0.248-0.721-0.6-0.969-1.057c-0.378-0.607-0.803-1.355-1.275-2.245
					c-0.472-0.89-1.001-1.93-1.586-3.123c-0.244-0.468-0.49-0.961-0.74-1.478s-0.508-1.053-0.776-1.608
					c-0.295-0.623-0.528-1.125-0.698-1.509c-0.17-0.383-0.316-0.737-0.438-1.06c-0.122-0.323-0.256-0.706-0.405-1.147h-0.832
					c-0.132,0.362-0.253,0.67-0.364,0.923c-0.111,0.254-0.299,0.627-0.565,1.12l-0.856,1.673l-0.88,1.608l-2.005,3.627
					c-0.318,0.565-0.514,0.913-0.587,1.044c-0.135,0.229-0.269,0.45-0.4,0.663s-0.259,0.412-0.382,0.598
					c-0.013,0.032-0.061,0.109-0.144,0.231c-0.083,0.122-0.198,0.291-0.345,0.508c-0.445,0.685-0.869,1.164-1.272,1.438
					c-0.402,0.274-0.973,0.476-1.711,0.605v0.563H126.037z M129.509,194.474c0.049,0.087,0.073,0.174,0.073,0.261
					c0.001,0.043-0.025,0.076-0.079,0.098c-0.054,0.022-0.142,0.033-0.263,0.033h-3.668c-0.108,0.001-0.185-0.012-0.229-0.041
					c-0.044-0.029-0.065-0.081-0.064-0.155c-0.001-0.044,0.001-0.082,0.006-0.114c0.005-0.033,0.02-0.06,0.043-0.082l2.176-4.325
					L129.509,194.474z"/>
				<path fill-rule="evenodd" clip-rule="evenodd" fill="#F7B36D" d="M147.746,201.752v-0.543c-0.966-0.176-1.703-0.399-2.209-0.671
					c-0.506-0.272-0.85-0.67-1.031-1.193c-0.181-0.523-0.266-1.25-0.254-2.178v-7.281h0.171l11.858,12.105
					c0.036,0.042,0.068,0.071,0.095,0.087c0.027,0.016,0.053,0.022,0.077,0.022c0.047,0.002,0.075-0.013,0.085-0.046
					s0.014-0.098,0.012-0.193v-9.737c0.001-0.601,0.03-1.133,0.085-1.597c0.056-0.465,0.134-0.845,0.232-1.141
					c0.168-0.487,0.456-0.855,0.862-1.105c0.407-0.25,0.951-0.396,1.633-0.437v-0.585h-7.48v0.585
					c0.718,0.051,1.281,0.133,1.689,0.247c0.409,0.114,0.758,0.277,1.048,0.492c0.336,0.222,0.568,0.577,0.697,1.065
					c0.128,0.488,0.189,1.278,0.183,2.369v5.824l-9.39-9.584c-0.186-0.181-0.31-0.324-0.373-0.428
					c-0.063-0.105-0.126-0.258-0.189-0.46c-0.011-0.01-0.02-0.022-0.024-0.038c-0.005-0.015-0.014-0.039-0.024-0.07h-5.378v0.585
					c1.177,0.192,1.99,0.438,2.439,0.738c0.45,0.301,0.664,0.743,0.642,1.326v7.324c0.003,0.841-0.046,1.49-0.15,1.945
					c-0.103,0.456-0.282,0.821-0.535,1.098c-0.188,0.214-0.448,0.394-0.78,0.538s-0.781,0.269-1.348,0.375v0.565H147.746z"/>
				<path fill-rule="evenodd" clip-rule="evenodd" fill="#F7B36D" d="M165.189,190.125v8.782c0.039,0.675-0.118,1.156-0.471,1.443
					s-1.133,0.566-2.341,0.839v0.563h8.165l-0.024-0.563c-1.213-0.244-2.015-0.516-2.403-0.814s-0.565-0.788-0.532-1.467v-8.782
					c-0.021-0.712,0.18-1.233,0.605-1.565c0.425-0.332,1.202-0.57,2.33-0.717l0.024-0.585h-8.165v0.585
					c1.123,0.195,1.879,0.451,2.268,0.766S165.215,189.429,165.189,190.125z"/>
				<path fill-rule="evenodd" clip-rule="evenodd" fill="#F7B36D" d="M185.291,201.752l1.149,0.065l1.37,0.087l0.391,0.021
					l0.783-5.272h-0.661c-0.843,1.659-1.59,2.795-2.24,3.407c-0.651,0.612-1.428,0.902-2.333,0.868h-5.502l10.467-13.238v-0.411
					h-9.904l-1.516-0.065l-1.394-0.108v4.556h0.661c0.208-0.528,0.36-0.904,0.455-1.128c0.095-0.225,0.205-0.449,0.327-0.673
					c0.316-0.628,0.735-1.097,1.256-1.405c0.521-0.309,1.154-0.462,1.898-0.461h5.086l-10.882,13.368v0.39H185.291z"/>
				<path fill-rule="evenodd" clip-rule="evenodd" fill="#F7B36D" d="M203.756,201.752l1.149,0.065l1.37,0.087l0.392,0.021
					l0.782-5.272h-0.66c-0.843,1.659-1.59,2.795-2.241,3.407c-0.65,0.612-1.428,0.902-2.333,0.868h-5.502l10.466-13.238v-0.411
					h-9.904l-1.516-0.065l-1.394-0.108v4.556h0.66c0.208-0.528,0.36-0.904,0.456-1.128c0.095-0.225,0.204-0.449,0.327-0.673
					c0.316-0.628,0.735-1.097,1.256-1.405c0.521-0.309,1.154-0.462,1.898-0.461h5.087l-10.882,13.368v0.39H203.756z"/>
				<path fill-rule="evenodd" clip-rule="evenodd" fill="#F7B36D" d="M217.966,201.752v-0.563c-1.136-0.139-1.903-0.312-2.302-0.519
					c-0.399-0.207-0.585-0.526-0.56-0.959c0.006-0.232,0.086-0.577,0.242-1.035s0.352-0.939,0.59-1.443l0.587-1.174l0.171-0.37
					h5.282l1.517,3.414l0.171,0.37c0.013,0.043,0.024,0.087,0.034,0.133c0.01,0.045,0.015,0.095,0.015,0.149
					c0.025,0.389-0.147,0.682-0.52,0.88s-1.095,0.383-2.17,0.554v0.563h8.559v-0.563c-0.945-0.293-1.616-0.564-2.014-0.812
					c-0.398-0.248-0.721-0.6-0.969-1.057c-0.377-0.607-0.802-1.355-1.274-2.245c-0.473-0.89-1.001-1.93-1.587-3.123
					c-0.243-0.468-0.49-0.961-0.739-1.478c-0.25-0.517-0.509-1.053-0.777-1.608c-0.295-0.623-0.528-1.125-0.698-1.509
					c-0.17-0.383-0.316-0.737-0.438-1.06c-0.121-0.323-0.256-0.706-0.405-1.147h-0.832c-0.132,0.362-0.253,0.67-0.364,0.923
					c-0.11,0.254-0.299,0.627-0.565,1.12l-0.856,1.673l-0.88,1.608l-2.005,3.627c-0.318,0.565-0.513,0.913-0.587,1.044
					c-0.135,0.229-0.268,0.45-0.4,0.663c-0.132,0.213-0.259,0.412-0.382,0.598c-0.013,0.032-0.061,0.109-0.144,0.231
					c-0.083,0.122-0.198,0.291-0.346,0.508c-0.445,0.685-0.869,1.164-1.271,1.438s-0.973,0.476-1.712,0.605v0.563H217.966z
					 M221.439,194.474c0.049,0.087,0.073,0.174,0.073,0.261c0.001,0.043-0.025,0.076-0.08,0.098
					c-0.054,0.022-0.142,0.033-0.263,0.033h-3.668c-0.108,0.001-0.185-0.012-0.229-0.041c-0.044-0.029-0.066-0.081-0.064-0.155
					c-0.001-0.044,0.001-0.082,0.006-0.114c0.005-0.033,0.019-0.06,0.043-0.082l2.176-4.325L221.439,194.474z"/>
			</g>
			<g>
				<path fill-rule="evenodd" clip-rule="evenodd" fill="#F7B36D" d="M14.486,267.876c6.591-0.079,11.871-1.656,15.84-4.731
					c3.969-3.075,6.005-7.174,6.109-12.297c0-1.469-0.233-2.833-0.698-4.09c-0.466-1.258-1.164-2.494-2.095-3.709
					c-0.892-1.118-1.943-2.146-3.153-3.083c-1.21-0.938-2.813-1.944-4.809-3.02l-6.445-3.56c-3.913-2.125-6.75-4.17-8.511-6.135
					c-1.761-1.966-2.626-4.074-2.596-6.326c0.059-2.677,0.98-4.846,2.766-6.505c1.786-1.66,4.085-2.514,6.9-2.563
					c1.929,0.009,3.667,0.373,5.215,1.091c1.548,0.718,2.777,1.738,3.689,3.061c0.715,1.113,1.277,2.469,1.686,4.069
					s0.694,3.635,0.858,6.104h2.285l1.1-13.902c-2.495-0.966-4.79-1.673-6.884-2.122c-2.094-0.449-4.264-0.67-6.507-0.665
					c-5.703,0.054-10.191,1.426-13.464,4.116c-3.273,2.69-4.942,6.372-5.007,11.046c0.003,1.63,0.25,3.181,0.741,4.652
					s1.203,2.746,2.137,3.825c1.041,1.249,2.409,2.545,4.107,3.889c1.697,1.344,3.576,2.619,5.636,3.825l7.717,4.408
					c2.553,1.483,4.358,2.946,5.417,4.387c1.058,1.441,1.571,3.115,1.537,5.023c-0.057,2.938-1.046,5.326-2.968,7.163
					c-1.922,1.836-4.438,2.783-7.547,2.84c-4.058-0.041-7.304-1.591-9.737-4.652s-3.877-7.388-4.33-12.98H1.355L0,265.934
					c2.847,0.672,5.429,1.165,7.748,1.478C10.067,267.725,12.313,267.88,14.486,267.876z"/>
				<path fill-rule="evenodd" clip-rule="evenodd" fill="#F7B36D" d="M81.642,240.077c6.345-0.056,11.331-1.594,14.959-4.615
					c3.628-3.021,5.477-7.188,5.547-12.5c0-1.583-0.19-3.06-0.571-4.43c-0.381-1.371-0.953-2.551-1.714-3.54
					c-1.194-1.819-2.722-3.045-4.583-3.679c-1.862-0.634-4.768-0.93-8.719-0.888H55.882v2.28c1.003,0.155,1.794,0.267,2.373,0.337
					c2.755,0.413,4.683,1.218,5.785,2.416c1.102,1.198,1.632,3.105,1.589,5.723v34.583c0.092,2.759-0.537,4.766-1.886,6.02
					c-1.349,1.254-3.97,2.242-7.861,2.965v2.196h29.661v-2.196c-4.417-0.532-7.477-1.457-9.18-2.774s-2.516-3.388-2.438-6.21
					v-36.279c-0.046-2.413,0.406-4.073,1.357-4.981c0.95-0.908,2.675-1.339,5.173-1.293h2.035c3.403,0.014,5.989,0.961,7.76,2.84
					c1.77,1.879,2.661,4.607,2.671,8.182c-0.009,2.344-0.458,4.439-1.346,6.285c-0.889,1.846-2.164,3.369-3.827,4.568
					c-1.2,0.912-2.574,1.568-4.124,1.97c-1.549,0.402-3.708,0.677-6.477,0.825v2.195H81.642z"/>
				<path fill-rule="evenodd" clip-rule="evenodd" fill="#F7B36D" d="M148.378,267.876c9.833-0.076,17.482-2.656,22.947-7.74
					c5.464-5.085,8.239-12.221,8.323-21.41c-0.083-9.155-2.648-16.295-7.697-21.42c-5.049-5.125-12.087-7.73-21.114-7.814
					c-4.25,0.006-8.213,0.605-11.89,1.796s-7.005,2.934-9.983,5.229c-3.25,2.555-5.66,5.625-7.228,9.208
					c-1.568,3.583-2.348,7.861-2.339,12.832c0.042,9.492,2.541,16.742,7.497,21.749S139.01,267.836,148.378,267.876z
					 M147.954,212.787c6.722,0.132,12.12,2.813,16.193,8.042c4.073,5.229,6.164,12.212,6.273,20.949
					c-0.076,7.036-1.874,12.588-5.394,16.657c-3.52,4.069-8.306,6.146-14.359,6.231c-6.849-0.094-12.204-2.725-16.065-7.895
					c-3.861-5.169-5.825-12.314-5.893-21.436c0.055-7.059,1.768-12.565,5.14-16.52C137.221,214.862,141.922,212.852,147.954,212.787
					z"/>
				<path fill-rule="evenodd" clip-rule="evenodd" fill="#F7B36D" d="M217.425,267.876c6.591-0.079,11.871-1.656,15.84-4.731
					c3.969-3.075,6.005-7.174,6.109-12.297c0-1.469-0.232-2.833-0.698-4.09c-0.465-1.258-1.164-2.494-2.095-3.709
					c-0.892-1.118-1.943-2.146-3.153-3.083c-1.21-0.938-2.813-1.944-4.809-3.02l-6.444-3.56c-3.913-2.125-6.75-4.17-8.511-6.135
					c-1.761-1.966-2.626-4.074-2.596-6.326c0.058-2.677,0.98-4.846,2.766-6.505c1.786-1.66,4.086-2.514,6.9-2.563
					c1.929,0.009,3.667,0.373,5.215,1.091c1.547,0.718,2.777,1.738,3.689,3.061c0.715,1.113,1.277,2.469,1.685,4.069
					s0.694,3.635,0.859,6.104h2.285l1.101-13.902c-2.495-0.966-4.79-1.673-6.884-2.122c-2.095-0.449-4.264-0.67-6.507-0.665
					c-5.704,0.054-10.191,1.426-13.465,4.116c-3.273,2.69-4.942,6.372-5.007,11.046c0.003,1.63,0.25,3.181,0.74,4.652
					s1.203,2.746,2.138,3.825c1.04,1.249,2.409,2.545,4.106,3.889c1.697,1.344,3.576,2.619,5.636,3.825l7.717,4.408
					c2.553,1.483,4.358,2.946,5.417,4.387c1.058,1.441,1.57,3.115,1.537,5.023c-0.057,2.938-1.046,5.326-2.968,7.163
					c-1.922,1.836-4.438,2.783-7.547,2.84c-4.058-0.041-7.303-1.591-9.737-4.652s-3.877-7.388-4.33-12.98h-2.116l-1.355,18.9
					c2.846,0.672,5.429,1.165,7.748,1.478C213.006,267.725,215.252,267.88,217.425,267.876z"/>
				<path fill-rule="evenodd" clip-rule="evenodd" fill="#F7B36D" d="M268.568,221.602v34.248c0.134,2.633-0.41,4.509-1.631,5.626
					c-1.222,1.118-3.927,2.208-8.116,3.271v2.196h28.298l-0.084-2.196c-4.206-0.952-6.982-2.011-8.327-3.176
					c-1.346-1.165-1.96-3.072-1.844-5.722v-34.248c-0.074-2.776,0.625-4.811,2.098-6.103s4.164-2.224,8.073-2.795l0.084-2.28
					h-28.298v2.28c3.892,0.761,6.512,1.756,7.861,2.985S268.66,218.889,268.568,221.602z"/>
			</g>
		</g>
		<g>
			<path fill-rule="evenodd" clip-rule="evenodd" fill="#C4C5C6" d="M153.003,142.686c1.433,0.347,2.556,0.615,3.369,0.802
				c0.813,0.187,1.524,0.409,2.131,0.665c0.794,0.225,1.589,0.554,2.383,0.985c0.794,0.432,2.322,1.264,4.583,2.498
				c0.81,0.367,1.482,0.642,2.017,0.825s1.024,0.275,1.467,0.275c1.15-0.015,2.563-0.397,4.24-1.146
				c1.677-0.749,3.319-1.772,4.927-3.071c2.957-2.418,5.248-5.237,6.875-8.456c1.627-3.22,2.452-6.634,2.475-10.244
				c-0.119-6.149-2.357-11.084-6.715-14.804c-4.358-3.72-10.126-5.63-17.303-5.729c-7.5,0.095-14.399,1.881-20.697,5.357
				s-9.334,8.234-13.167,13.951c-3.833,5.717-7.832,11.824-7.938,18.641c0.107,8.972,3.422,15.961,9.946,20.969
				s15.614,7.551,27.272,7.631c11.861-0.158,22.912-2.917,33.15-8.277c10.239-5.36,18.532-12.369,24.88-21.029
				c6.348-8.66,9.616-18.019,9.805-28.077c0.119-6.493-1.814-11.611-5.798-15.354c-3.984-3.743-10.729-6.753-20.236-9.029
				c-2.754-0.649-5.084-1.23-6.99-1.742s-3.365-0.909-4.377-1.192c-1.65-0.374-3.208-0.863-4.675-1.467
				c-1.467-0.604-2.842-1.276-4.125-2.017c-1.577-1.023-2.822-2.322-3.735-3.896s-1.379-3.33-1.398-5.271
				c0.233-6.653,2.792-12.413,7.677-17.279s10.699-7.417,17.44-7.654c3.75,0.076,6.837,1.161,9.259,3.254
				c2.421,2.093,3.674,4.736,3.758,7.929c0.015,2.074-0.291,4.022-0.917,5.844c-0.627,1.822-1.666,3.724-3.117,5.706l1.833-1.65
				l2.383-2.567c0.188-0.191,0.546-0.542,1.077-1.054c0.531-0.512,1.211-1.138,2.04-1.879c1.276-1.173,2.208-2.219,2.796-3.14
				c0.588-0.92,0.878-1.83,0.871-2.727c-0.203-3.518-2.318-6.566-6.348-9.144c-4.03-2.578-8.758-3.93-14.186-4.056
				c-8.995,0.252-16.672,3.231-23.032,8.938c-6.36,5.706-9.683,12.627-9.969,20.762c0.023,3.231,1.306,6.027,3.85,8.388
				c2.544,2.36,6.21,4.148,11,5.362l10.817,2.933c8.571,2.162,14.851,5.08,18.838,8.754c3.987,3.674,5.958,8.334,5.913,13.979
				c-0.073,6.359-1.853,12.845-5.34,19.456c-3.487,6.612-8.247,12.593-14.277,17.944c-5.581,4.973-11.791,8.777-18.632,11.413
				c-6.841,2.635-13.831,3.964-20.969,3.987c-8.812-0.076-15.756-2.032-20.832-5.867c-5.076-3.835-7.666-9.09-7.769-15.767
				c0.095-6.582,1.759-12.709,4.991-18.381c3.232-5.672,7.463-10.264,12.691-13.777s10.885-5.321,16.969-5.425
				c5.087,0.115,9.35,1.627,12.788,4.538c3.438,2.91,5.226,6.531,5.363,10.862c-0.187,4.958-2.15,9.296-5.89,13.017
				s-8.132,5.676-13.178,5.867c-0.397-0.031-2.903-0.153-7.517-0.367H153.003z"/>
			<path fill="#C4C5C6" d="M71.214,76.399c-1.756-1.301-3.339-2.871-4.749-4.708c-4.358-5.683-6.365-13.006-6.019-21.97
				c0.609-9.354,3.289-17.848,8.04-25.481c4.751-7.633,10.82-13.655,18.207-18.065c7.386-4.41,15.337-6.458,23.853-6.144
				c13.938,0.648,23.151,11.98,26.341,14.988c6.82,3.881,13.118,8.133,18.245,17.201c4.407,7.793,6.601,22.397,5.604,32.791
				c-0.942,9.821-6.333,28.193-10.234,37.499c-3.902,9.305-7.441,13.379-13.506,20.362c-6.174,7.006-14.196,16.508-21.179,20.365
				c-6.982,3.857-13.677,5.924-20.085,6.2s-11.838-1.452-16.291-5.187c-4.919-4.378-8.496-10.614-10.729-18.708
				c-2.233-8.094-2.884-17.226-1.952-27.396C67.537,90.884,69.021,83.635,71.214,76.399z M129.133,14.721
				c-3.559-2.417-10.313-4.314-15.212-4.646c-8.221-0.312-15.977,1.364-23.268,5.027c-7.291,3.663-13.299,8.643-18.025,14.938
				s-7.354,13.237-7.881,20.824c-0.189,6.357,1.419,11.776,4.827,16.257c1.069,1.405,2.235,2.613,3.5,3.622
				c1.031-2.909,2.176-5.817,3.436-8.722C81.716,50.015,88.369,39.3,96.466,29.874c6.681-7.444,13.799-12.282,21.354-14.514
				C120.97,14.429,125.133,13.471,129.133,14.721z M139.052,47.185c0.457-10.459-1.167-19.496-5.169-25.964
				c-3.75-1.75-7.189-1.865-11.98,0c-5.028,1.958-10.138,5.868-15.329,11.729c-6.56,7.624-12.506,16.732-17.839,27.325
				c-2.351,4.669-4.47,9.406-6.359,14.211l0.404,0.038c6.2,0.091,11.744-2.076,16.631-6.5s7.616-9.778,8.184-16.063
				c-0.012-0.498-0.001-3.633,0.034-9.406l0.18-3.432l0.781,4.257c0.18,1.028,0.41,1.929,0.69,2.703
				c0.229,1.006,0.587,2.019,1.074,3.039l2.818,5.884c0.405,1.034,0.704,1.892,0.898,2.571c0.194,0.679,0.276,1.296,0.248,1.849
				c-0.094,1.434-0.664,3.173-1.708,5.217c-1.044,2.044-2.429,4.027-4.155,5.949c-3.211,3.532-6.879,6.208-11.004,8.028
				s-8.441,2.627-12.947,2.419c-1.507-0.108-2.95-0.315-4.33-0.622c-1.462,4.182-2.753,8.414-3.874,12.697
				c-2.738,10.69-3.61,20.232-2.617,28.625c0.993,8.393,3.745,14.626,8.255,18.699c5.202,4.21,11.766,4.896,19.694,2.06
				s17.049-7.635,24.767-16.331c6.256-7.236,11.795-15.485,16.619-24.749c4.823-9.263,9.233-18.718,11.198-28.84
				c4.924-25.363-2.632-35.856-3.874-38.35c-1.747-3.507-6.977-9.41-10.959-11.508c11.75,21.75,4.247,38.653,1.822,45.669
				c-2.447,7.081-7.934,17.279-14.003,24.371c-5.024,5.871-10.314,9.963-15.51,12.59c-5.196,2.627-9.068,2.989-11.617,1.085
				c-0.618-0.554-0.962-1.227-1.033-2.019c-0.07-0.792,0.121-1.612,0.574-2.459l1.825-3.037l1.11-2.842
				c0.335-0.751,0.681-1.357,1.037-1.818c0.191-0.219,0.42-0.405,0.688-0.557c0.269-0.152,0.643-0.348,1.123-0.588
				c-0.144,0.153-0.299,0.279-0.464,0.378c-0.166,0.099-0.287,0.187-0.364,0.262c-0.647,0.797-0.908,1.93-0.781,3.401
				c-0.102,1.317,0.365,2.448,1.401,3.394c1.492,1.275,3.353,1.442,5.582,0.501c2.229-0.941,4.7-2.962,7.414-6.065
				c4.376-5.08,8.343-11.195,11.902-18.345c3.517-7.067,6.238-14.427,8.168-22.077C138.862,52.169,138.914,49.666,139.052,47.185z"
				/>
		</g>
	</g>
</g>
</svg>
