<?xml version="1.0" encoding="utf-8"?>
<!-- Generator: Adobe Illustrator 13.0.0, SVG Export Plug-In  -->
<!DOCTYPE svg PUBLIC "-//W3C//DTD SVG 1.1//EN" "http://www.w3.org/Graphics/SVG/1.1/DTD/svg11.dtd" [
	<!ENTITY ns_flows "http://ns.adobe.com/Flows/1.0/">
]>
<svg version="1.1"
	 xmlns="http://www.w3.org/2000/svg" xmlns:xlink="http://www.w3.org/1999/xlink" xmlns:a="http://ns.adobe.com/AdobeSVGViewerExtensions/3.0/"
	 x="0px" y="0px" width="170px" height="65px" viewBox="-0.197 -0.834 170 65" enable-background="new -0.197 -0.834 170 65"
	 xml:space="preserve">
<defs>
</defs>
<rect x="3.945" y="27.228" transform="matrix(-0.9455 0.3255 -0.3255 -0.9455 44.2741 71.4735)" stroke="#000000" stroke-width="0.9971" stroke-miterlimit="3.8637" width="24.424" height="24.426"/>
<polygon fill="#F9AA8F" points="0.634,31.89 23.729,23.938 8.587,54.985 "/>
<rect x="6.388" y="29.672" transform="matrix(-0.9455 0.3255 -0.3255 -0.9455 44.2741 71.4751)" fill="#ED1C24" width="19.539" height="19.54"/>
<path fill="#FFFFFF" stroke="#000000" stroke-width="0.7066" d="M23.699,44.245l-5.911-5.139c0,0-2.122-1.771-3.669,0.231
	c-1.548,2.003,0.284,3.443,0.284,3.443l14.772,12.844l-2.368-2.058c-0.4-0.35-0.965-0.232-0.965-0.232s-6.359,1.085-5.797,4.394
	c0,0-0.021,2.369,2.999,2.15c0,0,0.867-0.413,4.958-0.103c0,0,5.364,2.231,9.079,1.809c0,0,2.449,0.1,4.856,1.939L51.5,52.519
	c0,0-3.922-7.215-7.175-10.65c0,0-8.749-9.89-11.614-4.317l4.073,3.948l-4.187-3.642c0,0-1.723-1.345-3.293,0.637
	c-1.57,1.982-0.149,3.149-0.149,3.149l2.489,2.164l0.57,0.498l-4.376-3.638c0,0-2.341-1.87-4.018,0.299
	c-1.676,2.169,0.347,3.687,0.347,3.687l4.412,3.836L23.699,44.245z"/>
<path d="M53.392,59.469c0.034-0.396,0.064-1.203,0.088-2.417c1.952-1.896,3.737-3.715,5.358-5.457
	c1.623-1.742,3.102-3.443,4.442-5.104c1.128-1.389,1.921-2.489,2.38-3.302c0.283-0.494,0.472-0.927,0.574-1.298
	c0.099-0.371,0.149-0.738,0.149-1.104c0-0.812-0.242-1.477-0.723-1.994c-0.481-0.519-1.103-0.907-1.866-1.165
	c-0.764-0.26-1.65-0.389-2.658-0.389c-1.68,0-3.828,0.336-6.446,1.01c0.169-0.825,0.314-1.667,0.433-2.526
	c2.355-0.457,4.68-0.686,6.977-0.686c1.053,0,2.071,0.102,3.049,0.308c0.977,0.206,1.838,0.552,2.582,1.04
	c0.744,0.487,1.294,1.059,1.652,1.717c0.357,0.657,0.535,1.374,0.535,2.148c0,0.458-0.043,0.899-0.131,1.321
	c-0.086,0.423-0.215,0.822-0.379,1.198c-0.317,0.716-0.732,1.468-1.249,2.255s-1.366,1.896-2.544,3.329
	c-1.181,1.433-2.437,2.865-3.77,4.298c-1.331,1.433-2.836,2.972-4.515,4.615c0.822,0.023,2.217,0.035,4.189,0.035
	c1.103,0,2.349-0.012,3.74-0.035s2.643-0.089,3.758-0.194c-0.093,1.022-0.152,1.821-0.175,2.396
	c-2.087-0.023-4.593-0.035-7.514-0.035l-3.22,0.018L53.392,59.469z"/>
<path d="M82.952,35.038c0.868,0,1.688,0.108,2.458,0.326c0.77,0.217,1.527,0.623,2.273,1.216c0.745,0.593,1.368,1.39,1.867,2.388
	s0.862,2.101,1.092,3.305c0.23,1.204,0.344,2.481,0.344,3.832c0,1.798-0.188,3.583-0.563,5.357
	c-0.377,1.773-0.926,3.295-1.648,4.563c-0.722,1.269-1.7,2.226-2.935,2.872c-1.232,0.646-2.571,0.97-4.017,0.97
	c-1.691,0-3.147-0.421-4.369-1.261c-1.222-0.839-2.147-2.075-2.776-3.709c-0.628-1.633-0.941-3.542-0.941-5.727
	c0-1.833,0.179-3.65,0.536-5.454c0.359-1.803,0.916-3.377,1.675-4.723c0.756-1.345,1.757-2.341,3.003-2.987
	C80.199,35.36,81.531,35.038,82.952,35.038z M82.858,37.311c-0.532,0-1.055,0.1-1.567,0.3c-0.513,0.199-1.006,0.51-1.478,0.933
	c-0.473,0.422-0.866,0.914-1.187,1.477c-0.316,0.563-0.621,1.293-0.91,2.189c-0.289,0.897-0.507,1.974-0.656,3.229
	c-0.146,1.255-0.221,2.533-0.221,3.835c0,1.22,0.084,2.305,0.248,3.254c0.142,0.809,0.4,1.589,0.78,2.34
	c0.271,0.574,0.631,1.072,1.079,1.495c0.448,0.422,0.92,0.732,1.416,0.932c0.494,0.2,1.031,0.299,1.61,0.299
	c0.577,0,1.132-0.105,1.662-0.315c0.531-0.212,1.06-0.593,1.584-1.144c0.525-0.551,1.004-1.363,1.434-2.437
	c0.431-1.073,0.743-2.284,0.938-3.633c0.194-1.348,0.292-2.721,0.292-4.116c0-1.148-0.067-2.157-0.204-3.025
	c-0.136-0.867-0.356-1.683-0.664-2.445c-0.306-0.762-0.701-1.387-1.186-1.873c-0.482-0.486-0.964-0.823-1.441-1.011
	C83.91,37.405,83.399,37.311,82.858,37.311z"/>
<path d="M103.549,35.038c0.869,0,1.688,0.108,2.459,0.326c0.768,0.217,1.527,0.623,2.271,1.216c0.747,0.593,1.368,1.39,1.867,2.388
	s0.863,2.101,1.094,3.305c0.229,1.204,0.344,2.481,0.344,3.832c0,1.798-0.188,3.583-0.564,5.357
	c-0.375,1.773-0.925,3.295-1.646,4.563c-0.724,1.269-1.701,2.226-2.935,2.872s-2.573,0.97-4.017,0.97
	c-1.691,0-3.148-0.421-4.37-1.261c-1.221-0.839-2.147-2.075-2.774-3.709c-0.628-1.633-0.943-3.542-0.943-5.727
	c0-1.833,0.18-3.65,0.536-5.454c0.359-1.803,0.918-3.377,1.675-4.723c0.758-1.345,1.759-2.341,3.005-2.987
	C100.795,35.36,102.129,35.038,103.549,35.038z M103.455,37.311c-0.53,0-1.053,0.1-1.567,0.3c-0.511,0.199-1.004,0.51-1.476,0.933
	c-0.473,0.422-0.867,0.914-1.187,1.477c-0.318,0.563-0.622,1.293-0.912,2.189c-0.288,0.897-0.506,1.974-0.654,3.229
	c-0.146,1.255-0.221,2.533-0.221,3.835c0,1.22,0.084,2.305,0.248,3.254c0.141,0.809,0.4,1.589,0.778,2.34
	c0.271,0.574,0.632,1.072,1.08,1.495c0.448,0.422,0.921,0.732,1.415,0.932c0.495,0.2,1.032,0.299,1.61,0.299
	c0.579,0,1.133-0.105,1.663-0.315c0.532-0.212,1.06-0.593,1.584-1.144c0.526-0.551,1.004-1.363,1.435-2.437s0.742-2.284,0.937-3.633
	c0.196-1.348,0.292-2.721,0.292-4.116c0-1.148-0.066-2.157-0.203-3.025c-0.135-0.867-0.356-1.683-0.664-2.445
	c-0.306-0.762-0.702-1.387-1.185-1.873c-0.484-0.486-0.964-0.823-1.442-1.011C104.508,37.405,103.998,37.311,103.455,37.311z"/>
<path d="M124.147,35.038c0.87,0,1.688,0.108,2.458,0.326c0.77,0.217,1.527,0.623,2.272,1.216c0.747,0.593,1.369,1.39,1.868,2.388
	s0.863,2.101,1.094,3.305c0.227,1.204,0.344,2.481,0.344,3.832c0,1.798-0.188,3.583-0.565,5.357
	c-0.376,1.773-0.925,3.295-1.646,4.563c-0.723,1.269-1.7,2.226-2.935,2.872s-2.572,0.97-4.016,0.97c-1.691,0-3.15-0.421-4.371-1.261
	c-1.221-0.839-2.146-2.075-2.774-3.709c-0.629-1.633-0.944-3.542-0.944-5.727c0-1.833,0.18-3.65,0.538-5.454
	c0.358-1.803,0.917-3.377,1.674-4.723c0.759-1.345,1.76-2.341,3.004-2.987C121.392,35.36,122.726,35.038,124.147,35.038z
	 M124.053,37.311c-0.53,0-1.054,0.1-1.567,0.3c-0.513,0.199-1.004,0.51-1.477,0.933c-0.472,0.422-0.868,0.914-1.187,1.477
	c-0.319,0.563-0.621,1.293-0.911,2.189c-0.29,0.897-0.508,1.974-0.654,3.229c-0.148,1.255-0.222,2.533-0.222,3.835
	c0,1.22,0.083,2.305,0.248,3.254c0.141,0.809,0.4,1.589,0.777,2.34c0.272,0.574,0.632,1.072,1.08,1.495
	c0.448,0.422,0.921,0.732,1.415,0.932c0.496,0.2,1.034,0.299,1.61,0.299c0.58,0,1.133-0.105,1.665-0.315
	c0.53-0.212,1.058-0.593,1.584-1.144c0.524-0.551,1.002-1.363,1.433-2.437c0.432-1.073,0.742-2.284,0.938-3.633
	c0.194-1.348,0.291-2.721,0.291-4.116c0-1.148-0.067-2.157-0.203-3.025c-0.135-0.867-0.357-1.683-0.663-2.445
	c-0.308-0.762-0.702-1.387-1.187-1.873c-0.482-0.486-0.964-0.823-1.441-1.011C125.106,37.405,124.595,37.311,124.053,37.311z"/>
<path d="M53.392,59.469c0.034-0.396,0.064-1.203,0.088-2.417c1.952-1.896,3.737-3.715,5.358-5.457
	c1.623-1.742,3.102-3.443,4.442-5.104c1.128-1.389,1.921-2.489,2.38-3.302c0.283-0.494,0.472-0.927,0.574-1.298
	c0.099-0.371,0.149-0.738,0.149-1.104c0-0.812-0.242-1.477-0.723-1.994c-0.481-0.519-1.103-0.907-1.866-1.165
	c-0.764-0.26-1.65-0.389-2.658-0.389c-1.68,0-3.828,0.336-6.446,1.01c0.169-0.825,0.314-1.667,0.433-2.526
	c2.355-0.457,4.68-0.686,6.977-0.686c1.053,0,2.071,0.102,3.049,0.308c0.977,0.206,1.838,0.552,2.582,1.04
	c0.744,0.487,1.294,1.059,1.652,1.717c0.357,0.657,0.535,1.374,0.535,2.148c0,0.458-0.043,0.899-0.131,1.321
	c-0.086,0.423-0.215,0.822-0.379,1.198c-0.317,0.716-0.732,1.468-1.249,2.255s-1.366,1.896-2.544,3.329
	c-1.181,1.433-2.437,2.865-3.77,4.298c-1.331,1.433-2.836,2.972-4.515,4.615c0.822,0.023,2.217,0.035,4.189,0.035
	c1.103,0,2.349-0.012,3.74-0.035s2.643-0.089,3.758-0.194c-0.093,1.022-0.152,1.821-0.175,2.396
	c-2.087-0.023-4.593-0.035-7.514-0.035l-3.22,0.018L53.392,59.469z"/>
<path d="M82.952,35.038c0.868,0,1.688,0.108,2.458,0.326c0.77,0.217,1.527,0.623,2.273,1.216c0.745,0.593,1.368,1.39,1.867,2.388
	s0.862,2.101,1.092,3.305c0.23,1.204,0.344,2.481,0.344,3.832c0,1.798-0.188,3.583-0.563,5.357
	c-0.377,1.773-0.926,3.295-1.648,4.563c-0.722,1.269-1.7,2.226-2.935,2.872c-1.232,0.646-2.571,0.97-4.017,0.97
	c-1.691,0-3.147-0.421-4.369-1.261c-1.222-0.839-2.147-2.075-2.776-3.709c-0.628-1.633-0.941-3.542-0.941-5.727
	c0-1.833,0.179-3.65,0.536-5.454c0.359-1.803,0.916-3.377,1.675-4.723c0.756-1.345,1.757-2.341,3.003-2.987
	C80.199,35.36,81.531,35.038,82.952,35.038z M82.858,37.311c-0.532,0-1.055,0.1-1.567,0.3c-0.513,0.199-1.006,0.51-1.478,0.933
	c-0.473,0.422-0.866,0.914-1.187,1.477c-0.316,0.563-0.621,1.293-0.91,2.189c-0.289,0.897-0.507,1.974-0.656,3.229
	c-0.146,1.255-0.221,2.533-0.221,3.835c0,1.22,0.084,2.305,0.248,3.254c0.142,0.809,0.4,1.589,0.78,2.34
	c0.271,0.574,0.631,1.072,1.079,1.495c0.448,0.422,0.92,0.732,1.416,0.932c0.494,0.2,1.031,0.299,1.61,0.299
	c0.577,0,1.132-0.105,1.662-0.315c0.531-0.212,1.06-0.593,1.584-1.144c0.525-0.551,1.004-1.363,1.434-2.437
	c0.431-1.073,0.743-2.284,0.938-3.633c0.194-1.348,0.292-2.721,0.292-4.116c0-1.148-0.067-2.157-0.204-3.025
	c-0.136-0.867-0.356-1.683-0.664-2.445c-0.306-0.762-0.701-1.387-1.186-1.873c-0.482-0.486-0.964-0.823-1.441-1.011
	C83.91,37.405,83.399,37.311,82.858,37.311z"/>
<path d="M103.549,35.038c0.869,0,1.688,0.108,2.459,0.326c0.768,0.217,1.527,0.623,2.271,1.216c0.747,0.593,1.368,1.39,1.867,2.388
	s0.863,2.101,1.094,3.305c0.229,1.204,0.344,2.481,0.344,3.832c0,1.798-0.188,3.583-0.564,5.357
	c-0.375,1.773-0.925,3.295-1.646,4.563c-0.724,1.269-1.701,2.226-2.935,2.872s-2.573,0.97-4.017,0.97
	c-1.691,0-3.148-0.421-4.37-1.261c-1.221-0.839-2.147-2.075-2.774-3.709c-0.628-1.633-0.943-3.542-0.943-5.727
	c0-1.833,0.18-3.65,0.536-5.454c0.359-1.803,0.918-3.377,1.675-4.723c0.758-1.345,1.759-2.341,3.005-2.987
	C100.795,35.36,102.129,35.038,103.549,35.038z M103.455,37.311c-0.53,0-1.053,0.1-1.567,0.3c-0.511,0.199-1.004,0.51-1.476,0.933
	c-0.473,0.422-0.867,0.914-1.187,1.477c-0.318,0.563-0.622,1.293-0.912,2.189c-0.288,0.897-0.506,1.974-0.654,3.229
	c-0.146,1.255-0.221,2.533-0.221,3.835c0,1.22,0.084,2.305,0.248,3.254c0.141,0.809,0.4,1.589,0.778,2.34
	c0.271,0.574,0.632,1.072,1.08,1.495c0.448,0.422,0.921,0.732,1.415,0.932c0.495,0.2,1.032,0.299,1.61,0.299
	c0.579,0,1.133-0.105,1.663-0.315c0.532-0.212,1.06-0.593,1.584-1.144c0.526-0.551,1.004-1.363,1.435-2.437s0.742-2.284,0.937-3.633
	c0.196-1.348,0.292-2.721,0.292-4.116c0-1.148-0.066-2.157-0.203-3.025c-0.135-0.867-0.356-1.683-0.664-2.445
	c-0.306-0.762-0.702-1.387-1.185-1.873c-0.484-0.486-0.964-0.823-1.442-1.011C104.508,37.405,103.998,37.311,103.455,37.311z"/>
<path d="M124.147,35.038c0.87,0,1.688,0.108,2.458,0.326c0.77,0.217,1.527,0.623,2.272,1.216c0.747,0.593,1.369,1.39,1.868,2.388
	s0.863,2.101,1.094,3.305c0.227,1.204,0.344,2.481,0.344,3.832c0,1.798-0.188,3.583-0.565,5.357
	c-0.376,1.773-0.925,3.295-1.646,4.563c-0.723,1.269-1.7,2.226-2.935,2.872s-2.572,0.97-4.016,0.97c-1.691,0-3.15-0.421-4.371-1.261
	c-1.221-0.839-2.146-2.075-2.774-3.709c-0.629-1.633-0.944-3.542-0.944-5.727c0-1.833,0.18-3.65,0.538-5.454
	c0.358-1.803,0.917-3.377,1.674-4.723c0.759-1.345,1.76-2.341,3.004-2.987C121.392,35.36,122.726,35.038,124.147,35.038z
	 M124.053,37.311c-0.53,0-1.054,0.1-1.567,0.3c-0.513,0.199-1.004,0.51-1.477,0.933c-0.472,0.422-0.868,0.914-1.187,1.477
	c-0.319,0.563-0.621,1.293-0.911,2.189c-0.29,0.897-0.508,1.974-0.654,3.229c-0.148,1.255-0.222,2.533-0.222,3.835
	c0,1.22,0.083,2.305,0.248,3.254c0.141,0.809,0.4,1.589,0.777,2.34c0.272,0.574,0.632,1.072,1.08,1.495
	c0.448,0.422,0.921,0.732,1.415,0.932c0.496,0.2,1.034,0.299,1.61,0.299c0.58,0,1.133-0.105,1.665-0.315
	c0.53-0.212,1.058-0.593,1.584-1.144c0.524-0.551,1.002-1.363,1.433-2.437c0.432-1.073,0.742-2.284,0.938-3.633
	c0.194-1.348,0.291-2.721,0.291-4.116c0-1.148-0.067-2.157-0.203-3.025c-0.135-0.867-0.357-1.683-0.663-2.445
	c-0.308-0.762-0.702-1.387-1.187-1.873c-0.482-0.486-0.964-0.823-1.441-1.011C125.106,37.405,124.595,37.311,124.053,37.311z"/>
<path d="M11.395,32.142l0.395-5.337l0.743-18.387l0.093-3.951c0.015-0.627,0.024-1.246,0.024-1.856V0.047
	c1.957,0.032,3.545,0.047,4.766,0.047c0.737,0,1.865-0.016,3.383-0.047S23.451,0,24.204,0c1.989,0,3.46,0.146,4.415,0.436
	c0.955,0.29,1.8,0.776,2.537,1.458c0.736,0.682,1.315,1.524,1.738,2.527s0.633,2.109,0.633,3.316c0,1.975-0.499,3.751-1.499,5.327
	c-1,1.575-2.362,2.751-4.086,3.527c-1.728,0.776-3.652,1.164-5.775,1.164c-1.124,0-2.374-0.129-3.748-0.385
	c-0.24-1.081-0.512-2.059-0.817-2.936c1.218,0.224,2.405,0.337,3.562,0.337c1.124,0,2.198-0.13,3.221-0.388
	c1.022-0.259,1.9-0.69,2.636-1.294c0.735-0.604,1.304-1.36,1.711-2.271c0.406-0.909,0.609-1.875,0.609-2.894
	c0-0.8-0.148-1.541-0.445-2.223s-0.707-1.224-1.229-1.624c-0.524-0.4-1.118-0.671-1.781-0.811c-0.663-0.141-1.628-0.212-2.894-0.212
	h-1.968l-2.461,0.047l-1.827-0.024c-0.203,3.437-0.345,6.559-0.429,9.367l-0.354,9.671c-0.116,3.671-0.176,6.127-0.176,7.366v2.659
	l-2.156-0.047C13.358,32.095,12.615,32.11,11.395,32.142z"/>
<path d="M37.003,32.142c0.562-9.044,0.842-16.263,0.842-21.655L37.82,8.324c0.804,0.016,1.466,0.023,1.986,0.023
	c0.599,0,1.269-0.007,2.01-0.023l-0.178,3.903c0.58-0.969,1.092-1.701,1.538-2.193c0.446-0.492,0.95-0.899,1.513-1.219
	c0.562-0.32,1.202-0.571,1.913-0.751c0.711-0.179,1.449-0.27,2.217-0.27c0.656,0,1.306,0.081,1.945,0.241
	c0.015,1.016,0.063,2.154,0.146,3.417c-0.967-0.257-1.832-0.386-2.594-0.386c-0.92,0-1.745,0.153-2.477,0.46
	c-0.732,0.306-1.39,0.77-1.976,1.39c-0.583,0.621-1.062,1.363-1.438,2.228c-0.311,0.691-0.548,1.586-0.711,2.687
	c-0.165,1.1-0.293,3.103-0.386,6.011c-0.06,2.116-0.089,4.357-0.089,6.725v1.575c-0.856-0.031-1.546-0.047-2.071-0.047
	C38.694,32.095,37.971,32.11,37.003,32.142z"/>
<path d="M55.363,12.125c0.136-0.694,0.281-1.721,0.433-3.079c1.884-0.479,3.521-0.807,4.91-0.985
	c1.39-0.178,2.745-0.267,4.064-0.267c1.413,0,2.736,0.13,3.968,0.389c1.234,0.258,2.258,0.677,3.075,1.257
	c0.815,0.58,1.358,1.245,1.625,1.998c0.266,0.752,0.4,1.559,0.4,2.42c0,1.081-0.079,2.895-0.236,5.441
	c-0.157,2.546-0.276,4.9-0.358,7.062s-0.123,4.089-0.123,5.781c-0.853-0.031-1.548-0.047-2.086-0.047
	c-0.505,0-1.222,0.016-2.154,0.047l0.475-6.416l0.337-7.591c-0.546,0.423-0.956,0.721-1.228,0.894
	c-0.275,0.173-0.583,0.333-0.926,0.482c-0.344,0.149-0.722,0.29-1.136,0.423c-0.415,0.133-1.219,0.365-2.413,0.693
	c-1.195,0.33-2.042,0.581-2.542,0.753c-1.079,0.344-1.929,0.689-2.555,1.034c-0.625,0.344-1.147,0.721-1.569,1.128
	c-0.421,0.408-0.717,0.815-0.891,1.223c-0.202,0.5-0.303,1.025-0.303,1.574c0,0.847,0.25,1.583,0.751,2.21s1.132,1.062,1.893,1.304
	c0.761,0.243,1.673,0.365,2.739,0.365c0.659,0,1.348-0.047,2.069-0.141s1.684-0.335,2.891-0.726
	c-0.224,0.616-0.481,1.562-0.768,2.84c-1.145,0.213-2.078,0.347-2.8,0.401c-0.72,0.053-1.401,0.08-2.044,0.08
	c-2.148,0-3.825-0.251-5.032-0.753c-1.208-0.501-2.108-1.266-2.705-2.293c-0.595-1.026-0.894-2.143-0.894-3.351
	c0-0.706,0.106-1.355,0.317-1.952c0.212-0.596,0.498-1.137,0.857-1.623c0.36-0.486,0.873-0.972,1.539-1.458
	c0.665-0.486,1.361-0.885,2.089-1.199c0.729-0.314,1.578-0.623,2.547-0.929c0.97-0.306,2.53-0.718,4.672-1.235
	c0.69-0.156,1.276-0.317,1.762-0.482c0.485-0.165,0.916-0.325,1.291-0.482c0.375-0.157,0.704-0.341,0.987-0.553
	c0.281-0.211,0.54-0.47,0.774-0.776c0.236-0.306,0.407-0.615,0.517-0.929c0.109-0.313,0.165-0.627,0.165-0.94
	c0-0.771-0.251-1.432-0.753-1.982c-0.502-0.551-1.155-0.936-1.963-1.156c-0.807-0.22-1.76-0.331-2.857-0.331
	c-1.019,0-2.065,0.083-3.138,0.25c-1.074,0.166-1.999,0.364-2.774,0.594C57.49,11.322,56.522,11.666,55.363,12.125z"/>
<path d="M80.91,39.023c2.071,0.622,3.804,1.042,5.199,1.26s2.667,0.327,3.813,0.327c1.3,0,2.509-0.18,3.622-0.538
	c0.926-0.298,1.718-0.719,2.377-1.266c0.502-0.422,0.917-0.969,1.247-1.641c0.407-0.891,0.698-2.024,0.87-3.398
	c0.144-1.115,0.254-3.336,0.335-6.666c-0.377,0.705-0.718,1.277-1.022,1.715c-0.306,0.438-0.717,0.888-1.234,1.35
	c-0.517,0.462-1.12,0.873-1.811,1.233c-0.688,0.36-1.488,0.646-2.396,0.858s-1.85,0.317-2.821,0.317
	c-1.427,0-2.763-0.196-4.009-0.587s-2.359-1.042-3.338-1.95c-0.98-0.908-1.724-2.067-2.233-3.476
	c-0.508-1.41-0.764-2.882-0.764-4.416c0-2.114,0.38-4.126,1.14-6.037s1.872-3.508,3.338-4.792c1.465-1.285,3.117-2.192,4.958-2.725
	c1.843-0.532,3.859-0.799,6.053-0.799c2.413,0,5.413,0.321,9.002,0.963l-0.26,2.891l-0.708,13.187c0,0.267-0.04,1.866-0.12,4.795
	l-0.14,4.866c-0.079,1.034-0.222,1.943-0.425,2.727c-0.188,0.643-0.439,1.254-0.753,1.833c-0.281,0.533-0.634,1.019-1.058,1.458
	c-0.406,0.455-0.885,0.862-1.435,1.223c-0.549,0.36-1.136,0.65-1.763,0.869c-0.879,0.313-1.787,0.541-2.728,0.682
	c-1.065,0.173-2.132,0.259-3.198,0.259c-1.536,0-3.046-0.077-4.526-0.23s-3.139-0.445-4.973-0.876l-0.073-1.306
	C81.062,40.817,81.005,40.113,80.91,39.023z M99.019,11.307c-1.755-0.353-3.392-0.529-4.91-0.529c-1.536,0-2.955,0.179-4.265,0.54
	c-1.307,0.359-2.505,1.017-3.593,1.971c-1.09,0.954-1.938,2.189-2.549,3.707c-0.611,1.516-0.916,3.089-0.916,4.715
	c0,1.517,0.277,2.901,0.833,4.152c0.557,1.25,1.414,2.193,2.573,2.827c1.159,0.634,2.475,0.95,3.946,0.95
	c1.269,0,2.399-0.223,3.395-0.668c0.993-0.445,1.875-1.129,2.644-2.051c0.798-0.953,1.393-2.047,1.783-3.282
	c0.299-0.875,0.526-2.173,0.682-3.893C98.768,18.371,98.893,15.558,99.019,11.307z"/>
<path d="M108.43,32.142l0.265-3.41c0.048-0.721,0.112-1.856,0.191-3.409l0.576-14.319c0.016-1.176,0.024-2.068,0.024-2.68
	c0.732,0.016,1.401,0.023,2.008,0.023c0.654,0,1.302-0.007,1.939-0.023l-0.203,4.382c0.532-0.877,1.015-1.574,1.445-2.092
	c0.43-0.517,0.998-0.995,1.701-1.434c0.705-0.438,1.508-0.779,2.409-1.022c0.899-0.243,1.834-0.365,2.806-0.365
	c0.672,0,1.339,0.079,1.996,0.235s1.264,0.376,1.819,0.658c0.557,0.282,1.034,0.604,1.432,0.964c0.4,0.361,0.721,0.752,0.964,1.175
	c0.242,0.423,0.488,1.034,0.739,1.833c0.957-1.802,2.152-3.063,3.586-3.784c1.435-0.721,3.039-1.082,4.812-1.082
	c1.128,0,2.222,0.181,3.281,0.541c1.058,0.36,1.9,0.877,2.528,1.551c0.627,0.674,1.046,1.375,1.258,2.104
	c0.212,0.728,0.316,1.46,0.316,2.197c0,0.751-0.054,1.88-0.161,3.384c-0.107,1.504-0.231,3.796-0.37,6.875
	c-0.138,3.079-0.216,5.645-0.232,7.697c-0.832-0.031-1.483-0.047-1.954-0.047c-0.502,0-1.247,0.016-2.236,0.047
	c0.167-2.115,0.311-4.418,0.433-6.91l0.296-5.828c0.075-1.41,0.114-2.625,0.114-3.643c0-0.917-0.095-1.633-0.281-2.147
	c-0.188-0.514-0.49-0.976-0.905-1.387c-0.414-0.411-0.927-0.723-1.537-0.937c-0.611-0.213-1.308-0.32-2.089-0.32
	c-0.626,0-1.206,0.071-1.738,0.213c-0.5,0.142-0.986,0.354-1.455,0.638c-0.517,0.299-0.979,0.668-1.387,1.109
	c-0.406,0.426-0.75,0.906-1.032,1.441c-0.298,0.551-0.539,1.205-0.728,1.96c-0.234,0.945-0.399,2.102-0.493,3.472
	c-0.11,1.457-0.199,3.376-0.263,5.757l-0.19,6.581c-0.909-0.031-1.593-0.047-2.048-0.047c-0.425,0-1.139,0.016-2.143,0.047
	c0.161-1.942,0.288-3.94,0.385-5.993l0.287-5.688c0.081-1.755,0.121-3.251,0.121-4.489c0-0.802-0.079-1.483-0.234-2.041
	c-0.157-0.559-0.451-1.069-0.882-1.534c-0.432-0.464-0.953-0.818-1.563-1.062c-0.612-0.244-1.285-0.366-2.021-0.366
	c-0.785,0-1.528,0.138-2.234,0.413c-0.705,0.275-1.354,0.68-1.949,1.213c-0.597,0.534-1.097,1.189-1.505,1.967
	c-0.406,0.777-0.724,1.798-0.952,3.062c-0.227,1.265-0.401,3.463-0.524,6.598c-0.122,3.133-0.182,5.773-0.182,7.919
	c-1.011-0.031-1.705-0.047-2.085-0.047C110.174,32.095,109.457,32.11,108.43,32.142z"/>
<path d="M151.272,12.125c0.138-0.694,0.28-1.721,0.433-3.079c1.886-0.479,3.522-0.807,4.912-0.985
	c1.391-0.178,2.744-0.267,4.063-0.267c1.413,0,2.737,0.13,3.97,0.389c1.232,0.258,2.258,0.677,3.073,1.257
	c0.817,0.58,1.359,1.245,1.626,1.998c0.268,0.752,0.4,1.559,0.4,2.42c0,1.081-0.078,2.895-0.234,5.441
	c-0.157,2.546-0.277,4.9-0.359,7.062s-0.124,4.089-0.124,5.781c-0.852-0.031-1.546-0.047-2.082-0.047
	c-0.506,0-1.225,0.016-2.155,0.047l0.474-6.416l0.34-7.591c-0.547,0.423-0.958,0.721-1.231,0.894
	c-0.272,0.173-0.581,0.333-0.925,0.482c-0.344,0.149-0.722,0.29-1.138,0.423c-0.412,0.133-1.217,0.365-2.411,0.693
	c-1.195,0.33-2.042,0.581-2.543,0.753c-1.076,0.344-1.928,0.689-2.552,1.034c-0.625,0.344-1.147,0.721-1.569,1.128
	c-0.423,0.408-0.72,0.815-0.891,1.223c-0.203,0.5-0.305,1.025-0.305,1.574c0,0.847,0.251,1.583,0.752,2.21
	c0.5,0.627,1.133,1.062,1.893,1.304c0.761,0.243,1.674,0.365,2.739,0.365c0.659,0,1.349-0.047,2.069-0.141
	c0.72-0.094,1.686-0.335,2.893-0.726c-0.226,0.616-0.481,1.562-0.771,2.84c-1.144,0.213-2.076,0.347-2.797,0.401
	c-0.722,0.053-1.404,0.08-2.047,0.08c-2.146,0-3.825-0.251-5.03-0.753c-1.207-0.501-2.108-1.266-2.703-2.293
	c-0.598-1.026-0.894-2.143-0.894-3.351c0-0.706,0.104-1.355,0.316-1.952c0.211-0.596,0.496-1.137,0.856-1.623
	c0.36-0.486,0.873-0.972,1.537-1.458c0.667-0.486,1.363-0.885,2.091-1.199s1.576-0.623,2.548-0.929
	c0.971-0.306,2.527-0.718,4.673-1.235c0.688-0.156,1.275-0.317,1.761-0.482c0.483-0.165,0.914-0.325,1.291-0.482
	c0.376-0.157,0.705-0.341,0.985-0.553c0.283-0.211,0.541-0.47,0.776-0.776c0.234-0.306,0.407-0.615,0.515-0.929
	c0.111-0.313,0.165-0.627,0.165-0.94c0-0.771-0.25-1.432-0.752-1.982c-0.5-0.551-1.155-0.936-1.963-1.156
	c-0.809-0.22-1.759-0.331-2.857-0.331c-1.018,0-2.063,0.083-3.139,0.25c-1.073,0.166-1.998,0.364-2.773,0.594
	C153.399,11.322,152.431,11.666,151.272,12.125z"/>
</svg>
