<?xml version="1.0" encoding="UTF-8" standalone="no"?>
<!-- Generator: Adobe Illustrator 12.0.0, SVG Export Plug-In . SVG Version: 6.00 Build 51448)  -->
<svg
   xmlns:dc="http://purl.org/dc/elements/1.1/"
   xmlns:cc="http://web.resource.org/cc/"
   xmlns:rdf="http://www.w3.org/1999/02/22-rdf-syntax-ns#"
   xmlns:svg="http://www.w3.org/2000/svg"
   xmlns="http://www.w3.org/2000/svg"
   xmlns:sodipodi="http://sodipodi.sourceforge.net/DTD/sodipodi-0.dtd"
   xmlns:inkscape="http://www.inkscape.org/namespaces/inkscape"
   version="1.1"
   id="Livello_1"
   width="539.831"
   height="684.687"
   viewBox="0 0 539.831 684.687"
   overflow="visible"
   enable-background="new 0 0 539.831 684.687"
   xml:space="preserve"
   sodipodi:version="0.32"
   inkscape:version="0.45.1"
   sodipodi:docname="redomino-logo-colori.svg"
   inkscape:output_extension="org.inkscape.output.svg.inkscape"
   sodipodi:docbase="C:\Users\nes\Desktop"><metadata
   id="metadata2450"><rdf:RDF><cc:Work
       rdf:about=""><dc:format>image/svg+xml</dc:format><dc:type
         rdf:resource="http://purl.org/dc/dcmitype/StillImage" /></cc:Work></rdf:RDF></metadata><defs
   id="defs2448" /><sodipodi:namedview
   inkscape:window-height="1030"
   inkscape:window-width="1680"
   inkscape:pageshadow="2"
   inkscape:pageopacity="0.0"
   guidetolerance="10.0"
   gridtolerance="10.0"
   objecttolerance="10.0"
   borderopacity="1.0"
   bordercolor="#666666"
   pagecolor="#ffffff"
   id="base"
   inkscape:zoom="0.55061655"
   inkscape:cx="269.9155"
   inkscape:cy="342.34351"
   inkscape:window-x="-8"
   inkscape:window-y="-8"
   inkscape:current-layer="Livello_1" />
<path
   fill="#ED1C24"
   d="M74.093,28.776H45.156c-2.254,0-4.18,0.814-5.777,2.443c-1.598,1.629-2.396,3.57-2.396,5.824l0.05,26.658  H24.349l0.199-46.038c0,0-0.023-1.192,1.25-1.26c0,0,13.596-0.217,19.357-0.217h28.937V28.776L74.093,28.776z"
   id="path2325" />
<path
   fill-rule="evenodd"
   clip-rule="evenodd"
   fill="#ED1C24"
   d="M147.083,31.266c0,4.871-1.723,8.649-5.167,11.333  c-3.132,2.56-7.204,3.841-12.214,3.841H90.148c1.503,2.943,3.915,4.415,7.234,4.415h49.9v12.685h-49.9  c-5.699,0-10.6-2.047-14.703-6.142c-4.103-4.095-5.233-8.986-5.233-14.675l0.076-24.582c0,0,0.016-1.984,1.752-1.893h18.232h32.296  c5.011,0,8.981,1.03,12.113,3.59C145.36,22.586,147.083,26.395,147.083,31.266L147.083,31.266z M134.399,31.219  c0-1.753-1.565-2.631-4.698-2.631h-32.32c-3.632,0-6.168,2.644-7.61,6.09h39.93C132.834,34.678,134.399,32.91,134.399,31.219  L134.399,31.219z"
   id="path2327" />
<path
   fill-rule="evenodd"
   clip-rule="evenodd"
   fill="#ED1C24"
   d="M220.008,43.635c0,5.753-1.131,10.663-5.232,14.727  c-4.103,4.066-9.036,5.178-14.797,5.178H171.51c-5.699,0-10.601-1.126-14.703-5.221c-4.103-4.095-5.233-8.986-5.233-14.675  l0.107-25.424c0.043-0.687-0.369-1.955,1.83-1.969l17.983,0.001l35.809-0.003l0.022-11.731h12.683V43.635L220.008,43.635z   M208.245,42.681V28.588H171.51c-2.255,0-4.181,0.814-5.778,2.443c-1.597,1.629-2.396,3.571-2.396,5.826v5.825  c0,2.254,0.798,4.181,2.396,5.779c1.597,1.595,3.523,2.394,5.778,2.394h28.468c2.317,0,4.274-0.799,5.872-2.394  C207.447,46.862,208.245,44.935,208.245,42.681L208.245,42.681z"
   id="path2329" />
<path
   fill-rule="evenodd"
   clip-rule="evenodd"
   fill="#ED1C24"
   d="M294.967,43.644c0,5.688-2.036,10.58-6.106,14.675  c-4.072,4.095-8.988,5.221-14.75,5.221h-28.657c-5.699,0-10.601-1.126-14.703-5.221c-4.103-4.095-5.602-8.036-5.602-13.725  l0.105-26.659c0.005-1.435,0.388-1.632,2.159-1.592l19.963-0.144l26.888,0.05c5.763,0,10.524,2.718,14.597,6.812  c4.07,4.095,6.106,9.018,6.106,14.769V43.644L294.967,43.644z M282.378,42.681v-5.825c0-2.255-0.814-4.197-2.443-5.826  c-1.629-1.628-3.571-2.443-5.824-2.443h-28.657c-2.254,0-4.181,0.814-5.777,2.443c-1.598,1.629-2.396,3.571-2.396,5.826v5.825  c0,2.254,0.798,4.181,2.396,5.779c1.597,1.595,3.523,2.394,5.777,2.394h28.657c2.253,0,4.195-0.799,5.824-2.394  C281.564,46.862,282.378,44.935,282.378,42.681L282.378,42.681z"
   id="path2331" />
<path
   fill="#ED1C24"
   d="M379.052,63.701h-12.589l0.009-26.658c0-2.254-0.596-4.195-1.785-5.824  c-1.191-1.629-2.883-2.443-5.073-2.443h-7.799c-2.191,0-3.884,0.798-5.073,2.396c-1.191,1.597-1.784,3.555-1.784,5.872l0.005,26.658  h-12.776l-0.008-26.658c0-2.317-0.575-4.274-1.73-5.872c-1.152-1.597-2.82-2.396-5.005-2.396h-7.855  c-2.183,0-3.851,0.798-5.006,2.396c-1.152,1.597-1.729,3.555-1.729,5.872l0.022,26.658h-12.683l-0.023-26.658  c0-4.681,0.02-19.739,0.02-19.739c0.106-0.447,0.388-0.941,1.097-1.04c0,0,12.757-0.078,18.331-0.078h7.892  c5.2,0,9.584,1.722,13.154,5.167c3.569-3.445,7.954-5.167,13.153-5.167h7.799c5.763,0,10.443,2.02,14.046,6.06  c3.601,4.04,5.402,8.973,5.402,14.797L379.052,63.701L379.052,63.701z"
   id="path2333" />
<path
   fill="#ED1C24"
   d="M467.765,63.701h-12.683l-0.033-26.658c0-2.254-0.813-4.195-2.442-5.824  c-1.628-1.629-3.569-2.443-5.823-2.443h-25.65c-2.255,0-4.181,0.814-5.777,2.443s-2.396,3.57-2.396,5.824l0.031,26.658h-12.683  l-0.031-26.658c0-4.299,0.021-16.541,0.041-17.152c0-3.109,0.922-3.742,4.376-3.685c0.243,0.004,10.678-0.02,16.439-0.02h25.65  c5.762,0,10.693,2.036,14.796,6.107c4.103,4.071,6.155,8.988,6.155,14.75L467.765,63.701L467.765,63.701z"
   id="path2335" />
<path
   fill-rule="evenodd"
   clip-rule="evenodd"
   fill="#ED1C24"
   d="M539.831,43.052c0,5.688-2.037,10.58-6.107,14.675  c-4.072,4.095-8.987,6.142-14.751,6.142h-28.654c-5.7,0-10.602-2.047-14.704-6.142s-5.868-8.893-5.868-14.583l0.39-24.516  c0,0,0.464-2.123,2.201-2.379c0,0,6.43,0.051,18.1,0.092l28.536-0.012c5.764,0,10.679,2.046,14.751,6.141  c4.07,4.094,6.107,9.017,6.107,14.769V43.052L539.831,43.052z M527.241,43.01v-5.825c0-2.254-0.815-4.195-2.443-5.824  c-1.627-1.628-3.57-2.442-5.825-2.442h-28.654c-2.256,0-4.181,0.813-5.778,2.442c-1.598,1.629-2.396,3.57-2.396,5.824v5.825  c0,2.256,0.799,4.181,2.396,5.779c1.598,1.597,3.522,2.396,5.778,2.396h28.654c2.255,0,4.198-0.799,5.825-2.396  C526.425,47.191,527.241,45.266,527.241,43.01L527.241,43.01z"
   id="path2337" />
<path
   d="M382.936,13.125h11.028c0,0,1.419-0.038,1.419-1.661L395.389,0L382.936,13.125L382.936,13.125z"
   id="path2339" />
<polygon
   fill="#ED1C24"
   points="382.991,16.303 395.339,16.321 395.345,63.701 382.991,63.701 382.991,16.303 "
   id="polygon2341" />
<path
   fill="#ED1C24"
   d="M212.083,467.991h-9.739c-0.759,0-1.407,0.273-1.944,0.821s-0.807,1.202-0.807,1.961l0.017,8.973h-4.269  l0.067-15.495c0,0-0.007-0.401,0.421-0.424c0,0,4.576-0.073,6.515-0.073h9.739V467.991L212.083,467.991z"
   id="path2343" />
<path
   fill-rule="evenodd"
   clip-rule="evenodd"
   fill="#ED1C24"
   d="M236.65,468.828c0,1.64-0.58,2.912-1.739,3.815  c-1.054,0.861-2.424,1.292-4.11,1.292h-13.313c0.506,0.99,1.318,1.486,2.435,1.486h16.795v4.27h-16.795  c-1.918,0-3.567-0.689-4.948-2.066c-1.381-1.379-1.762-3.025-1.762-4.94l0.026-8.272c0,0,0.005-0.668,0.59-0.637h6.137h10.87  c1.687,0,3.023,0.347,4.077,1.208C236.07,465.908,236.65,467.189,236.65,468.828L236.65,468.828z M232.381,468.813  c0-0.589-0.526-0.885-1.581-0.885h-10.878c-1.222,0-2.076,0.89-2.561,2.049H230.8C231.854,469.977,232.381,469.382,232.381,468.813  L232.381,468.813z"
   id="path2345" />
<path
   fill-rule="evenodd"
   clip-rule="evenodd"
   fill="#ED1C24"
   d="M261.194,472.992c0,1.937-0.38,3.589-1.761,4.956  c-1.381,1.368-3.042,1.743-4.98,1.743h-9.582c-1.918,0-3.568-0.379-4.949-1.758c-1.381-1.378-1.761-3.024-1.761-4.938l0.036-8.558  c0.014-0.23-0.124-0.657,0.616-0.662l6.053,0.001l12.052-0.001l0.007-3.949h4.269V472.992L261.194,472.992z M257.236,472.671v-4.743  h-12.364c-0.759,0-1.407,0.274-1.944,0.821c-0.538,0.549-0.806,1.203-0.806,1.961v1.961c0,0.758,0.269,1.408,0.806,1.945  c0.537,0.537,1.186,0.806,1.944,0.806h9.582c0.78,0,1.438-0.269,1.976-0.806S257.236,473.429,257.236,472.671L257.236,472.671z"
   id="path2347" />
<path
   fill-rule="evenodd"
   clip-rule="evenodd"
   fill="#ED1C24"
   d="M286.424,472.995c0,1.914-0.686,3.561-2.056,4.938  c-1.371,1.379-3.025,1.758-4.965,1.758h-9.645c-1.918,0-3.567-0.379-4.948-1.758c-1.381-1.378-1.886-2.704-1.886-4.619l0.036-8.972  c0.001-0.483,0.131-0.55,0.727-0.536l6.719-0.049l9.05,0.018c1.938,0,3.541,0.914,4.912,2.292c1.37,1.378,2.056,3.034,2.056,4.971  V472.995L286.424,472.995z M282.187,472.671v-1.961c0-0.758-0.275-1.412-0.823-1.961c-0.548-0.547-1.201-0.821-1.96-0.821h-9.645  c-0.758,0-1.407,0.274-1.944,0.821c-0.538,0.549-0.807,1.203-0.807,1.961v1.961c0,0.758,0.269,1.408,0.807,1.945  s1.186,0.806,1.944,0.806h9.645c0.759,0,1.412-0.269,1.96-0.806S282.187,473.429,282.187,472.671L282.187,472.671z"
   id="path2349" />
<path
   fill="#ED1C24"
   d="M314.724,479.746h-4.236l0.003-8.973c0-0.759-0.201-1.413-0.602-1.961s-0.971-0.821-1.707-0.821h-2.625  c-0.737,0-1.308,0.269-1.708,0.806c-0.4,0.538-0.6,1.196-0.6,1.977l0.001,8.973h-4.3l-0.003-8.973c0-0.78-0.193-1.438-0.582-1.977  c-0.388-0.537-0.949-0.806-1.685-0.806h-2.644c-0.735,0-1.297,0.269-1.686,0.806c-0.388,0.538-0.582,1.196-0.582,1.977l0.008,8.973  h-4.269l-0.009-8.973c0-1.575,0.007-6.644,0.007-6.644c0.036-0.15,0.131-0.316,0.369-0.35c0,0,4.293-0.026,6.17-0.026h2.656  c1.751,0,3.226,0.58,4.427,1.739c1.202-1.159,2.678-1.739,4.428-1.739h2.625c1.939,0,3.515,0.68,4.727,2.039  c1.212,1.36,1.818,3.02,1.818,4.98L314.724,479.746L314.724,479.746z"
   id="path2351" />
<path
   fill="#ED1C24"
   d="M344.583,479.746h-4.269l-0.012-8.973c0-0.759-0.273-1.413-0.822-1.961c-0.548-0.548-1.201-0.821-1.96-0.821  h-8.632c-0.759,0-1.408,0.273-1.945,0.821s-0.807,1.202-0.807,1.961l0.011,8.973h-4.269l-0.011-8.973  c0-1.447,0.008-5.567,0.014-5.772c0-1.047,0.311-1.26,1.474-1.24c0.081,0.001,3.594-0.007,5.533-0.007h8.632  c1.94,0,3.6,0.686,4.98,2.056s2.071,3.024,2.071,4.964L344.583,479.746L344.583,479.746z"
   id="path2353" />
<path
   fill-rule="evenodd"
   clip-rule="evenodd"
   fill="#ED1C24"
   d="M368.838,472.796c0,1.914-0.687,3.562-2.057,4.938  c-1.37,1.379-3.024,2.067-4.965,2.067h-9.644c-1.919,0-3.568-0.688-4.949-2.067c-1.381-1.377-1.975-2.993-1.975-4.907l0.131-8.251  c0,0,0.156-0.715,0.74-0.801c0,0,2.165,0.017,6.092,0.03l9.604-0.004c1.94,0,3.595,0.688,4.965,2.067  c1.37,1.378,2.057,3.034,2.057,4.971V472.796L368.838,472.796z M364.6,472.782v-1.961c0-0.759-0.274-1.412-0.822-1.96  s-1.201-0.821-1.961-0.821h-9.644c-0.76,0-1.408,0.273-1.945,0.821c-0.538,0.548-0.807,1.201-0.807,1.96v1.961  c0,0.759,0.269,1.406,0.807,1.944c0.537,0.537,1.186,0.807,1.945,0.807h9.644c0.76,0,1.413-0.27,1.961-0.807  C364.326,474.188,364.6,473.541,364.6,472.782L364.6,472.782z"
   id="path2355" />
<path
   d="M316.032,462.724h3.712c0,0,0.478-0.013,0.478-0.56l0.002-3.858L316.032,462.724L316.032,462.724z"
   id="path2357" />
<polygon
   fill="#ED1C24"
   points="316.05,463.793 320.207,463.8 320.208,479.746 316.05,479.746 316.05,463.793 "
   id="polygon2359" />
<rect
   y="631.704"
   fill-rule="evenodd"
   clip-rule="evenodd"
   fill="#ED1C24"
   width="20.035"
   height="20.036"
   id="rect2361" />
<g
   id="g2363">
	<path
   d="M27.769,638.849c0.353-0.072,0.865-0.12,1.338-0.12c0.745,0,1.234,0.144,1.571,0.448c0.264,0.232,0.425,0.602,0.425,1.026   c0,0.705-0.457,1.178-1.019,1.37v0.024c0.409,0.144,0.657,0.528,0.794,1.09c0.176,0.753,0.305,1.274,0.408,1.482h-0.721   c-0.089-0.152-0.209-0.617-0.353-1.29c-0.16-0.745-0.457-1.026-1.09-1.05h-0.657v2.34h-0.697V638.849z M28.466,641.301h0.713   c0.745,0,1.218-0.408,1.218-1.025c0-0.697-0.505-1.002-1.242-1.002c-0.336,0-0.568,0.032-0.688,0.063V641.301z"
   id="path2365" />
	<path
   d="M33.659,644.258c-1.042,0-1.859-0.77-1.859-1.995c0-1.299,0.857-2.06,1.923-2.06c1.114,0,1.868,0.81,1.868,1.987   c0,1.442-1.002,2.067-1.924,2.067H33.659z M33.683,643.729c0.674,0,1.179-0.634,1.179-1.515c0-0.657-0.329-1.483-1.162-1.483   c-0.825,0-1.187,0.77-1.187,1.507c0,0.85,0.481,1.491,1.162,1.491H33.683z"
   id="path2367" />
	<path
   d="M36.384,643.457c0.216,0.128,0.585,0.272,0.938,0.272c0.505,0,0.745-0.249,0.745-0.577c0-0.337-0.2-0.521-0.713-0.714   c-0.706-0.256-1.034-0.633-1.034-1.098c0-0.625,0.513-1.138,1.338-1.138c0.394,0,0.737,0.104,0.946,0.24l-0.169,0.505   c-0.151-0.088-0.433-0.225-0.793-0.225c-0.417,0-0.642,0.24-0.642,0.529c0,0.328,0.225,0.473,0.729,0.665   c0.665,0.248,1.019,0.585,1.019,1.17c0,0.689-0.537,1.17-1.443,1.17c-0.425,0-0.817-0.112-1.09-0.272L36.384,643.457z"
   id="path2369" />
	<path
   d="M39.558,643.457c0.216,0.128,0.585,0.272,0.938,0.272c0.505,0,0.745-0.249,0.745-0.577c0-0.337-0.2-0.521-0.713-0.714   c-0.706-0.256-1.034-0.633-1.034-1.098c0-0.625,0.513-1.138,1.338-1.138c0.394,0,0.737,0.104,0.946,0.24l-0.169,0.505   c-0.151-0.088-0.433-0.225-0.793-0.225c-0.417,0-0.642,0.24-0.642,0.529c0,0.328,0.225,0.473,0.729,0.665   c0.665,0.248,1.019,0.585,1.019,1.17c0,0.689-0.537,1.17-1.443,1.17c-0.425,0-0.817-0.112-1.09-0.272L39.558,643.457z"
   id="path2371" />
	<path
   d="M44.405,644.258c-1.042,0-1.859-0.77-1.859-1.995c0-1.299,0.857-2.06,1.923-2.06c1.114,0,1.868,0.81,1.868,1.987   c0,1.442-1.002,2.067-1.924,2.067H44.405z M44.429,643.729c0.674,0,1.179-0.634,1.179-1.515c0-0.657-0.329-1.483-1.162-1.483   c-0.825,0-1.187,0.77-1.187,1.507c0,0.85,0.481,1.491,1.162,1.491H44.429z"
   id="path2373" />
	<path
   d="M47.523,644.258c-0.272,0-0.465-0.216-0.465-0.497c0-0.296,0.2-0.505,0.473-0.505c0.288,0,0.473,0.209,0.473,0.505   c0,0.281-0.185,0.497-0.473,0.497H47.523z M47.531,641.429c-0.272,0-0.465-0.216-0.465-0.496c0-0.297,0.2-0.505,0.473-0.505   c0.289,0,0.473,0.208,0.473,0.505c0,0.28-0.184,0.496-0.473,0.496H47.531z"
   id="path2375" />
	<path
   d="M53.173,644.258c-1.018,0-1.715-0.953-1.731-2.677c0-1.755,0.762-2.709,1.819-2.709c1.09,0,1.724,0.979,1.724,2.637   c0,1.771-0.665,2.749-1.804,2.749H53.173z M53.205,643.713c0.713,0,1.058-0.841,1.058-2.172c0-1.282-0.32-2.123-1.058-2.123   c-0.642,0-1.058,0.817-1.058,2.123c-0.017,1.354,0.4,2.172,1.05,2.172H53.205z"
   id="path2377" />
	<path
   d="M59.641,644.002c-0.249,0.128-0.77,0.256-1.427,0.256c-1.522,0-2.661-0.962-2.661-2.74c0-1.699,1.146-2.837,2.821-2.837   c0.665,0,1.098,0.144,1.282,0.24l-0.176,0.568c-0.257-0.128-0.634-0.224-1.082-0.224c-1.267,0-2.108,0.809-2.108,2.228   c0,1.33,0.762,2.172,2.068,2.172c0.433,0,0.865-0.088,1.146-0.225L59.641,644.002z"
   id="path2379" />
	<path
   d="M63.831,641.75v0.513h-1.979v-0.513H63.831z"
   id="path2381" />
	<path
   d="M67.662,639.618h-0.017l-0.905,0.488l-0.137-0.537l1.139-0.608h0.601v5.209h-0.681V639.618z"
   id="path2383" />
	<path
   d="M71.901,644.258c-1.018,0-1.715-0.953-1.731-2.677c0-1.755,0.762-2.709,1.819-2.709c1.09,0,1.724,0.979,1.724,2.637   c0,1.771-0.665,2.749-1.804,2.749H71.901z M71.934,643.713c0.713,0,1.058-0.841,1.058-2.172c0-1.282-0.32-2.123-1.058-2.123   c-0.642,0-1.058,0.817-1.058,2.123c-0.017,1.354,0.4,2.172,1.05,2.172H71.934z"
   id="path2385" />
	<path
   d="M76.012,644.258c-1.018,0-1.715-0.953-1.731-2.677c0-1.755,0.762-2.709,1.819-2.709c1.09,0,1.724,0.979,1.724,2.637   c0,1.771-0.665,2.749-1.804,2.749H76.012z M76.044,643.713c0.713,0,1.058-0.841,1.058-2.172c0-1.282-0.32-2.123-1.058-2.123   c-0.642,0-1.058,0.817-1.058,2.123c-0.017,1.354,0.4,2.172,1.05,2.172H76.044z"
   id="path2387" />
	<path
   d="M83.265,641.798c-0.04-0.754-0.088-1.667-0.088-2.332H83.16c-0.192,0.625-0.408,1.306-0.681,2.052l-0.954,2.62h-0.528   l-0.882-2.572c-0.257-0.77-0.465-1.459-0.617-2.1h-0.016c-0.017,0.673-0.057,1.57-0.104,2.388l-0.145,2.316h-0.665l0.377-5.401   h0.89l0.921,2.612c0.225,0.665,0.401,1.259,0.545,1.819h0.017c0.145-0.545,0.336-1.138,0.577-1.819l0.961-2.612h0.89l0.337,5.401   h-0.689L83.265,641.798z"
   id="path2389" />
	<path
   d="M88.466,641.75v0.513h-1.979v-0.513H88.466z"
   id="path2391" />
	<path
   d="M92.297,639.618H92.28l-0.905,0.488l-0.137-0.537l1.139-0.608h0.601v5.209h-0.681V639.618z"
   id="path2393" />
	<path
   d="M96.536,644.258c-1.018,0-1.715-0.953-1.731-2.677c0-1.755,0.762-2.709,1.819-2.709c1.09,0,1.724,0.979,1.724,2.637   c0,1.771-0.665,2.749-1.804,2.749H96.536z M96.568,643.713c0.713,0,1.058-0.841,1.058-2.172c0-1.282-0.32-2.123-1.058-2.123   c-0.642,0-1.058,0.817-1.058,2.123c-0.017,1.354,0.4,2.172,1.05,2.172H96.568z"
   id="path2395" />
	<path
   d="M100.647,644.258c-1.018,0-1.715-0.953-1.731-2.677c0-1.755,0.762-2.709,1.819-2.709c1.09,0,1.724,0.979,1.724,2.637   c0,1.771-0.665,2.749-1.804,2.749H100.647z M100.68,643.713c0.713,0,1.058-0.841,1.058-2.172c0-1.282-0.32-2.123-1.058-2.123   c-0.642,0-1.058,0.817-1.058,2.123c-0.017,1.354,0.4,2.172,1.05,2.172H100.68z"
   id="path2397" />
	<path
   d="M104.55,644.17v-2.292l-1.716-3.109h0.802l0.762,1.49c0.2,0.409,0.368,0.737,0.537,1.114h0.016   c0.145-0.353,0.337-0.705,0.545-1.114l0.777-1.49h0.785l-1.803,3.102v2.3H104.55z"
   id="path2399" />
	<path
   d="M110.993,641.75v0.513h-1.979v-0.513H110.993z"
   id="path2401" />
	<path
   d="M114.952,644.258c-1.018,0-1.715-0.953-1.731-2.677c0-1.755,0.762-2.709,1.819-2.709c1.09,0,1.724,0.979,1.724,2.637   c0,1.771-0.665,2.749-1.804,2.749H114.952z M114.984,643.713c0.713,0,1.058-0.841,1.058-2.172c0-1.282-0.32-2.123-1.058-2.123   c-0.642,0-1.058,0.817-1.058,2.123c-0.017,1.354,0.4,2.172,1.05,2.172H114.984z"
   id="path2403" />
	<path
   d="M117.652,638.769h0.697v2.604h0.023c0.145-0.208,0.289-0.4,0.425-0.577l1.651-2.027h0.865l-1.955,2.292l2.107,3.109h-0.825   l-1.771-2.652l-0.521,0.593v2.06h-0.697V638.769z"
   id="path2405" />
</g>
<rect
   y="664.651"
   fill-rule="evenodd"
   clip-rule="evenodd"
   width="20.035"
   height="20.035"
   id="rect2407" />
<g
   id="g2409">
	<path
   d="M27.769,677.117v-5.401h0.77l1.723,2.732c0.393,0.634,0.713,1.194,0.962,1.755l0.023-0.008   c-0.063-0.721-0.08-1.378-0.08-2.212v-2.268h0.657v5.401h-0.705l-1.715-2.741c-0.377-0.601-0.737-1.218-1.002-1.803l-0.024,0.008   c0.04,0.682,0.049,1.33,0.049,2.229v2.308H27.769z"
   id="path2411" />
	<path
   d="M33.41,675.298c0.017,0.954,0.617,1.347,1.322,1.347c0.505,0,0.818-0.088,1.074-0.192l0.128,0.497   c-0.248,0.112-0.681,0.248-1.298,0.248c-1.187,0-1.907-0.793-1.907-1.955c0-1.179,0.697-2.1,1.827-2.1   c1.267,0,1.595,1.113,1.595,1.827c0,0.144-0.008,0.256-0.024,0.336L33.41,675.298z M35.47,674.793   c0.009-0.44-0.184-1.146-0.97-1.146c-0.721,0-1.025,0.656-1.081,1.146H35.47z"
   id="path2413" />
	<path
   d="M37.032,674.448c0-0.457-0.008-0.85-0.032-1.21h0.617L37.649,674h0.024c0.176-0.521,0.609-0.85,1.082-0.85   c0.072,0,0.128,0.008,0.192,0.023v0.657c-0.08-0.008-0.152-0.016-0.249-0.016c-0.497,0-0.85,0.377-0.945,0.897   c-0.017,0.104-0.024,0.217-0.024,0.337v2.067h-0.705L37.032,674.448z"
   id="path2415" />
	<path
   d="M41.176,677.205c-1.042,0-1.859-0.77-1.859-1.995c0-1.299,0.857-2.06,1.923-2.06c1.114,0,1.868,0.81,1.868,1.987   c0,1.442-1.002,2.067-1.924,2.067H41.176z M41.199,676.677c0.674,0,1.179-0.634,1.179-1.515c0-0.657-0.329-1.483-1.162-1.483   c-0.825,0-1.187,0.77-1.187,1.507c0,0.85,0.481,1.491,1.162,1.491H41.199z"
   id="path2417" />
	<path
   d="M44.294,677.205c-0.272,0-0.465-0.216-0.465-0.497c0-0.296,0.2-0.505,0.473-0.505c0.288,0,0.473,0.209,0.473,0.505   c0,0.281-0.185,0.497-0.473,0.497H44.294z M44.302,674.376c-0.272,0-0.465-0.216-0.465-0.496c0-0.297,0.2-0.505,0.473-0.505   c0.289,0,0.473,0.208,0.473,0.505c0,0.28-0.184,0.496-0.473,0.496H44.302z"
   id="path2419" />
	<path
   d="M49.943,677.205c-1.018,0-1.715-0.953-1.731-2.677c0-1.755,0.762-2.709,1.819-2.709c1.09,0,1.724,0.979,1.724,2.637   c0,1.771-0.665,2.749-1.804,2.749H49.943z M49.976,676.66c0.713,0,1.058-0.841,1.058-2.172c0-1.282-0.32-2.123-1.058-2.123   c-0.642,0-1.058,0.817-1.058,2.123c-0.017,1.354,0.4,2.172,1.05,2.172H49.976z"
   id="path2421" />
	<path
   d="M56.41,676.949c-0.249,0.128-0.77,0.256-1.427,0.256c-1.522,0-2.661-0.962-2.661-2.74c0-1.699,1.146-2.837,2.821-2.837   c0.665,0,1.098,0.144,1.282,0.24l-0.176,0.568c-0.257-0.128-0.634-0.224-1.082-0.224c-1.267,0-2.108,0.809-2.108,2.228   c0,1.33,0.762,2.172,2.068,2.172c0.433,0,0.865-0.088,1.146-0.225L56.41,676.949z"
   id="path2423" />
	<path
   d="M60.602,674.697v0.513h-1.979v-0.513H60.602z"
   id="path2425" />
	<path
   d="M64.561,677.205c-1.018,0-1.715-0.953-1.731-2.677c0-1.755,0.762-2.709,1.819-2.709c1.09,0,1.724,0.979,1.724,2.637   c0,1.771-0.665,2.749-1.804,2.749H64.561z M64.593,676.66c0.713,0,1.058-0.841,1.058-2.172c0-1.282-0.32-2.123-1.058-2.123   c-0.642,0-1.058,0.817-1.058,2.123c-0.017,1.354,0.4,2.172,1.05,2.172H64.593z"
   id="path2427" />
	<path
   d="M71.813,674.745c-0.04-0.754-0.088-1.667-0.088-2.332h-0.017c-0.192,0.625-0.408,1.306-0.681,2.052l-0.954,2.62h-0.528   l-0.882-2.572c-0.257-0.77-0.465-1.459-0.617-2.1h-0.016c-0.017,0.673-0.057,1.57-0.104,2.388l-0.145,2.316h-0.665l0.377-5.401   h0.89l0.921,2.612c0.225,0.665,0.401,1.259,0.545,1.819h0.017c0.145-0.545,0.336-1.138,0.577-1.819l0.961-2.612h0.89l0.337,5.401   h-0.689L71.813,674.745z"
   id="path2429" />
	<path
   d="M77.014,674.697v0.513h-1.979v-0.513H77.014z"
   id="path2431" />
	<path
   d="M80.973,677.205c-1.018,0-1.715-0.953-1.731-2.677c0-1.755,0.762-2.709,1.819-2.709c1.09,0,1.724,0.979,1.724,2.637   c0,1.771-0.665,2.749-1.804,2.749H80.973z M81.005,676.66c0.713,0,1.058-0.841,1.058-2.172c0-1.282-0.32-2.123-1.058-2.123   c-0.642,0-1.058,0.817-1.058,2.123c-0.017,1.354,0.4,2.172,1.05,2.172H81.005z"
   id="path2433" />
	<path
   d="M84.876,677.117v-2.292l-1.716-3.109h0.802l0.762,1.49c0.2,0.409,0.368,0.737,0.537,1.114h0.016   c0.145-0.353,0.337-0.705,0.545-1.114l0.777-1.49h0.785l-1.803,3.102v2.3H84.876z"
   id="path2435" />
	<path
   d="M91.318,674.697v0.513h-1.979v-0.513H91.318z"
   id="path2437" />
	<path
   d="M95.149,672.565h-0.017l-0.905,0.488l-0.137-0.537l1.139-0.608h0.601v5.209h-0.681V672.565z"
   id="path2439" />
	<path
   d="M99.389,677.205c-1.018,0-1.715-0.953-1.731-2.677c0-1.755,0.762-2.709,1.819-2.709c1.09,0,1.724,0.979,1.724,2.637   c0,1.771-0.665,2.749-1.804,2.749H99.389z M99.421,676.66c0.713,0,1.058-0.841,1.058-2.172c0-1.282-0.32-2.123-1.058-2.123   c-0.642,0-1.058,0.817-1.058,2.123c-0.017,1.354,0.4,2.172,1.05,2.172H99.421z"
   id="path2441" />
	<path
   d="M103.5,677.205c-1.018,0-1.715-0.953-1.731-2.677c0-1.755,0.762-2.709,1.819-2.709c1.09,0,1.724,0.979,1.724,2.637   c0,1.771-0.665,2.749-1.804,2.749H103.5z M103.532,676.66c0.713,0,1.058-0.841,1.058-2.172c0-1.282-0.32-2.123-1.058-2.123   c-0.642,0-1.058,0.817-1.058,2.123c-0.017,1.354,0.4,2.172,1.05,2.172H103.532z"
   id="path2443" />
	<path
   d="M106.201,671.716h0.697v2.604h0.023c0.145-0.208,0.289-0.4,0.425-0.577l1.651-2.027h0.865l-1.955,2.292l2.107,3.109h-0.825   l-1.771-2.652l-0.521,0.593v2.06h-0.697V671.716z"
   id="path2445" />
</g>
</svg>