<?xml version="1.0" encoding="utf-8"?>
<!-- Generator: Adobe Illustrator 13.0.0, SVG Export Plug-In . SVG Version: 6.00 Build 14948)  -->
<!DOCTYPE svg PUBLIC "-//W3C//DTD SVG 1.1//EN" "http://www.w3.org/Graphics/SVG/1.1/DTD/svg11.dtd">
<svg version="1.1" id="Layer_1" xmlns="http://www.w3.org/2000/svg" xmlns:xlink="http://www.w3.org/1999/xlink" x="0px" y="0px"
	 width="129.868px" height="57.224px" viewBox="0 0 129.868 57.224" enable-background="new 0 0 129.868 57.224"
	 xml:space="preserve">
<path fill="#00A0C6" d="M129.868,17.89c0-3.945-3.197-7.143-7.143-7.143c-2.037,0-3.87,0.856-5.171,2.224
	c-3.019-2.1-6.685-3.333-10.641-3.333c-3.996,0-7.692,1.265-10.726,3.402c-1.369-1.263-3.191-2.04-5.2-2.04
	c-1.49,0-2.882,0.433-4.06,1.17C84.132,7.196,78.813,3.831,72.7,3.831c-5.582,0-10.503,2.8-13.451,7.071
	c-2.465-2.53-5.904-4.106-9.714-4.106c-2.52,0-4.869,0.7-6.891,1.895C42.6,3.884,38.691,0,33.873,0
	c-4.847,0-8.774,3.928-8.774,8.773c0,0.113,0.011,0.224,0.015,0.335c-0.938-0.142-1.902-0.216-2.882-0.216
	c-2.854,0-5.558,0.631-7.991,1.751c-1.363-0.732-2.918-1.148-4.573-1.148C4.33,9.495,0,13.823,0,19.161
	c0,2.829,1.224,5.365,3.158,7.134c-0.054,0.578-0.083,1.162-0.083,1.755c0,10.579,8.576,19.156,19.156,19.156
	c4.114,0,7.92-1.301,11.041-3.505c2.81,3.844,7.339,6.354,12.466,6.354c0.125,0,0.246-0.016,0.37-0.02
	c1.473,4.184,5.447,7.188,10.135,7.188c4.745,0,8.767-3.081,10.194-7.35c1.626,3.083,4.859,5.189,8.585,5.189
	c4.665,0,8.556-3.292,9.491-7.677c0.675,0.094,1.357,0.158,2.056,0.158c3.799,0,7.25-1.439,9.874-3.79
	c2.985,2.028,6.592,3.214,10.471,3.214c10.308,0,18.665-8.358,18.665-18.666c0-1.275-0.129-2.52-0.372-3.723
	C127.926,23.571,129.868,20.961,129.868,17.89z"/>
<g>
	<g>
		<path fill="#FFFFFF" d="M118.234,16.343v-0.789h3.516v0.789h-1.284v3.495h-0.947v-3.495H118.234z"/>
		<path fill="#FFFFFF" d="M123.567,15.554l1.004,2.946h0.011l0.95-2.946h1.327v4.284h-0.884v-3.037h-0.012l-1.051,3.037h-0.727
			l-1.053-3.006h-0.012v3.006h-0.883v-4.284H123.567z"/>
	</g>
	<g>
		<path fill="#FFFFFF" d="M118.234,16.343v-0.789h3.516v0.789h-1.284v3.495h-0.947v-3.495H118.234z"/>
		<path fill="#FFFFFF" d="M123.567,15.554l1.004,2.946h0.011l0.95-2.946h1.327v4.284h-0.884v-3.037h-0.012l-1.051,3.037h-0.727
			l-1.053-3.006h-0.012v3.006h-0.883v-4.284H123.567z"/>
	</g>
</g>
<path fill="#FFFFFF" d="M120.121,26.208c0-5.594-4.476-11.142-12.308-11.142c-6.684,0-11.115,3.655-12.442,9.416
	c-1.165-6.376-5.503-9.416-10.362-9.416c-3.309,0-6.059,1.4-7.178,4.29h-0.094v-1.073c0-2.097-1.072-3.217-3.08-3.217
	c-1.469,0-2.379,0.563-2.797,1.616c-0.49-0.82-1.42-1.616-3.03-1.616c-1.866,0-2.798,1.306-3.264,3.031l-4.15,15.432h-0.093
	l-4.384-15.898c-0.418-1.539-1.678-2.564-3.496-2.564c-1.275,0-2.376,0.696-2.93,1.751c-0.572-1.041-1.746-1.751-2.857-1.751
	c-1.024,0-1.91,0.56-2.61,1.306l-7.553,8.392V9.285c0-2.237-1.351-3.403-3.403-3.403c-2.051,0-3.403,1.166-3.403,3.403v21.266
	c-1.106-3.239-4.892-4.527-8.158-5.274l-2.842-0.652c-2.1-0.466-3.639-0.84-3.639-2.426c0-1.444,1.539-2.097,3.917-2.097
	c4.289,0,4.383,3.124,7.04,3.124c1.772,0,2.844-1.399,2.844-2.983c0-3.124-5.221-5.176-10.397-5.176
	c-4.708,0-10.209,2.053-10.209,7.6c0,4.57,3.077,6.201,7.04,7.182l4.01,0.977c2.424,0.606,3.915,0.888,3.915,2.612
	c0,1.397-1.538,2.472-3.964,2.472c-5.033,0-5.313-4.196-8.251-4.196c-1.911,0-2.75,1.351-2.75,2.844
	c0,3.356,5.127,6.106,11.282,6.106c4.389,0,8.941-1.887,10.163-5.908v2.504c0,2.238,1.353,3.404,3.403,3.404
	c2.052,0,3.403-1.166,3.403-3.404v-5.175l2.378-2.098l6.434,9.092c0.514,0.746,1.398,1.585,3.077,1.585
	c1.819,0,3.218-1.585,3.218-3.311c0-1.119-0.467-1.865-0.7-2.191l-7.086-9.511l5.035-5.267c0.208-0.226,0.389-0.414,0.544-0.617
	c0.138,0.46,0.33,1.007,0.579,1.736l7.087,20.186c-0.514,2.1-1.493,2.146-2.379,2.146h-0.698c-1.819,0-3.124,0.932-3.124,2.75
	c0,1.633,1.259,3.123,4.289,3.123c4.291,0,6.156-2.426,7.787-7.086l7.649-21.684v25.367c0,2.237,1.352,3.402,3.402,3.402
	c2.052,0,3.402-1.165,3.402-3.402v-9.094h0.097c1.258,2.191,3.587,3.451,6.711,3.451c5.834,0,9.113-4.031,10.14-9.044
	c1.15,4.78,4.97,9.044,12.71,9.044c4.102,0,10.679-1.911,10.679-6.014c0-1.259-1.166-2.658-2.798-2.658
	c-2.751,0-2.751,3.356-7.881,3.356c-3.962,0-6.293-2.61-6.293-6.202h15.386C119.423,29.145,120.121,28.541,120.121,26.208z
	 M83.471,35.347c-4.148,0-5.453-4.055-5.453-7.552c0-3.869,1.491-7.461,5.453-7.412c3.638,0.045,5.409,3.402,5.409,7.412
	C88.88,30.965,87.807,35.301,83.471,35.347z M101.752,25.231c0.745-3.311,2.796-5.41,6.2-5.41c3.031,0,5.361,2.286,5.736,5.41
	H101.752z"/>
</svg>
