<?xml version="1.0" encoding="UTF-8"?>
<svg width="408pt" xmlns:xlink="http://www.w3.org/1999/xlink" xmlns="http://www.w3.org/2000/svg" height="64pt" viewBox="0 0 408 64" >
 <g transform="translate(0.899414, 12.5762)" style="fill:#8c8c8c; fill-rule:nonzero; stroke:none; stroke-width:1; stroke-linecap:butt; stroke-linejoin:miter; stroke-dasharray:none;" >
  <path d="M23.8692 6.1914 C23.8692 6.1914 23.8692 49.7539 23.8692 49.7539 C23.8692 49.7539 15.9629 49.7539 15.9629 49.7539 C15.9629 49.7539 15.9629 6.1914 15.9629 6.1914 C15.9629 6.1914 0 6.1914 0 6.1914 C0 6.1914 0 0 0 0 C0 0 39.6836 0 39.6836 0 C39.6836 0 39.6836 6.1914 39.6836 6.1914 C39.6836 6.1914 23.8692 6.1914 23.8692 6.1914 Z" />
 </g>
 <g transform="translate(47.5938, 12.5762)" style="fill:#8c8c8c; fill-rule:nonzero; stroke:none; stroke-width:1; stroke-linecap:butt; stroke-linejoin:miter; stroke-dasharray:none;" >
  <path d="M24.6904 13.4267 C24.6904 18.7226 20.7373 21.8564 13.9492 21.8564 C13.9492 21.8564 7.9072 21.8564 7.9072 21.8564 C7.9072 21.8564 7.9072 5.9677 7.9072 5.9677 C7.9072 5.9677 14.3222 5.9677 14.3222 5.9677 C18.2753 5.9677 20.3642 6.415 22.0791 7.833 C23.7207 9.1748 24.6904 11.1884 24.6904 13.4267 Z M37.4462 49.7539 C37.4462 49.7539 26.332 29.3154 26.332 29.3154 C25.0634 27.0029 23.7207 25.8838 21.4833 25.2871 C28.1962 24.1679 32.8212 19.0215 32.8212 12.6806 C32.8212 6.1172 28.4951 1.4179 21.5576 0.4482 C19.1708 0.1494 17.6044 0 13.7998 0 C13.7998 0 0 0 0 0 C0 0 0 49.7539 0 49.7539 C0 49.7539 7.9072 49.7539 7.9072 49.7539 C7.9072 49.7539 7.9072 27.5996 7.9072 27.5996 C7.9072 27.5996 12.3828 27.5996 12.3828 27.5996 C15.2167 27.5996 17.2314 28.8672 18.7236 31.7021 C18.7236 31.7021 28.0468 49.7539 28.0468 49.7539 C28.0468 49.7539 37.4462 49.7539 37.4462 49.7539 Z" />
 </g>
 <g transform="translate(153.14, 12.5762)" style="fill:#8c8c8c; fill-rule:nonzero; stroke:none; stroke-width:1; stroke-linecap:butt; stroke-linejoin:miter; stroke-dasharray:none;" >
  <path d="M0 49.7539 C0 49.7539 0 0 0 0 C0 0 7.907 0 7.907 0 C7.907 0 7.907 43.2636 7.907 43.2636 C7.907 43.2636 29.389 43.2636 29.389 43.2636 C29.389 43.2636 29.389 49.7539 29.389 49.7539 C29.389 49.7539 0 49.7539 0 49.7539 Z" />
 </g>
 <g transform="translate(189.913, 12.5762)" style="fill:#8c8c8c; fill-rule:nonzero; stroke:none; stroke-width:1; stroke-linecap:butt; stroke-linejoin:miter; stroke-dasharray:none;" >
  <path d="M0 49.7539 C0 49.7539 0 0 0 0 C0 0 7.907 0 7.907 0 C7.907 0 7.907 43.2636 7.907 43.2636 C7.907 43.2636 29.39 43.2636 29.39 43.2636 C29.39 43.2636 29.39 49.7539 29.39 49.7539 C29.39 49.7539 0 49.7539 0 49.7539 Z" />
 </g>
 <g transform="translate(215.716, 12.5762)" style="fill:#8c8c8c; fill-rule:nonzero; stroke:none; stroke-width:1; stroke-linecap:butt; stroke-linejoin:miter; stroke-dasharray:none;" >
  <path d="M23.87 6.1914 C23.87 6.1914 23.87 49.7539 23.87 49.7539 C23.87 49.7539 15.963 49.7539 15.963 49.7539 C15.963 49.7539 15.963 6.1914 15.963 6.1914 C15.963 6.1914 0 6.1914 0 6.1914 C0 6.1914 0 0 0 0 C0 0 39.683 0 39.683 0 C39.683 0 39.683 6.1914 39.683 6.1914 C39.683 6.1914 23.87 6.1914 23.87 6.1914 Z" />
 </g>
 <g transform="translate(262.41, 12.5762)" style="fill:#8c8c8c; fill-rule:nonzero; stroke:none; stroke-width:1; stroke-linecap:butt; stroke-linejoin:miter; stroke-dasharray:none;" >
  <path d="M0 49.7539 C0 49.7539 0.075 0 0.075 0 C0.075 0 29.166 0 29.166 0 C29.166 0 29.166 6.1914 29.166 6.1914 C29.166 6.1914 7.907 6.1914 7.907 6.1914 C7.907 6.1914 7.907 20.7373 7.907 20.7373 C7.907 20.7373 28.047 20.7373 28.047 20.7373 C28.047 20.7373 28.047 26.7793 28.047 26.7793 C28.047 26.7793 7.907 26.7793 7.907 26.7793 C7.907 26.7793 7.907 43.2636 7.907 43.2636 C7.907 43.2636 30.583 43.2636 30.583 43.2636 C30.583 43.2636 30.583 49.7539 30.583 49.7539 C30.583 49.7539 0 49.7539 0 49.7539 Z" />
 </g>
 <g transform="translate(300.08, 11.5322)" style="fill:#8c8c8c; fill-rule:nonzero; stroke:none; stroke-width:1; stroke-linecap:butt; stroke-linejoin:miter; stroke-dasharray:none;" >
  <path d="M41.548 48.1866 C37.222 50.5742 31.702 51.916 26.183 51.916 C10.816 51.916 0 41.4737 0 26.5547 C0 11.1143 11.935 0 28.494 0 C33.492 0 37.595 0.8203 42.891 2.835 C42.891 2.835 40.803 8.6524 40.803 8.6524 C39.608 8.2803 38.639 7.9815 38.042 7.8321 C34.761 6.9366 31.776 6.4893 28.867 6.4893 C16.485 6.4893 8.205 14.3223 8.205 26.0323 C8.205 37.2959 15.963 45.2032 27.003 45.2032 C29.24 45.2032 31.553 44.9043 33.791 44.3076 C36.327 43.711 37.744 43.1143 41.026 41.3994 C41.026 41.3994 43.786 46.8438 43.786 46.8438 C42.816 47.5157 42.07 47.9629 41.548 48.1866 Z" />
 </g>
 <g transform="translate(351.325, 12.5762)" style="fill:#8c8c8c; fill-rule:nonzero; stroke:none; stroke-width:1; stroke-linecap:butt; stroke-linejoin:miter; stroke-dasharray:none;" >
  <path d="M32.672 49.7539 C32.672 49.7539 32.672 26.6299 32.672 26.6299 C32.672 26.6299 7.907 26.6299 7.907 26.6299 C7.907 26.6299 7.907 49.7539 7.907 49.7539 C7.907 49.7539 0 49.7539 0 49.7539 C0 49.7539 0 0 0 0 C0 0 7.907 0 7.907 0 C7.907 0 7.907 20.6621 7.907 20.6621 C7.907 20.6621 32.672 20.6621 32.672 20.6621 C32.672 20.6621 32.672 0 32.672 0 C32.672 0 40.579 0 40.579 0 C40.579 0 40.579 49.7539 40.579 49.7539 C40.579 49.7539 32.672 49.7539 32.672 49.7539 Z" />
 </g>
 <g transform="translate(112.376, 0.599609)" style="fill:#99ff00; fill-rule:nonzero; stroke:none; stroke-width:1; stroke-linecap:butt; stroke-linejoin:miter; stroke-dasharray:none;" >
  <path d="M6.65 0 C6.65 0 0 0 0 0 C0 0 0 35.5586 0 35.5586 C0 35.5586 6.65 35.5586 6.65 35.5586 C6.65 35.5586 6.65 0 6.65 0 Z" />
 </g>
 <g transform="translate(88.6719, 12.0371)" style="fill:#99ff00; fill-rule:nonzero; stroke:none; stroke-width:1; stroke-linecap:butt; stroke-linejoin:miter; stroke-dasharray:none;" >
  <path d="M39.1721 0 C39.1721 0 39.1721 0.0049 39.1721 0.0049 C39.1721 0.0049 36.3121 5.7266 36.3121 5.7266 C43.0241 9.1377 47.6511 16.1104 47.6511 24.1211 C47.6511 35.4678 38.3791 44.7461 27.0291 44.7461 C15.6861 44.7461 6.4052 35.4678 6.4052 24.1211 C6.4052 16.0791 11.0713 9.0772 17.8261 5.6865 C17.8261 5.6865 17.7801 5.6709 17.7801 5.6709 C17.7801 5.6709 14.8771 0.0049 14.8771 0.0049 C6.0722 4.4766 0 13.624 0 24.1211 C0 38.9834 12.1661 51.1524 27.0291 51.1524 C41.8921 51.1524 54.0611 38.9834 54.0611 24.1211 C54.0611 13.6191 47.9811 4.4688 39.1721 0 Z" />
 </g>
 <g transform="translate(398.312, 12.7578)" style="fill:#8c8c8c; fill-rule:nonzero; stroke:none; stroke-width:1; stroke-linecap:butt; stroke-linejoin:miter; stroke-dasharray:none;" >
  <path d="M3.348 4.3106 C3.348 4.3106 3.348 2.8399 3.348 2.8399 C3.348 2.8399 4.622 2.8399 4.622 2.8399 C5.138 2.8399 5.496 3.125 5.496 3.5693 C5.496 4.0752 5.089 4.3106 4.484 4.3106 C4.484 4.3106 3.348 4.3106 3.348 4.3106 Z M2.558 7.0645 C2.558 7.0645 3.348 7.0645 3.348 7.0645 C3.348 7.0645 3.348 4.9893 3.348 4.9893 C3.348 4.9893 3.818 4.9893 3.818 4.9893 C4.422 4.9893 4.658 5.1992 5.275 6.2988 C5.275 6.2988 5.708 7.0645 5.708 7.0645 C5.708 7.0645 6.671 7.0645 6.671 7.0645 C6.671 7.0645 6.077 6.1133 6.077 6.1133 C5.67 5.459 5.362 5.0391 4.942 4.8897 C4.942 4.8897 4.942 4.8652 4.942 4.8652 C5.769 4.8164 6.336 4.2481 6.336 3.458 C6.336 2.9268 5.93 2.1729 4.719 2.1729 C4.719 2.1729 2.558 2.1729 2.558 2.1729 C2.558 2.1729 2.558 7.0645 2.558 7.0645 Z M8.35 4.544 C8.35 6.6445 6.646 8.3496 4.546 8.3496 C2.447 8.3496 0.754 6.6445 0.754 4.544 C0.754 2.4443 2.447 0.7529 4.546 0.7529 C6.646 0.7529 8.35 2.4443 8.35 4.544 Z M9.104 4.544 C9.104 2.0264 7.066 0 4.546 0 C2.026 0 0 2.0264 0 4.544 C0 7.0645 2.026 9.1026 4.546 9.1026 C7.066 9.1026 9.104 7.0645 9.104 4.544 Z" />
 </g>
</svg>
