<?xml version="1.0" standalone="no"?> <!DOCTYPE svg PUBLIC "-//W3C//DTD SVG 1.0//EN" "http://www.w3.org/TR/2001/REC-SVG-20010904/DTD/svg10.dtd" > <svg xmlns="http://www.w3.org/2000/svg" width="100%" height="100%">
<defs >
<font id="LeagueGothic" horiz-adv-x="276" ><font-face
    font-family="League Gothic"
    units-per-em="1000"
    panose-1="0 0 0 0 0 0 0 0 0 0"
    ascent="930"
    descent="-250"
    alphabetic="0" />
<missing-glyph horiz-adv-x="364" d="M33 0V666H298V0H33ZM66 33H265V633H66V33Z" />
<glyph unicode=" " glyph-name="space" horiz-adv-x="154" />
<glyph unicode="!" glyph-name="exclam" horiz-adv-x="189" d="M42 0V111H147V0H42ZM63 198L36 735H153L126 198H63Z" />
<glyph unicode="&quot;" glyph-name="quotedbl" horiz-adv-x="161" d="M118 466H43L28 735H133L118 466Z" />
<glyph unicode="#" glyph-name="numbersign" horiz-adv-x="602" d="M24 214L37 309H134L152 435H56L69 530H165L193 735H289L261 530H388L416 735H512L484 530H578L565 435H471L453 309H546L533 214H440L411 0H315L344 214H217L188 0H92L121 214H24ZM248 435L230
309H357L375 435H248Z" />
<glyph unicode="$" glyph-name="dollar" horiz-adv-x="338" d="M140 795H200V734Q298 723 315 596L221 584Q218 612 208 629T176 645Q137 644 135 566Q135 552 139 537T148 510T164 481T180 455T200 427T219 401Q222 396 235 378T253 352T269 327T286 299T299
272T310 242T317 213T320 181Q318 16 200 1V-105H140V3Q25 23 18 175L112 181Q118 90 175 90Q218 90 220 180Q220 194 216 209T207 236T191 265T174 291T155 318T137 343Q104 388 88 412T54 481T35 564Q37 707 140 731V795Z" />
<glyph unicode="%" glyph-name="percent" horiz-adv-x="489" d="M144 0H77L347 735H411L144 0ZM122 658Q123 685 105 685Q96 685 92 679T87 665V658V445Q85 418 105 418Q113 418 117 425T122 438V445V658ZM403 290Q404 317 386 317Q377 317 373 311T368 297V290V77Q366
49 386 49Q394 49 398 56T402 70L403 77V290ZM182 445Q182 442 182 436T177 415T166 389T143 369T105 359Q70 359 51 380T29 424L27 445V658Q27 661 27 667T32 687T43 713T67 734T105 743Q139 743 158 722T180 679L182 658V445ZM463 77Q463 74 463 68T458 48T447
22T424 1T386 -8Q351 -8 332 13T310 56L308 77V290Q308 293 308 299T313 320T324 346T348 366T386 376Q420 376 439 355T461 312L463 290V77Z" />
<glyph unicode="&amp;" glyph-name="ampersand" horiz-adv-x="417" d="M24 154Q24 210 45 258T107 367Q55 477 55 583Q55 586 55 592T57 614T64 646T78 679T101 711T137 734T187 743Q225 743 252 727T291 687T309 640T316 600V583Q316 504 216 371Q253 286 288
232Q304 279 311 335L397 319Q389 215 352 144Q379 113 397 107V-8Q386 -8 355 10T295 60Q235 -8 172 -8T67 39T24 154ZM238 128Q195 196 153 272Q150 267 146 258T135 220T128 159Q129 127 142 107T177 86Q206 86 238 128ZM225 586Q224 587 225 593T224 611T219
632T207 649T187 657Q168 657 159 639T149 602V583Q149 529 176 463Q225 539 225 586Z" />
<glyph unicode="&apos;" glyph-name="quotesingle" horiz-adv-x="151" d="M127 735V624L72 494H22L57 624H22V735H127Z" />
<glyph unicode="(" glyph-name="parenleft" horiz-adv-x="274" d="M175 776L254 735Q249 728 241 715T210 659T172 570T142 454T128 315T141 177T172 60T209 -27T241 -85L254 -104L175 -145Q169 -136 160 -121T126 -56T82 45T48 171T32 315T46 458T82 585T124
685T160 753L175 776Z" />
<glyph unicode=")" glyph-name="parenright" horiz-adv-x="274" d="M20 735L99 776Q105 767 114 752T148 686T192 585T226 460T242 315T228 172T192 45T149 -54T114 -122L99 -145L20 -104Q25 -97 33 -84T64 -28T102 60T132 176T146 315T133 453T102 570T65 658T33
716L20 735Z" />
<glyph unicode="*" glyph-name="asterisk" horiz-adv-x="331" d="M137 649L128 735H203L194 649L274 683L295 611L211 594L267 527L203 488L165 562L128 488L64 527L120 594L36 611L57 683L137 649Z" />
<glyph unicode="+" glyph-name="plus" horiz-adv-x="518" d="M36 317V401H217V570H301V401H482V317H301V148H217V317H36Z" />
<glyph unicode="," glyph-name="comma" horiz-adv-x="151" d="M127 111V0L72 -130H22L57 0H22V111H127Z" />
<glyph unicode="-" glyph-name="hyphen" horiz-adv-x="217" d="M36 222V317H181V222H36Z" />
<glyph unicode="." glyph-name="period" horiz-adv-x="157" d="M26 0V111H131V0H26Z" />
<glyph unicode="/" glyph-name="slash" horiz-adv-x="352" d="M4 -72L269 735H348L86 -72H4Z" />
<glyph unicode="0" glyph-name="zero" horiz-adv-x="354" d="M321 151Q321 145 320 134T312 96T291 47T248 9T177 -8T107 8T64 48T43 94T34 134L33 151V584Q33 590 34 601T42 639T63 688T106 726T177 743T247 727T290 687T311 641T320 600L321 584V151ZM213 584Q213
590 213 599T203 623T177 638T151 625T142 598L141 584V151Q141 145 141 136T151 112T177 97T203 110T212 138L213 151V584Z" />
<glyph unicode="1" glyph-name="one" horiz-adv-x="232" d="M84 576H12V645Q52 653 80 675T118 716L127 735H192V0H84V576Z" />
<glyph unicode="2" glyph-name="two" horiz-adv-x="357" d="M138 502H30V553Q30 743 174 743T318 560Q318 396 149 107H320V0H27V107Q34 118 46 137T89 211T144 319T188 437T210 553Q210 643 174 643T138 553V502Z" />
<glyph unicode="3" glyph-name="three" horiz-adv-x="335" d="M121 332H112V422Q130 423 142 425T164 432T179 443T188 457T192 477T194 502T194 532Q194 546 194 553Q194 575 194 586T190 615T180 640T160 648Q140 648 135 624T128 523H22Q22 557 23 579T31 635T53
690T94 727T160 743Q198 743 226 728T267 694T289 649T298 610T300 585Q300 443 248 391L247 390Q309 341 309 188Q309 176 308 160T298 111T277 55T235 11T169 -8Q130 -8 103 7T61 44T38 99T28 157T26 212H132Q133 139 140 113T169 87Q191 87 197 111T203 180Q203
189 203 212T204 243T202 267T197 289T188 305T174 319T152 327T121 332Z" />
<glyph unicode="4" glyph-name="four" horiz-adv-x="334" d="M179 0V160H12V255L170 735H278V255H328V160H278V0H179ZM167 485L104 255H179V485V507H173L167 485Z" />
<glyph unicode="5" glyph-name="five" horiz-adv-x="344" d="M144 185Q144 129 151 108T177 86Q195 86 202 108T210 184V348Q210 402 176 402Q160 402 147 383T134 348H43V735H304V628H136V475Q140 478 146 482T169 494T198 500Q236 500 263 481T300 432T314 383T318
348V184Q318 -8 177 -8Q139 -8 112 6T71 41T48 94T38 152T36 214H144V185Z" />
<glyph unicode="6" glyph-name="six" horiz-adv-x="342" d="M314 301V151Q314 131 310 110T294 60T250 11T173 -8T96 11T53 59T36 110T32 151V569Q32 743 173 743T314 569V523H206Q206 602 201 625T173 649Q154 649 147 631T140 569V438Q169 456 194 456Q233 456
259 439T296 393T310 344T314 301ZM140 119Q140 109 148 98T173 86Q188 86 197 98T206 119V339Q206 348 197 360T173 372T150 362T140 342V119Z" />
<glyph unicode="7" glyph-name="seven" horiz-adv-x="288" d="M56 0L166 628H4V735H276V627L168 0H56Z" />
<glyph unicode="8" glyph-name="eight" horiz-adv-x="340" d="M314 243V157Q314 145 313 132T304 91T282 44T239 8T170 -8T101 8T58 44T36 91T27 131T26 157V243Q26 335 82 388Q32 438 32 523V585Q32 596 33 609T42 648T63 693T104 728T170 743T236 728T277 694T298
648T307 609T308 585V523Q308 438 258 388Q314 335 314 243ZM209 200Q209 274 203 302T170 330T138 302T131 200Q132 138 139 115T170 91Q188 91 196 105T207 140T209 200ZM202 547Q202 602 196 625T170 648Q152 648 146 627T138 547Q138 485 144 461T170 436T196
460T202 547Z" />
<glyph unicode="9" glyph-name="nine" horiz-adv-x="342" d="M28 441V584Q28 604 32 625T48 675T92 724T169 743T246 724T289 676T306 625T310 584V166Q310 -8 169 -8T28 166V212H136Q136 133 141 110T169 86Q188 86 195 104T202 166V304Q173 286 148 286Q109
286 83 303T46 349T32 398T28 441ZM202 400V616Q202 626 194 637T169 649Q154 649 145 637T136 616V403Q136 394 145 382T169 370T192 380T202 400Z" />
<glyph unicode=":" glyph-name="colon" horiz-adv-x="177" d="M36 0V111H141V0H36ZM36 436V547H141V436H36Z" />
<glyph unicode=";" glyph-name="semicolon" horiz-adv-x="177" d="M36 436V547H141V436H36ZM141 111V0L86 -130H36L71 0H36V111H141Z" />
<glyph unicode="&lt;" glyph-name="less" horiz-adv-x="517" d="M36 317V395L481 627V530L140 356L481 182V85L36 317Z" />
<glyph unicode="=" glyph-name="equal" horiz-adv-x="517" d="M36 233V317H481V233H36ZM36 422V506H481V422H36Z" />
<glyph unicode="&gt;" glyph-name="greater" horiz-adv-x="517" d="M481 395V317L36 85V182L377 356L36 530V627L481 395Z" />
<glyph unicode="?" glyph-name="question" horiz-adv-x="315" d="M97 111V0H202V111H97ZM196 198H103V323Q103 373 115 418T138 487T170 544Q191 579 196 599Q199 612 191 628T163 645Q140 646 123 622T99 574L12 615Q18 631 28 648T57 688T104 725T165 739Q205
738 232 723T272 683T290 638T295 599Q295 559 256 492Q237 461 228 446T208 394T196 323V198Z" />
<glyph unicode="@" glyph-name="at" horiz-adv-x="426" d="M398 582V195H318L308 222Q306 218 303 213T285 198T253 189Q182 189 182 273V510Q182 593 253 593Q270 593 284 585T303 568L308 560V582Q308 607 286 633T215 659T144 633T122 582V148Q122 122 143
98T215 73Q272 73 297 104L371 62Q318 -8 215 -8Q163 -8 125 9T68 53T41 104T32 148V582Q32 603 40 628T68 680T125 725T215 743T305 725T362 680T389 628T398 582ZM308 280V502Q308 528 284 528Q261 528 261 502V280Q261 254 284 254Q308 254 308 280Z" />
<glyph unicode="A" glyph-name="A" horiz-adv-x="374" d="M115 0H10L121 735H253L364 0H259L239 150H135L115 0ZM224 264L193 496L190 515H184L181 496L150 264H224Z" />
<glyph unicode="B" glyph-name="B" horiz-adv-x="364" d="M173 0H40V735H135Q235 735 283 691T332 540Q332 488 318 455T265 388Q268 387 273 384T291 367T314 335T332 283T340 208Q340 6 173 0ZM228 220Q228 260 220 285T198 320T174 331T152 333Q149 333 148
333V107Q184 107 201 122Q228 149 228 220ZM228 501T228 530T221 579T206 608T184 622T165 627T148 628V432Q159 432 164 432T184 437T206 451T221 481Z" />
<glyph unicode="C" glyph-name="C" horiz-adv-x="346" d="M220 252H321V151Q321 145 320 134T312 96T291 47T248 9T177 -8T107 8T64 48T43 94T34 134L33 151V584Q33 590 34 601T42 639T63 688T106 726T177 743T247 727T290 687T311 641T320 600L321 584V483H220V584Q219
584 220 589T219 603T213 619T201 632T179 638Q162 638 153 625T142 598L141 584V151Q141 145 142 136T152 112T179 97Q199 97 209 110T220 138V151V252Z" />
<glyph unicode="D" glyph-name="D" horiz-adv-x="372" d="M340 436T340 367T339 256T333 170T319 102T294 56T255 23T200 6T125 0H40V735H125Q169 735 200 729T255 713T294 680T318 633T332 565T338 479ZM148 627V108Q194 108 208 128Q227 155 228 284Q228 315
228 368Q229 552 216 590Q205 622 171 626Q162 627 148 627Z" />
<glyph unicode="E" glyph-name="E" horiz-adv-x="307" d="M40 0V735H287V624H148V431H248V313H148V111H287V0H40Z" />
<glyph unicode="F" glyph-name="F" horiz-adv-x="301" d="M297 735V624H148V431H248V320H148V0H40V735H297Z" />
<glyph unicode="G" glyph-name="G" horiz-adv-x="360" d="M321 471H213V584Q213 590 213 599T203 623T177 638T151 625T142 598L141 584V142Q141 136 141 127T151 103T177 88T203 101T212 128L213 142V275H170V366H321V0H257L244 35Q210 -8 160 -8Q122 -8 95 8T56
48T39 94T33 134V151V584Q33 590 34 601T42 639T63 688T106 726T177 743T247 727T290 687T311 641T320 600L321 584V471Z" />
<glyph unicode="H" glyph-name="H" horiz-adv-x="380" d="M232 0V320H148V0H40V735H148V431H232V735H340V0H232Z" />
<glyph unicode="I" glyph-name="I" horiz-adv-x="188" d="M40 0V735H148V0H40Z" />
<glyph unicode="J" glyph-name="J" horiz-adv-x="207" d="M6 -7V99Q8 99 12 99T26 99T43 105T57 122T64 153V735H172V136Q172 69 134 29T6 -7Z" />
<glyph unicode="K" glyph-name="K" horiz-adv-x="375" d="M40 735H148V490V478H152L157 490L247 735H352L253 493L365 0H260L185 320L182 335H179L173 320L148 260V0H40V735Z" />
<glyph unicode="L" glyph-name="L" horiz-adv-x="295" d="M40 0V735H148V100H291V0H40Z" />
<glyph unicode="M" glyph-name="M" horiz-adv-x="484" d="M265 0H219L150 462L146 493H140V462V0H40V735H172L236 399L241 360H243L248 399L312 735H444V0H344V462V493H338L334 462L265 0Z" />
<glyph unicode="N" glyph-name="N" horiz-adv-x="395" d="M259 0L154 383L145 417H139V383V0H40V735H136L241 352L250 318H256V352V735H355V0H259Z" />
<glyph unicode="O" glyph-name="O" horiz-adv-x="354" d="M321 151Q321 145 320 134T312 96T291 47T248 9T177 -8T107 8T64 48T43 94T34 134L33 151V584Q33 590 34 601T42 639T63 688T106 726T177 743T247 727T290 687T311 641T320 600L321 584V151ZM213 584Q213
590 213 599T203 623T177 638T151 625T142 598L141 584V151Q141 145 141 136T151 112T177 97T203 110T212 138L213 151V584Z" />
<glyph unicode="P" glyph-name="P" horiz-adv-x="352" d="M40 0V735H148Q229 735 283 684T338 515T284 346T148 294V0H40ZM148 625V404Q198 404 213 426T229 511Q229 575 213 600T148 625Z" />
<glyph unicode="Q" glyph-name="Q" horiz-adv-x="356" d="M321 151Q321 105 299 62Q315 41 342 36V-56Q264 -56 231 1Q204 -8 177 -8Q136 -8 107 8T64 48T43 94T34 134L33 151V584Q33 590 34 601T42 639T63 688T106 726T177 743T247 727T290 687T311 641T320 600L321
584V151ZM213 584Q213 590 213 599T203 623T177 638T151 625T142 598L141 584V151Q141 145 141 136T151 112T177 97T203 110T212 138L213 151V584Z" />
<glyph unicode="R" glyph-name="R" horiz-adv-x="361" d="M341 0H233L177 310H148V0H40V735H148Q332 735 332 523Q332 397 272 356L341 0ZM228 482T228 519T221 580T199 613T174 625T148 628V410Q163 410 173 412T198 424T220 458Z" />
<glyph unicode="S" glyph-name="S" horiz-adv-x="343" d="M33 571Q33 639 68 690T174 743Q220 744 252 726T298 677T319 615T325 548L219 538Q219 644 176 644Q139 643 139 571Q139 562 141 552T146 533T155 512T165 492T178 471T192 450T208 427T224 404Q260
350 275 326T307 258T325 177Q325 -8 175 -8Q135 -8 106 4T60 35T34 84T21 141T18 206L124 216Q124 91 175 91Q219 91 219 172Q219 186 215 201T200 237T182 268T156 306T132 342Q100 389 82 419T49 491T33 571Z" />
<glyph unicode="T" glyph-name="T" horiz-adv-x="316" d="M104 624H2V735H314V624H212V0H104V624Z" />
<glyph unicode="U" glyph-name="U" horiz-adv-x="366" d="M219 735H327V151Q327 145 326 134T318 96T297 47T254 9T183 -8T113 8T70 48T49 94T40 134L39 151V735H147V151Q147 145 147 136T157 112T183 97T209 110T218 138L219 151V735Z" />
<glyph unicode="V" glyph-name="V" horiz-adv-x="350" d="M182 331L236 735H341L229 0H121L9 735H114L168 331L172 300H178L182 331Z" />
<glyph unicode="W" glyph-name="W" horiz-adv-x="506" d="M245 348L195 0H111L12 735H112L155 353L157 329H165L168 353L214 735H292L338 353L341 329H349L351 353L394 735H494L395 0H311L261 348L255 391H251L245 348Z" />
<glyph unicode="X" glyph-name="X" horiz-adv-x="360" d="M176 219L114 0H8L127 386L10 735H116L175 549L178 540H182L185 549L244 735H350L233 386L352 0H246L184 219L182 228H178L176 219Z" />
<glyph unicode="Y" glyph-name="Y" horiz-adv-x="342" d="M113 735L167 500L170 493H172L175 500L229 735H335L225 313V0H117V313L7 735H113Z" />
<glyph unicode="Z" glyph-name="Z" horiz-adv-x="306" d="M10 0V116L179 628H34V735H296V628L124 107H296V0H10Z" />
<glyph unicode="[" glyph-name="bracketleft" horiz-adv-x="263" d="M235 735V639H136V-8H235V-104H40V-8V735H235Z" />
<glyph unicode="\" glyph-name="backslash" horiz-adv-x="387" d="M83 826L383 -88H301L4 826H83Z" />
<glyph unicode="]" glyph-name="bracketright" horiz-adv-x="263" d="M28 639V735H223V-8V-104H28V-8H127V639H28Z" />
<glyph unicode="^" glyph-name="asciicircum" horiz-adv-x="538" d="M212 735H326L512 395H415L269 660L123 395H26L212 735Z" />
<glyph unicode="_" glyph-name="underscore" horiz-adv-x="591" d="M36 -159V-75H555V-159H36Z" />
<glyph unicode="`" glyph-name="grave" horiz-adv-x="500" d="M143 727H248L300 637H222L143 727Z" />
<glyph unicode="a" glyph-name="a" horiz-adv-x="333" d="M123 142Q123 91 151 91Q168 91 180 100T193 124V264Q123 234 123 142ZM24 127Q24 179 40 218T81 279T129 314T172 339T193 357V375V417Q193 467 165 467Q155 467 149 463T141 447T137 429T136 406T136
386H35V409Q35 469 74 512T171 555Q221 555 257 519T294 431V260V95Q294 42 301 0H202Q193 10 193 44H186Q176 26 154 9T105 -8Q76 -8 50 21T24 127Z" />
<glyph unicode="b" glyph-name="b" horiz-adv-x="335" d="M40 0V735H141V511Q184 555 221 555Q259 555 279 522T299 448V99Q299 59 279 26T221 -8Q205 -8 185 3T153 25L141 36V0H40ZM141 120Q141 106 150 97T171 87T190 96T198 120V427Q198 441 190 450T171 460T151
450T141 427V120Z" />
<glyph unicode="c" glyph-name="c" horiz-adv-x="315" d="M133 421V126Q133 82 161 82Q178 82 184 91T190 126V202H291V149Q291 61 260 27T161 -8Q32 -8 32 154V393Q32 555 161 555Q228 555 259 521T291 398V355H190V421Q190 446 184 455T161 465Q133 465 133 421Z" />
<glyph unicode="d" glyph-name="d" horiz-adv-x="335" d="M295 735V0H194V36Q151 -8 114 -8Q76 -8 56 25T36 99V448Q36 488 56 521T114 555Q130 555 150 544T182 522L194 511V735H295ZM194 120V427Q194 439 185 449T164 460T145 451T137 427V120Q137 106 145 97T164
87T184 96T194 120Z" />
<glyph unicode="e" glyph-name="e" horiz-adv-x="322" d="M199 196H293V133Q293 127 292 118T284 84T265 41T226 7T162 -8Q126 -8 99 7T60 43T41 85T33 121L32 136V411Q32 417 33 426T41 461T60 505T100 539T163 555Q200 555 226 541T265 505T285 464T292 428L293
414V255H126V136Q126 134 126 130T128 117T133 100T145 87T163 81Q180 81 189 94T198 122L199 136V196ZM126 411V334H199V411Q199 417 199 426T189 451T163 467Q147 467 138 453T127 425L126 411Z" />
<glyph unicode="f" glyph-name="f" horiz-adv-x="232" d="M162 0H61V456H10V547H61V555V562Q61 587 62 603T69 648T86 694T120 725T177 739Q191 739 203 738T220 734L224 732V645Q211 649 194 649Q162 649 162 561V553V547H213V456H162V0Z" />
<glyph unicode="g" glyph-name="g" horiz-adv-x="342" d="M287 419V264Q287 259 286 250T278 217T258 176T220 144T157 129Q144 129 138 130Q124 118 124 105Q124 97 129 91T150 81T172 76T201 71Q229 67 250 61T294 41T328 3T341 -56Q341 -130 291 -163T168 -196Q88
-194 47 -171T6 -90Q6 -44 85 -7Q24 10 24 66Q24 88 43 111T87 148Q62 165 48 194T31 246L29 267V416Q29 422 30 431T38 464T57 506T95 540T157 555Q223 555 258 505Q308 555 341 555V465Q306 465 282 453L287 419ZM188 412Q187 412 188 417T187 429T183 444T174
457T157 462Q143 462 136 450T128 424V412V262Q128 257 128 249T135 227T157 213Q172 213 180 225T188 250V262V412ZM247 -74Q247 -58 237 -50T193 -35L141 -25Q104 -46 104 -73Q104 -111 170 -111Q199 -111 223 -102T247 -74Z" />
<glyph unicode="h" glyph-name="h" horiz-adv-x="337" d="M174 457Q165 457 157 451T145 438L141 431V0H40V735H141V501Q142 502 156 516T189 543T223 555Q260 555 279 522T299 448V0H198V433Q198 457 174 457Z" />
<glyph unicode="i" glyph-name="i" horiz-adv-x="181" d="M141 0H40V547H141V0ZM40 634V735H141V634H40Z" />
<glyph unicode="j" glyph-name="j" horiz-adv-x="178" d="M37 634V735H138V634H37ZM37 547H138V-14Q138 -39 137 -55T130 -99T113 -144T79 -174T22 -188Q8 -188 -3 -187T-18 -184L-22 -182V-89Q-8 -93 6 -93Q38 -93 37 -19Q37 -15 37 -13V547Z" />
<glyph unicode="k" glyph-name="k" horiz-adv-x="313" d="M40 735H141V404V386H146L152 404L201 547H292L219 369L311 0H214L164 221L162 229H157L154 221L141 189V0H40V735Z" />
<glyph unicode="l" glyph-name="l" horiz-adv-x="181" d="M141 0H40V735H141V0Z" />
<glyph unicode="m" glyph-name="m" horiz-adv-x="499" d="M339 457Q330 457 321 451T306 438L301 431V0H206V433Q206 457 179 457Q170 457 161 451T146 438L141 431V0H40V547H141V501Q142 501 157 516T190 543T225 555Q274 555 293 494Q295 496 314 514T351 543T385
555Q422 555 441 522T461 448V0H366V433Q366 457 339 457Z" />
<glyph unicode="n" glyph-name="n" horiz-adv-x="337" d="M174 457Q165 457 157 451T145 438L141 431V0H40V547H141V501Q142 502 156 516T189 543T223 555Q260 555 279 522T299 448V0H198V433Q198 457 174 457Z" />
<glyph unicode="o" glyph-name="o" horiz-adv-x="321" d="M290 414V133Q290 127 290 118T282 84T263 41T224 7T160 -8Q124 -8 97 7T58 43T39 85T32 121L31 136V411Q31 417 31 426T39 461T58 505T97 539T160 555Q197 555 223 541T262 505T282 464T290 428V414ZM195
411Q194 411 195 416T194 430T189 447T179 461T160 467Q144 467 136 453T126 425V411V136Q127 136 126 131T127 117T132 100T142 87T160 81Q177 81 185 94T194 122L195 136V411Z" />
<glyph unicode="p" glyph-name="p" horiz-adv-x="335" d="M40 -188V547H141V511Q184 555 221 555Q259 555 279 522T299 448V99Q299 59 279 26T221 -8Q205 -8 185 3T153 25L141 36V-188H40ZM141 427V120Q141 108 150 98T171 87T190 96T198 120V427Q198 441 190
450T171 460T151 451T141 427Z" />
<glyph unicode="q" glyph-name="q" horiz-adv-x="335" d="M295 547V-188H194V36Q151 -8 114 -8Q76 -8 56 25T36 99V448Q36 488 56 521T114 555Q130 555 150 544T182 522L194 511V547H295ZM194 427Q194 441 185 450T164 460T145 451T137 427V120Q137 106 145 97T164
87T184 97T194 120V427Z" />
<glyph unicode="r" glyph-name="r" horiz-adv-x="246" d="M242 555V443Q195 458 163 430Q141 410 141 380V0H40V547H141V486Q145 506 169 530T242 555Z" />
<glyph unicode="s" glyph-name="s" horiz-adv-x="308" d="M35 407Q35 434 41 458T60 504T98 540T158 555Q200 556 227 543T267 504T283 458T287 407H193Q193 471 160 471Q129 470 129 407Q129 391 140 372T162 341T195 309Q288 220 288 142Q288 82 257 37T159
-8Q124 -8 98 4T56 33T32 75T21 118T18 159H112Q112 76 159 76Q194 76 194 142Q194 178 131 239Q98 271 83 287T52 336T35 407Z" />
<glyph unicode="t" glyph-name="t" horiz-adv-x="245" d="M61 682H162V547H231V456H162V184Q162 94 194 94L231 98V-1Q209 -8 177 -8Q144 -8 121 6T86 37T69 84T62 131T61 176V456H10V547H61V682Z" />
<glyph unicode="u" glyph-name="u" horiz-adv-x="337" d="M163 90Q172 90 180 96T192 110L196 116V547H297V0H196V46Q195 45 181 31T148 4T114 -8Q77 -8 58 25T38 99V547H139V114Q139 90 163 90Z" />
<glyph unicode="v" glyph-name="v" horiz-adv-x="294" d="M197 0H97L8 547H106L139 230L143 195H151L155 230L188 547H286L197 0Z" />
<glyph unicode="w" glyph-name="w" horiz-adv-x="442" d="M351 0H267L228 261L223 292H219L214 261L175 0H91L10 547H102L134 261L138 230H144L149 261L191 547H251L293 261L298 230H304L308 261L340 547H432L351 0Z" />
<glyph unicode="x" glyph-name="x" horiz-adv-x="302" d="M8 0L102 282L16 547H111L147 419L150 404H152L155 419L191 547H286L200 282L294 0H196L155 138L152 153H150L147 138L106 0H8Z" />
<glyph unicode="y" glyph-name="y" horiz-adv-x="310" d="M16 -194V-104Q24 -106 40 -106Q70 -103 87 -76T105 -16L12 547H111L151 211L153 183H157L159 211L199 547H298L201 -41Q193 -103 155 -149T61 -196L16 -194Z" />
<glyph unicode="z" glyph-name="z" horiz-adv-x="260" d="M6 0V82L145 455H28V547H252V465L113 92H252V0H6Z" />
<glyph unicode="{" glyph-name="braceleft" horiz-adv-x="336" d="M94 563Q94 672 141 708T308 743V659Q242 660 216 641T190 563V369Q190 299 128 261Q190 221 190 153V-41Q190 -99 216 -118T308 -137V-221Q188 -223 141 -187T94 -41V153Q94 163 90 176T70 204T30
221V301Q65 301 79 325T94 369V563Z" />
<glyph unicode="|" glyph-name="bar" horiz-adv-x="174" d="M134 -250H40V826H134V-250Z" />
<glyph unicode="}" glyph-name="braceright" horiz-adv-x="336" d="M242 563V369Q242 358 246 345T266 316T306 301V221Q271 219 257 196T242 153V-41Q242 -150 195 -186T28 -221V-137Q94 -138 120 -119T146 -41V153Q146 221 208 261Q146 299 146 369V563Q146
621 120 640T28 659V743Q148 745 195 709T242 563Z" />
<glyph unicode="~" glyph-name="asciitilde" horiz-adv-x="625" d="M250 720T219 720T164 698T130 654L121 632L55 660Q57 666 61 676T79 712T111 758T157 794T219 810Q246 810 273 801T313 785T354 760Q406 725 439 725Q467 725 490 747T523 792L532 814L598
786Q596 780 592 770T574 733T542 688T498 652T439 635Q380 635 306 684Q250 720 219 720Z" />
<glyph unicode="&#xa1;" glyph-name="exclamdown" horiz-adv-x="189" d="M42 436V547H147V436H42ZM36 -188L63 349H126L153 -188H36Z" />
<glyph unicode="&#xa2;" glyph-name="cent" horiz-adv-x="311" d="M134 765H194V646Q242 638 264 603T287 492V449H195V515Q195 559 159 559Q124 559 124 515V220Q124 176 159 176Q195 176 195 220V296H287V243Q287 167 265 132T194 88V-60H134V87Q32 102 32 248V487Q32
632 134 647V765Z" />
<glyph unicode="&#xa3;" glyph-name="sterling" horiz-adv-x="399" d="M353 547H249Q249 589 237 616T193 643Q170 642 160 618T149 561Q149 506 183 396L186 384H289V317H204Q216 268 216 232Q216 181 188 125Q196 121 209 113T233 101T253 96Q289 98 293 189L385
178Q379 89 345 41T262 -8Q237 -8 192 17T129 42Q113 42 99 30T79 4L73 -8L2 31Q6 41 13 57T47 101T105 135Q123 189 123 232Q123 265 108 317H16V384H88L85 394Q47 518 47 561Q47 595 54 625T78 682T123 725T191 743Q238 744 271 728T321 682T346 620T353 547Z"
/>
<glyph unicode="&#xa5;" glyph-name="yen" horiz-adv-x="352" d="M36 166V233H122V300H36V367H108L12 735H118L172 500L175 493H177L180 500L234 735H340L244 367H316V300H230V233H316V166H230V0H122V166H36Z" />
<glyph unicode="&#xa8;" glyph-name="dieresis" horiz-adv-x="500" d="M133 637V735H226V637H133ZM274 637V735H367V637H274Z" />
<glyph unicode="&#xa9;" glyph-name="copyright" horiz-adv-x="803" d="M26 212T26 367T136 632T401 743T666 633T777 367T667 102T401 -8T136 102ZM425 299H492V238Q492 234 492 228T486 205T473 176T445 153T400 142Q358 142 335 166T308 214L306 238V497Q306
501 306 507T312 530T325 559T353 582T400 593Q426 593 445 583T472 559T486 531T492 507V497V436H425V497Q425 500 425 505T419 519T401 528Q390 528 384 520T378 504L377 497V238Q377 207 401 207Q413 207 419 214T425 230V238V299ZM84 497T84 367T177 144T401
50T625 143T719 367Q719 498 626 591T401 685Q271 685 178 591Z" />
<glyph unicode="&#xae;" glyph-name="registered" horiz-adv-x="803" d="M305 582H401Q514 582 514 456Q514 419 506 395T471 348L523 153H449L403 331H376V153H305V582ZM398 519H376V393H398Q419 393 430 403T443 425T446 455Q446 474 444 486T430 508T398 519ZM26
212T26 367T136 632T401 743T666 633T777 367T667 102T401 -8T136 102ZM84 497T84 367T177 144T401 50T625 143T719 367Q719 498 626 591T401 685Q271 685 178 591Z" />
<glyph unicode="&#xaf;" glyph-name="overscore" horiz-adv-x="500" d="M153 642V721H347V642H153Z" />
<glyph unicode="&#xb4;" glyph-name="acute" horiz-adv-x="500" d="M252 727H357L278 637H200L252 727Z" />
<glyph unicode="&#xb7;" glyph-name="middot" horiz-adv-x="105" d="M0 317V428H105V317H0Z" />
<glyph unicode="&#xb8;" glyph-name="cedilla" horiz-adv-x="500" d="M292 -54V-123L270 -188H219L239 -123H208V-54H292Z" />
<glyph unicode="&#xbf;" glyph-name="questiondown" horiz-adv-x="315" d="M218 547V436H113V547H218ZM119 349H212V224Q212 174 200 129T177 60T145 3Q124 -32 119 -52Q116 -65 124 -81T152 -98Q175 -99 192 -75T216 -27L303 -68Q297 -84 287 -101T258 -141T211
-178T150 -192Q110 -191 83 -176T43 -136T25 -91T20 -52Q20 -12 59 55Q78 86 87 101T107 153T119 224V349Z" />
<glyph unicode="&#xc0;" glyph-name="Agrave" horiz-adv-x="374" d="M115 0H10L121 735H253L364 0H259L239 150H135L115 0ZM224 264L193 496L190 515H184L181 496L150 264H224ZM69 890H174L226 800H148L69 890Z" />
<glyph unicode="&#xc1;" glyph-name="Aacute" horiz-adv-x="374" d="M115 0H10L121 735H253L364 0H259L239 150H135L115 0ZM224 264L193 496L190 515H184L181 496L150 264H224ZM195 890H300L221 800H143L195 890Z" />
<glyph unicode="&#xc2;" glyph-name="Acircumflex" horiz-adv-x="374" d="M115 0H10L121 735H253L364 0H259L239 150H135L115 0ZM224 264L193 496L190 515H184L181 496L150 264H224ZM134 890H241L310 800H218L187 835L157 800H65L134 890Z" />
<glyph unicode="&#xc3;" glyph-name="Atilde" horiz-adv-x="374" d="M115 0H10L121 735H253L364 0H259L239 150H135L115 0ZM224 264L193 496L190 515H184L181 496L150 264H224ZM143 813Q131 813 118 809T97 801L90 797V871Q114 890 143 890Q159 890 187 881T231
871Q243 871 256 875T277 883L284 887V813Q259 794 231 794Q216 794 188 803T143 813Z" />
<glyph unicode="&#xc4;" glyph-name="Adieresis" horiz-adv-x="374" d="M115 0H10L121 735H253L364 0H259L239 150H135L115 0ZM224 264L193 496L190 515H184L181 496L150 264H224ZM70 800V898H163V800H70ZM211 800V898H304V800H211Z" />
<glyph unicode="&#xc5;" glyph-name="Aring" horiz-adv-x="374" d="M115 0H10L121 735H253L364 0H259L239 150H135L115 0ZM224 264L193 496L190 515H184L181 496L150 264H224ZM113 830T113 860T135 910T188 930T240 910T262 860T241 810T188 790T135 810ZM151
874T151 860T162 836T188 825T213 835T225 860T214 884T188 895T163 885Z" />
<glyph unicode="&#xc6;" glyph-name="AE" horiz-adv-x="537" d="M270 0V150H159L115 0H8L213 735H517V624H378V431H478V313H378V111H517V0H270ZM265 515L192 264H270V515H265Z" />
<glyph unicode="&#xc7;" glyph-name="Ccedilla" horiz-adv-x="346" d="M220 252H321V151Q321 145 320 134T312 96T291 47T248 9T177 -8T107 8T64 48T43 94T34 134L33 151V584Q33 590 34 601T42 639T63 688T106 726T177 743T247 727T290 687T311 641T320 600L321
584V483H220V584Q219 584 220 589T219 603T213 619T201 632T179 638Q162 638 153 625T142 598L141 584V151Q141 145 142 136T152 112T179 97Q199 97 209 110T220 138V151V252ZM215 -123V-54H131V-123H162L142 -188H193L215 -123Z" />
<glyph unicode="&#xc8;" glyph-name="Egrave" horiz-adv-x="307" d="M40 0V735H287V624H148V431H248V313H148V111H287V0H40ZM54 890H159L211 800H133L54 890Z" />
<glyph unicode="&#xc9;" glyph-name="Eacute" horiz-adv-x="307" d="M40 0V735H287V624H148V431H248V313H148V111H287V0H40ZM167 890H272L193 800H115L167 890Z" />
<glyph unicode="&#xca;" glyph-name="Ecircumflex" horiz-adv-x="307" d="M40 0V735H287V624H148V431H248V313H148V111H287V0H40ZM110 890H217L286 800H194L163 835L133 800H41L110 890Z" />
<glyph unicode="&#xcb;" glyph-name="Edieresis" horiz-adv-x="307" d="M40 0V735H287V624H148V431H248V313H148V111H287V0H40ZM46 800V898H139V800H46ZM187 800V898H280V800H187Z" />
<glyph unicode="&#xcc;" glyph-name="Igrave" horiz-adv-x="196" d="M48 0V735H156V0H48ZM-3 890H102L154 800H76L-3 890Z" />
<glyph unicode="&#xcd;" glyph-name="Iacute" horiz-adv-x="196" d="M40 0V735H148V0H40ZM94 890H199L120 800H42L94 890Z" />
<glyph unicode="&#xce;" glyph-name="Icircumflex" horiz-adv-x="181" d="M36 0V735H144V0H36ZM37 890H144L213 800H121L90 835L60 800H-32L37 890Z" />
<glyph unicode="&#xcf;" glyph-name="Idieresis" horiz-adv-x="182" d="M37 0V735H145V0H37ZM-26 800V898H67V800H-26ZM115 800V898H208V800H115Z" />
<glyph unicode="&#xd1;" glyph-name="Ntilde" horiz-adv-x="395" d="M259 0L154 383L145 417H139V383V0H40V735H136L241 352L250 318H256V352V735H355V0H259ZM154 813Q142 813 129 809T108 801L101 797V871Q125 890 154 890Q170 890 198 881T242 871Q254 871 267
875T288 883L295 887V813Q270 794 242 794Q227 794 199 803T154 813Z" />
<glyph unicode="&#xd2;" glyph-name="Ograve" horiz-adv-x="354" d="M321 151Q321 145 320 134T312 96T291 47T248 9T177 -8T107 8T64 48T43 94T34 134L33 151V584Q33 590 34 601T42 639T63 688T106 726T177 743T247 727T290 687T311 641T320 600L321 584V151ZM213
584Q213 590 213 599T203 623T177 638T151 625T142 598L141 584V151Q141 145 141 136T151 112T177 97T203 110T212 138L213 151V584ZM59 890H164L216 800H138L59 890Z" />
<glyph unicode="&#xd3;" glyph-name="Oacute" horiz-adv-x="354" d="M321 151Q321 145 320 134T312 96T291 47T248 9T177 -8T107 8T64 48T43 94T34 134L33 151V584Q33 590 34 601T42 639T63 688T106 726T177 743T247 727T290 687T311 641T320 600L321 584V151ZM213
584Q213 590 213 599T203 623T177 638T151 625T142 598L141 584V151Q141 145 141 136T151 112T177 97T203 110T212 138L213 151V584ZM191 890H296L217 800H139L191 890Z" />
<glyph unicode="&#xd4;" glyph-name="Ocircumflex" horiz-adv-x="354" d="M321 151Q321 145 320 134T312 96T291 47T248 9T177 -8T107 8T64 48T43 94T34 134L33 151V584Q33 590 34 601T42 639T63 688T106 726T177 743T247 727T290 687T311 641T320 600L321 584V151ZM213
584Q213 590 213 599T203 623T177 638T151 625T142 598L141 584V151Q141 145 141 136T151 112T177 97T203 110T212 138L213 151V584ZM124 890H231L300 800H208L177 835L147 800H55L124 890Z" />
<glyph unicode="&#xd5;" glyph-name="Otilde" horiz-adv-x="354" d="M321 151Q321 145 320 134T312 96T291 47T248 9T177 -8T107 8T64 48T43 94T34 134L33 151V584Q33 590 34 601T42 639T63 688T106 726T177 743T247 727T290 687T311 641T320 600L321 584V151ZM213
584Q213 590 213 599T203 623T177 638T151 625T142 598L141 584V151Q141 145 141 136T151 112T177 97T203 110T212 138L213 151V584ZM133 813Q121 813 108 809T87 801L80 797V871Q104 890 133 890Q149 890 177 881T221 871Q233 871 246 875T267 883L274 887V813Q249
794 221 794Q206 794 178 803T133 813Z" />
<glyph unicode="&#xd6;" glyph-name="Odieresis" horiz-adv-x="354" d="M321 151Q321 145 320 134T312 96T291 47T248 9T177 -8T107 8T64 48T43 94T34 134L33 151V584Q33 590 34 601T42 639T63 688T106 726T177 743T247 727T290 687T311 641T320 600L321 584V151ZM213
584Q213 590 213 599T203 623T177 638T151 625T142 598L141 584V151Q141 145 141 136T151 112T177 97T203 110T212 138L213 151V584ZM60 800V898H153V800H60ZM201 800V898H294V800H201Z" />
<glyph unicode="&#xd8;" glyph-name="Oslash" horiz-adv-x="354" d="M92 -10H29L52 67Q43 85 39 106T34 139L33 151V584Q33 590 34 601T42 639T63 688T106 726T177 743Q222 743 254 722L261 745H321L299 672Q309 653 314 631T320 596L321 584V151Q321 145 320
134T312 96T291 47T248 9T177 -8Q130 -8 99 13L92 -10ZM160 97T177 97T203 110T212 138L213 151V389L141 151Q141 145 141 136T151 112ZM141 584V355L213 589Q209 638 177 638Q160 638 151 625T142 598L141 584Z" />
<glyph unicode="&#xd9;" glyph-name="Ugrave" horiz-adv-x="366" d="M327 735H219V151Q219 145 219 136T209 112T183 97T157 110T148 138L147 151V735H39V151Q39 145 40 134T48 96T69 47T112 9T183 -8T253 8T296 48T317 94T326 134L327 151V735ZM71 890H176L228
800H150L71 890Z" />
<glyph unicode="&#xda;" glyph-name="Uacute" horiz-adv-x="366" d="M327 735H219V151Q219 145 219 136T209 112T183 97T157 110T148 138L147 151V735H39V151Q39 145 40 134T48 96T69 47T112 9T183 -8T253 8T296 48T317 94T326 134L327 151V735ZM202 890H307L228
800H150L202 890Z" />
<glyph unicode="&#xdb;" glyph-name="Ucircumflex" horiz-adv-x="366" d="M327 735H219V151Q219 145 219 136T209 112T183 97T157 110T148 138L147 151V735H39V151Q39 145 40 134T48 96T69 47T112 9T183 -8T253 8T296 48T317 94T326 134L327 151V735ZM130 890H237L306
800H214L183 835L153 800H61L130 890Z" />
<glyph unicode="&#xdc;" glyph-name="Udieresis" horiz-adv-x="366" d="M219 735H327V151Q327 145 326 134T318 96T297 47T254 9T183 -8T113 8T70 48T49 94T40 134L39 151V735H147V151Q147 145 147 136T157 112T183 97T209 110T218 138L219 151V735ZM66 800V898H159V800H66ZM207
800V898H300V800H207Z" />
<glyph unicode="&#xdf;" glyph-name="germandbls" horiz-adv-x="358" d="M169 478V547Q186 547 198 563T211 604Q211 626 201 639T169 653Q133 653 133 603V0H32V603Q32 663 66 703T169 743Q234 743 267 704T301 604Q301 551 258 519Q332 476 332 281Q332 192
322 135T290 49T240 10T169 0V94Q191 94 203 106T223 161T231 281Q231 364 224 407T204 464T169 478Z" />
<glyph unicode="&#xe0;" glyph-name="agrave" horiz-adv-x="333" d="M123 142Q123 91 151 91Q168 91 180 100T193 124V264Q123 234 123 142ZM24 127Q24 179 40 218T81 279T129 314T172 339T193 357V375V417Q193 467 165 467Q155 467 149 463T141 447T137 429T136
406T136 386H35V409Q35 469 74 512T171 555Q221 555 257 519T294 431V260V95Q294 42 301 0H202Q193 10 193 44H186Q176 26 154 9T105 -8Q76 -8 50 21T24 127ZM50 727H155L207 637H129L50 727Z" />
<glyph unicode="&#xe1;" glyph-name="aacute" horiz-adv-x="333" d="M123 142Q123 91 151 91Q168 91 180 100T193 124V264Q123 234 123 142ZM24 127Q24 179 40 218T81 279T129 314T172 339T193 357V375V417Q193 467 165 467Q155 467 149 463T141 447T137 429T136
406T136 386H35V409Q35 469 74 512T171 555Q221 555 257 519T294 431V260V95Q294 42 301 0H202Q193 10 193 44H186Q176 26 154 9T105 -8Q76 -8 50 21T24 127ZM181 727H286L207 637H129L181 727Z" />
<glyph unicode="&#xe2;" glyph-name="acircumflex" horiz-adv-x="333" d="M123 142Q123 91 151 91Q168 91 180 100T193 124V264Q123 234 123 142ZM24 127Q24 179 40 218T81 279T129 314T172 339T193 357V375V417Q193 467 165 467Q155 467 149 463T141 447T137
429T136 406T136 386H35V409Q35 469 74 512T171 555Q221 555 257 519T294 431V260V95Q294 42 301 0H202Q193 10 193 44H186Q176 26 154 9T105 -8Q76 -8 50 21T24 127ZM113 727H220L289 637H197L166 672L136 637H44L113 727Z" />
<glyph unicode="&#xe3;" glyph-name="atilde" horiz-adv-x="333" d="M123 142Q123 91 151 91Q168 91 180 100T193 124V264Q123 234 123 142ZM24 127Q24 179 40 218T81 279T129 314T172 339T193 357V375V417Q193 467 165 467Q155 467 149 463T141 447T137 429T136
406T136 386H35V409Q35 469 74 512T171 555Q221 555 257 519T294 431V260V95Q294 42 301 0H202Q193 10 193 44H186Q176 26 154 9T105 -8Q76 -8 50 21T24 127ZM123 653Q111 653 98 649T77 641L70 637V711Q94 730 123 730Q139 730 167 721T211 711Q223 711 236 715T257
723L264 727V653Q239 634 211 634Q196 634 168 643T123 653Z" />
<glyph unicode="&#xe4;" glyph-name="adieresis" horiz-adv-x="333" d="M123 142Q123 91 151 91Q168 91 180 100T193 124V264Q123 234 123 142ZM24 127Q24 179 40 218T81 279T129 314T172 339T193 357V375V417Q193 467 165 467Q155 467 149 463T141 447T137 429T136
406T136 386H35V409Q35 469 74 512T171 555Q221 555 257 519T294 431V260V95Q294 42 301 0H202Q193 10 193 44H186Q176 26 154 9T105 -8Q76 -8 50 21T24 127ZM50 637V735H143V637H50ZM191 637V735H284V637H191Z" />
<glyph unicode="&#xe5;" glyph-name="aring" horiz-adv-x="333" d="M123 142Q123 91 151 91Q168 91 180 100T193 124V264Q123 234 123 142ZM24 127Q24 179 40 218T81 279T129 314T172 339T193 357V375V417Q193 467 165 467Q155 467 149 463T141 447T137 429T136
406T136 386H35V409Q35 469 74 512T171 555Q221 555 257 519T294 431V260V95Q294 42 301 0H202Q193 10 193 44H186Q176 26 154 9T105 -8Q76 -8 50 21T24 127ZM92 664T92 694T114 744T167 764T219 744T241 694T220 644T167 624T114 644ZM130 708T130 694T141 670T167
659T192 669T204 694T193 718T167 729T142 719Z" />
<glyph unicode="&#xe6;" glyph-name="ae" horiz-adv-x="483" d="M360 196H454V133Q454 127 453 118T445 84T426 41T387 7T323 -8Q246 -8 213 56Q163 -8 105 -8Q76 -8 50 21T24 127Q24 179 40 218T81 279T129 314T172 339T193 357V417Q193 467 165 467Q155 467
149 463T141 447T137 429T136 406T136 386H35V409Q35 469 74 512T171 555Q212 555 245 530Q277 555 324 555Q361 555 387 541T426 505T446 464T454 428V414V255H287V136Q287 134 287 130T289 117T294 100T306 87T324 81Q341 81 350 94T360 122V136V196ZM123 142Q123
91 151 91Q168 91 180 100T193 124V264Q123 234 123 142ZM287 411V334H360V411Q360 417 360 426T350 451T324 467Q308 467 299 453T288 425L287 411Z" />
<glyph unicode="&#xe7;" glyph-name="ccedilla" horiz-adv-x="315" d="M133 421V126Q133 82 161 82Q178 82 184 91T190 126V202H291V149Q291 61 260 27T161 -8Q32 -8 32 154V393Q32 555 161 555Q228 555 259 521T291 398V355H190V421Q190 446 184 455T161 465Q133
465 133 421ZM200 -123V-54H116V-123H147L127 -188H178L200 -123Z" />
<glyph unicode="&#xe8;" glyph-name="egrave" horiz-adv-x="322" d="M199 196H293V133Q293 127 292 118T284 84T265 41T226 7T162 -8Q126 -8 99 7T60 43T41 85T33 121L32 136V411Q32 417 33 426T41 461T60 505T100 539T163 555Q200 555 226 541T265 505T285 464T292
428L293 414V255H126V136Q126 134 126 130T128 117T133 100T145 87T163 81Q180 81 189 94T198 122L199 136V196ZM126 411V334H199V411Q199 417 199 426T189 451T163 467Q147 467 138 453T127 425L126 411ZM50 727H155L207 637H129L50 727Z" />
<glyph unicode="&#xe9;" glyph-name="eacute" horiz-adv-x="322" d="M199 196H293V133Q293 127 292 118T284 84T265 41T226 7T162 -8Q126 -8 99 7T60 43T41 85T33 121L32 136V411Q32 417 33 426T41 461T60 505T100 539T163 555Q200 555 226 541T265 505T285 464T292
428L293 414V255H126V136Q126 134 126 130T128 117T133 100T145 87T163 81Q180 81 189 94T198 122L199 136V196ZM126 411V334H199V411Q199 417 199 426T189 451T163 467Q147 467 138 453T127 425L126 411ZM181 727H286L207 637H129L181 727Z" />
<glyph unicode="&#xea;" glyph-name="ecircumflex" horiz-adv-x="322" d="M199 196H293V133Q293 127 292 118T284 84T265 41T226 7T162 -8Q126 -8 99 7T60 43T41 85T33 121L32 136V411Q32 417 33 426T41 461T60 505T100 539T163 555Q200 555 226 541T265 505T285
464T292 428L293 414V255H126V136Q126 134 126 130T128 117T133 100T145 87T163 81Q180 81 189 94T198 122L199 136V196ZM126 411V334H199V411Q199 417 199 426T189 451T163 467Q147 467 138 453T127 425L126 411ZM108 727H215L284 637H192L161 672L131 637H39L108
727Z" />
<glyph unicode="&#xeb;" glyph-name="edieresis" horiz-adv-x="322" d="M199 196H293V133Q293 127 292 118T284 84T265 41T226 7T162 -8Q126 -8 99 7T60 43T41 85T33 121L32 136V411Q32 417 33 426T41 461T60 505T100 539T163 555Q200 555 226 541T265 505T285
464T292 428L293 414V255H126V136Q126 134 126 130T128 117T133 100T145 87T163 81Q180 81 189 94T198 122L199 136V196ZM126 411V334H199V411Q199 417 199 426T189 451T163 467Q147 467 138 453T127 425L126 411ZM44 637V735H137V637H44ZM185 637V735H278V637H185Z"
/>
<glyph unicode="&#xec;" glyph-name="igrave" horiz-adv-x="181" d="M40 0H141V547H40V0ZM-16 727H89L141 637H63L-16 727Z" />
<glyph unicode="&#xed;" glyph-name="iacute" horiz-adv-x="181" d="M40 0H141V547H40V0ZM92 727H197L118 637H40L92 727Z" />
<glyph unicode="&#xee;" glyph-name="icircumflex" horiz-adv-x="181" d="M40 0H141V547H40V0ZM37 727H144L213 637H121L90 672L60 637H-32L37 727Z" />
<glyph unicode="&#xef;" glyph-name="idieresis" horiz-adv-x="182" d="M141 0H40V547H141V0ZM-26 637V735H67V637H-26ZM115 637V735H208V637H115Z" />
<glyph unicode="&#xf1;" glyph-name="ntilde" horiz-adv-x="337" d="M174 457Q165 457 157 451T145 438L141 431V0H40V547H141V501Q142 502 156 516T189 543T223 555Q260 555 279 522T299 448V0H198V433Q198 457 174 457ZM125 653Q113 653 100 649T79 641L72 637V711Q96
730 125 730Q141 730 169 721T213 711Q225 711 238 715T259 723L266 727V653Q241 634 213 634Q198 634 170 643T125 653Z" />
<glyph unicode="&#xf2;" glyph-name="ograve" horiz-adv-x="321" d="M290 414V133Q290 127 290 118T282 84T263 41T224 7T160 -8Q124 -8 97 7T58 43T39 85T32 121L31 136V411Q31 417 31 426T39 461T58 505T97 539T160 555Q197 555 223 541T262 505T282 464T290
428V414ZM195 411Q194 411 195 416T194 430T189 447T179 461T160 467Q144 467 136 453T126 425V411V136Q127 136 126 131T127 117T132 100T142 87T160 81Q177 81 185 94T194 122L195 136V411ZM48 727H153L205 637H127L48 727Z" />
<glyph unicode="&#xf3;" glyph-name="oacute" horiz-adv-x="321" d="M290 414V133Q290 127 290 118T282 84T263 41T224 7T160 -8Q124 -8 97 7T58 43T39 85T32 121L31 136V411Q31 417 31 426T39 461T58 505T97 539T160 555Q197 555 223 541T262 505T282 464T290
428V414ZM195 411Q194 411 195 416T194 430T189 447T179 461T160 467Q144 467 136 453T126 425V411V136Q127 136 126 131T127 117T132 100T142 87T160 81Q177 81 185 94T194 122L195 136V411ZM179 727H284L205 637H127L179 727Z" />
<glyph unicode="&#xf4;" glyph-name="ocircumflex" horiz-adv-x="321" d="M290 414V133Q290 127 290 118T282 84T263 41T224 7T160 -8Q124 -8 97 7T58 43T39 85T32 121L31 136V411Q31 417 31 426T39 461T58 505T97 539T160 555Q197 555 223 541T262 505T282 464T290
428V414ZM195 411Q194 411 195 416T194 430T189 447T179 461T160 467Q144 467 136 453T126 425V411V136Q127 136 126 131T127 117T132 100T142 87T160 81Q177 81 185 94T194 122L195 136V411ZM107 727H214L283 637H191L160 672L130 637H38L107 727Z" />
<glyph unicode="&#xf5;" glyph-name="otilde" horiz-adv-x="321" d="M290 414V133Q290 127 290 118T282 84T263 41T224 7T160 -8Q124 -8 97 7T58 43T39 85T32 121L31 136V411Q31 417 31 426T39 461T58 505T97 539T160 555Q197 555 223 541T262 505T282 464T290
428V414ZM195 411Q194 411 195 416T194 430T189 447T179 461T160 467Q144 467 136 453T126 425V411V136Q127 136 126 131T127 117T132 100T142 87T160 81Q177 81 185 94T194 122L195 136V411ZM117 653Q105 653 92 649T71 641L64 637V711Q88 730 117 730Q133 730
161 721T205 711Q217 711 230 715T251 723L258 727V653Q233 634 205 634Q190 634 162 643T117 653Z" />
<glyph unicode="&#xf6;" glyph-name="odieresis" horiz-adv-x="321" d="M290 414V133Q290 127 290 118T282 84T263 41T224 7T160 -8Q124 -8 97 7T58 43T39 85T32 121L31 136V411Q31 417 31 426T39 461T58 505T97 539T160 555Q197 555 223 541T262 505T282 464T290
428V414ZM195 411Q194 411 195 416T194 430T189 447T179 461T160 467Q144 467 136 453T126 425V411V136Q127 136 126 131T127 117T132 100T142 87T160 81Q177 81 185 94T194 122L195 136V411ZM44 637V735H137V637H44ZM185 637V735H278V637H185Z" />
<glyph unicode="&#xf8;" glyph-name="oslash" horiz-adv-x="321" d="M100 -38H61L76 21Q56 40 45 68T32 116L31 136V411Q31 417 31 426T39 461T58 505T97 539T160 555Q185 555 212 546L222 585H259L244 526Q264 508 275 480T288 433L290 414V133Q290 127 290 118T282
84T263 41T224 7T160 -8Q132 -8 110 0L100 -38ZM126 411V213L187 450Q178 467 160 467Q144 467 136 453T126 425V411ZM160 81Q177 81 185 94T194 122L195 136V333L134 96Q142 81 160 81Z" />
<glyph unicode="&#xf9;" glyph-name="ugrave" horiz-adv-x="337" d="M163 90Q172 90 180 96T192 110L196 116V547H297V0H196V46Q195 45 181 31T148 4T114 -8Q77 -8 58 25T38 99V547H139V114Q139 90 163 90ZM55 727H160L212 637H134L55 727Z" />
<glyph unicode="&#xfa;" glyph-name="uacute" horiz-adv-x="337" d="M163 90Q172 90 180 96T192 110L196 116V547H297V0H196V46Q195 45 181 31T148 4T114 -8Q77 -8 58 25T38 99V547H139V114Q139 90 163 90ZM186 727H291L212 637H134L186 727Z" />
<glyph unicode="&#xfb;" glyph-name="ucircumflex" horiz-adv-x="337" d="M163 90Q172 90 180 96T192 110L196 116V547H297V0H196V46Q195 45 181 31T148 4T114 -8Q77 -8 58 25T38 99V547H139V114Q139 90 163 90ZM115 727H222L291 637H199L168 672L138 637H46L115 727Z" />
<glyph unicode="&#xfc;" glyph-name="udieresis" horiz-adv-x="337" d="M163 90Q172 90 180 96T192 110L196 116V547H297V0H196V46Q195 45 181 31T148 4T114 -8Q77 -8 58 25T38 99V547H139V114Q139 90 163 90ZM52 637V735H145V637H52ZM193 637V735H286V637H193Z" />
<glyph unicode="&#xff;" glyph-name="ydieresis" horiz-adv-x="310" d="M16 -194V-104Q24 -106 40 -106Q70 -103 87 -76T105 -16L12 547H111L151 211L153 183H157L159 211L199 547H298L201 -41Q193 -103 155 -149T61 -196L16 -194ZM38 637V735H131V637H38ZM179
637V735H272V637H179Z" />
<glyph unicode="&#x131;" glyph-name="dotlessi" horiz-adv-x="181" d="M141 0H40V547H141V0Z" />
<glyph unicode="&#x152;" glyph-name="OE" horiz-adv-x="480" d="M177 0Q136 0 107 15T64 53T43 97T34 136L33 151V584Q33 590 34 600T42 637T63 682T106 718T177 735H460V624H321V431H421V313H321V111H460V0H177ZM213 591Q210 638 177 638Q160 638 151 625T142
598L141 584V151Q141 145 141 136T151 112T177 97T203 110T212 138L213 151V591Z" />
<glyph unicode="&#x153;" glyph-name="oe" horiz-adv-x="486" d="M363 196H457V133Q457 127 456 118T448 84T429 41T390 7T326 -8Q274 -8 243 20Q210 -8 160 -8Q124 -8 97 7T58 43T39 85T32 121L31 136V411Q31 417 31 426T39 461T58 505T97 539T160 555Q212 555
244 526Q276 555 327 555Q364 555 390 541T429 505T449 464T456 428L457 414V255H290V133Q290 125 292 115T303 93T327 81Q344 81 353 94T362 122L363 136V196ZM195 411Q194 411 195 416T194 430T189 447T179 461T160 467Q144 467 136 453T126 425V411V136Q127
136 126 131T127 117T132 100T142 87T160 81Q177 81 185 94T194 122L195 136V411ZM290 414V334H363V411Q363 417 363 426T353 451T327 467Q306 467 298 449T290 414Z" />
<glyph unicode="&#x178;" glyph-name="Ydieresis" horiz-adv-x="344" d="M114 735L168 500L171 493H173L176 500L230 735H336L226 313V0H118V313L8 735H114ZM55 800V898H148V800H55ZM196 800V898H289V800H196Z" />
<glyph unicode="&#x2c6;" glyph-name="circumflex" horiz-adv-x="499" d="M196 727H303L372 637H280L249 672L219 637H127L196 727Z" />
<glyph unicode="&#x2c7;" glyph-name="caron" horiz-adv-x="499" d="M303 637H196L127 727H219L249 692L280 727H372L303 637Z" />
<glyph unicode="&#x2d8;" glyph-name="breve" horiz-adv-x="500" d="M308 729L360 683Q355 678 347 670T309 649T250 636Q219 636 192 648T152 672L140 683L194 729Q214 706 250 706Q267 706 281 712T302 724L308 729Z" />
<glyph unicode="&#x2d9;" glyph-name="dotaccent" horiz-adv-x="499" d="M199 634V735H300V634H199Z" />
<glyph unicode="&#x2da;" glyph-name="ring" horiz-adv-x="499" d="M175 664T175 694T197 744T250 764T302 744T324 694T303 644T250 624T197 644ZM213 708T213 694T224 670T250 659T275 669T287 694T276 718T250 729T225 719Z" />
<glyph unicode="&#x2db;" glyph-name="ogonek" horiz-adv-x="500" d="M170 -103Q170 -78 186 -53T220 -14L236 0H284Q279 -4 272 -11T252 -40T239 -83Q239 -103 254 -112T289 -121T331 -112L323 -179Q296 -188 272 -188Q225 -188 198 -163T170 -103Z" />
<glyph unicode="&#x2dc;" glyph-name="tilde" horiz-adv-x="500" d="M206 653Q194 653 181 649T160 641L153 637V711Q177 730 206 730Q222 730 250 721T294 711Q306 711 319 715T340 723L347 727V653Q322 634 294 634Q279 634 251 643T206 653Z" />
<glyph unicode="&#x2dd;" glyph-name="hungarumlaut" horiz-adv-x="500" d="M157 727H262L183 637H105L157 727ZM305 727H410L331 637H253L305 727Z" />
<glyph unicode="&#x2013;" glyph-name="endash" horiz-adv-x="394" d="M36 317V412H358V317H36Z" />
<glyph unicode="&#x2014;" glyph-name="emdash" horiz-adv-x="475" d="M36 317V412H439V317H36Z" />
<glyph unicode="&#x2018;" glyph-name="quoteleft" horiz-adv-x="151" d="M24 494V605L79 735H129L94 605H129V494H24Z" />
<glyph unicode="&#x2019;" glyph-name="quoteright" horiz-adv-x="151" d="M127 735V624L72 494H22L57 624H22V735H127Z" />
<glyph unicode="&#x201a;" glyph-name="quotesinglbase" horiz-adv-x="151" d="M127 111V0L72 -130H22L57 0H22V111H127Z" />
<glyph unicode="&#x201c;" glyph-name="quotedblleft" horiz-adv-x="305" d="M174 494V605L229 735H279L244 605H279V494H174ZM26 494V605L81 735H131L96 605H131V494H26Z" />
<glyph unicode="&#x201d;" glyph-name="quotedblright" horiz-adv-x="305" d="M131 735V624L76 494H26L61 624H26V735H131ZM279 735V624L224 494H174L209 624H174V735H279Z" />
<glyph unicode="&#x201e;" glyph-name="quotedblbase" horiz-adv-x="305" d="M131 111V0L76 -130H26L61 0H26V111H131ZM279 111V0L224 -130H174L209 0H174V111H279Z" />
<glyph unicode="&#x2022;" glyph-name="bullet" horiz-adv-x="324" d="M40 399Q40 449 75 484T163 520Q213 520 248 485T284 399Q284 347 249 312T163 276Q111 276 76 311T40 399Z" />
<glyph unicode="&#x2026;" glyph-name="ellipsis" horiz-adv-x="471" d="M26 0V111H131V0H26ZM183 0V111H288V0H183ZM340 0V111H445V0H340Z" />
<glyph unicode="&#x20ac;" glyph-name="Euro" horiz-adv-x="397" d="M26 401V468H78V584Q78 590 79 601T87 639T108 688T151 726T222 743T292 727T335 687T356 641T365 600L366 584V543H265V584Q264 584 265 589T264 603T258 619T246 632T224 638Q207 638 198
625T187 598L186 584V468H300V401H186V334H300V267H186V151Q186 145 187 136T197 112T224 97Q244 97 254 110T264 138L265 151V192H366V151Q366 145 365 134T357 96T336 47T293 9T222 -8T152 8T109 48T88 94T79 134L78 151V267H26V334H78V401H26Z" />
<glyph unicode="&#x2122;" glyph-name="trademark" horiz-adv-x="458" d="M87 684H36V735H193V684H142V401H87V684ZM329 401H304L265 620V401H215V735H282L315 579H318L351 735H418V401H367V620L329 401Z" />
<glyph unicode="&#xfb01;" glyph-name="fi" horiz-adv-x="377" d="M337 0H236V456H162V0H61V456H10V547H61V562Q61 584 61 596T65 633T76 674T97 707T132 733T185 742Q201 742 219 740T247 736L257 735V645Q237 651 203 651Q188 651 179 642T166 614T163 587T162
561V547H337V0Z" />
<glyph unicode="&#xfb02;" glyph-name="fl" horiz-adv-x="377" d="M337 0H236V649Q218 651 203 651T179 642T166 614T163 587T162 561V547H213V456H162V0H61V456H10V547H61V562Q61 584 61 596T65 633T76 674T97 707T132 733T185 742Q201 742 219 740T247 736L257
735H337V0Z" />
</font>
</defs>
</svg>
