<?xml version="1.0" encoding="UTF-8" standalone="no"?>
<!-- Generator: Adobe Illustrator 18.1.0, SVG Export Plug-In . SVG Version: 6.00 Build 0)  -->

<svg
   xmlns:dc="http://purl.org/dc/elements/1.1/"
   xmlns:cc="http://creativecommons.org/ns#"
   xmlns:rdf="http://www.w3.org/1999/02/22-rdf-syntax-ns#"
   xmlns:svg="http://www.w3.org/2000/svg"
   xmlns="http://www.w3.org/2000/svg"
   xmlns:sodipodi="http://sodipodi.sourceforge.net/DTD/sodipodi-0.dtd"
   xmlns:inkscape="http://www.inkscape.org/namespaces/inkscape"
   version="1.1"
   id="Layer_1"
   x="0px"
   y="0px"
   viewBox="0 0 48 48"
   enable-background="new 0 0 48 48"
   xml:space="preserve"
   inkscape:version="0.48.4 r9939"
   width="100%"
   height="100%"
   sodipodi:docname="ep-helpdesk.svg"><metadata
     id="metadata9"><rdf:RDF><cc:Work
         rdf:about=""><dc:format>image/svg+xml</dc:format><dc:type
           rdf:resource="http://purl.org/dc/dcmitype/StillImage" /><dc:title></dc:title></cc:Work></rdf:RDF></metadata><defs
     id="defs7"><clipPath
       clipPathUnits="userSpaceOnUse"
       id="clipPath3238"><path
         inkscape:connector-curvature="0"
         d="m 0,841.89 595.275,0 L 595.275,0 0,0 0,841.89 z"
         id="path3240" /></clipPath><clipPath
       clipPathUnits="userSpaceOnUse"
       id="clipPath3090"><path
         inkscape:connector-curvature="0"
         d="m 0,841.89 595.275,0 L 595.275,0 0,0 0,841.89 z"
         id="path3092" /></clipPath><clipPath
       clipPathUnits="userSpaceOnUse"
       id="clipPath3208"><path
         inkscape:connector-curvature="0"
         d="m 0,841.89 595.275,0 L 595.275,0 0,0 0,841.89 z"
         id="path3210" /></clipPath></defs><sodipodi:namedview
     pagecolor="#ffffff"
     bordercolor="#666666"
     borderopacity="1"
     objecttolerance="10"
     gridtolerance="10"
     guidetolerance="10"
     inkscape:pageopacity="0"
     inkscape:pageshadow="2"
     inkscape:window-width="640"
     inkscape:window-height="480"
     id="namedview5"
     showgrid="false"
     inkscape:zoom="9.8333332"
     inkscape:cx="22.217271"
     inkscape:cy="5.472298"
     inkscape:window-x="2631"
     inkscape:window-y="59"
     inkscape:window-maximized="0"
     inkscape:current-layer="g3206" /><g
     id="g3204"
     transform="matrix(0.42500022,0,0,-0.42500022,-156.91091,167.3178)"><g
       id="g3206"
       clip-path="url(#clipPath3208)"><g
         id="g3212"
         transform="translate(423.5215,306.0547)" /><g
         id="g3216"
         transform="translate(419.4795,329.707)" /><g
         id="g3224"
         transform="matrix(1.0136579,0,0,1.0136579,479.43427,338.42901)"><path
           d="m 0,0 c 0,28.689 -23.259,51.947 -51.947,51.947 -28.69,0 -51.949,-23.258 -51.949,-51.947 0,-28.689 23.259,-51.945 51.949,-51.945 C -23.259,-51.945 0,-28.689 0,0 z"
           style="fill:none;stroke:#8ca220;stroke-width:1.222;stroke-linecap:butt;stroke-linejoin:miter;stroke-miterlimit:10;stroke-opacity:1;stroke-dasharray:none"
           id="path3226"
           inkscape:connector-curvature="0" /></g><g
         id="g3035"
         transform="translate(0,-3.6161972)"><path
           inkscape:connector-curvature="0"
           d="m 398.74404,347.21736 c -1.24955,-0.88733 -2.29095,-2.0387 -3.081,-3.35051 -0.21127,-0.35083 -0.39217,-0.71908 -0.58825,-1.07861 -1.04643,-2.26784 -1.59125,-4.78831 -1.18649,-7.28524 0.0953,-0.58803 0.28473,-1.15688 0.42709,-1.73531 0.65343,-1.80161 1.72468,-3.32272 3.15881,-4.59108 0.90887,-0.80382 2.1533,-1.61321 3.21794,-2.18952 0.55033,-0.2979 1.12886,-0.5405 1.69329,-0.81076 0.56906,-0.19087 1.12606,-0.42237 1.70717,-0.57262 1.68749,-0.4363 3.42149,-0.45979 5.07346,0.15765 2.04048,0.76263 2.25348,0.53311 1.52094,1.01206 0.57339,0.55978 1.18205,1.08556 1.72015,1.67933 1.95464,2.15688 3.86294,5.14955 4.31367,8.07995 0.0953,0.61982 0.0439,1.25346 0.0659,1.88019 -0.16327,0.57687 -0.23683,1.18707 -0.48981,1.73062 -1.30282,2.79919 -4.51122,4.22792 -7.35622,4.82821 -0.96107,0.20278 -1.9481,0.25303 -2.92215,0.37954 -1.07046,-0.0295 -2.1461,0.0207 -3.21137,-0.0887 -2.19023,-0.22475 -4.41184,-0.77503 -6.45261,-1.60228 -0.93518,-0.37908 -1.80536,-0.90205 -2.70803,-1.35308 0,0 1.74416,1.39327 1.74416,1.39327 l 0,0 c 0.90141,0.43612 1.77204,0.94259 2.70422,1.30836 2.06454,0.81009 4.28975,1.3436 6.49707,1.55744 1.07972,0.10459 2.16895,0.0507 3.25343,0.0761 0.98828,-0.13165 1.98986,-0.18652 2.96483,-0.39497 2.92989,-0.62641 6.20337,-2.10322 7.55183,-4.97832 0.2649,-0.56481 0.34473,-1.19912 0.5171,-1.79868 -0.0198,-0.64512 0.0358,-1.29697 -0.0592,-1.93536 -0.4372,-2.937 -2.36413,-6.01663 -4.29249,-8.205 -0.52848,-0.59974 -1.12541,-1.13551 -1.68812,-1.70326 -1.44116,-0.94101 -3.66748,-2.64365 -5.54836,-3.2946 -2.39079,-0.82741 -4.59077,-0.3387 -6.86449,0.5517 -0.56671,0.27775 -1.14752,0.52842 -1.70013,0.83327 -1.08267,0.59725 -2.32373,1.41599 -3.24885,2.23971 -1.46041,1.30035 -2.55756,2.85262 -3.23348,4.69023 -0.15127,0.58834 -0.34963,1.16656 -0.45383,1.76504 -0.43868,2.51964 0.0632,5.0754 1.08335,7.38756 0.45212,0.86036 0.64992,1.30768 1.20981,2.09811 0.64788,0.91465 1.45285,1.70534 2.32017,2.4095 0,0 2.34053,0.91004 2.34053,0.91004 z"
           id="path3005"
           style="fill:#f05d00;fill-opacity:1" /><path
           inkscape:connector-curvature="0"
           d="m 398.04835,336.38418 c 0.18008,2.47653 0.56109,4.93283 0.94807,7.38393 0.50813,3.30263 1.52926,6.43897 3.14396,9.37333 0.40626,0.73829 0.86956,1.44394 1.30431,2.16594 2.84035,4.33094 5.96096,8.48536 9.42264,12.34459 0.69802,0.77816 1.4245,1.53046 2.13673,2.29571 1.61947,1.60049 2.47911,2.52894 4.22695,3.95748 0.65608,0.53626 1.31569,1.07534 2.03431,1.52504 1.91125,1.19599 4.43005,2.88507 6.83977,3.44204 0.71533,0.16532 1.458,0.1758 2.18699,0.26372 0.76584,-0.11086 1.55354,-0.12061 2.29754,-0.33289 3.92129,-1.11881 6.84421,-4.34629 9.27033,-7.42202 0.68405,-0.86722 1.30576,-1.78146 1.95865,-2.67217 2.73121,-4.08473 5.17909,-8.42008 6.61995,-13.13889 0.27198,-0.89069 0.46832,-1.8026 0.70249,-2.7039 0.85359,-4.20787 1.00622,-8.54193 0.56238,-12.80925 -0.0595,-0.57263 -0.15143,-1.14145 -0.22713,-1.7122 -0.28379,-1.18751 -0.30764,-2.50428 -0.83507,-3.62706 0,0 -3.09618,-1.34128 -3.09618,-1.34128 l 0,0 c 0.0612,0.0582 0.14327,0.10075 0.18369,0.17496 0.0702,0.12869 0.33757,1.07808 0.34364,1.10085 0.26207,0.98429 0.2858,1.19189 0.50766,2.27418 0.0898,0.57126 0.19786,1.13994 0.26958,1.71374 0.52962,4.23832 0.38996,8.55736 -0.45236,12.74545 -0.22973,0.89376 -0.42166,1.79804 -0.68917,2.68129 -1.42106,4.69183 -3.83008,9.01708 -6.52979,13.08572 -0.64842,0.88471 -1.26359,1.79461 -1.94529,2.65412 -2.39953,3.02546 -5.33059,6.17569 -9.2324,7.17322 -0.7337,0.18757 -1.50503,0.17259 -2.25754,0.25889 -6.74252,-0.99259 2.44835,0.51107 -4.19782,-1.0745 -0.24952,-0.0595 0.84607,0.57775 0.64249,0.42222 -0.67814,-0.51805 -1.40099,-0.97743 -2.06721,-1.51059 -1.77184,-1.41797 -2.63434,-2.34323 -4.27079,-3.94216 -0.71662,-0.76296 -1.4479,-1.5125 -2.14982,-2.28891 -3.45736,-3.82435 -6.56194,-7.95424 -9.37692,-12.2671 -0.43139,-0.71105 -0.89122,-1.40571 -1.29418,-2.13309 -1.62832,-2.93927 -2.61372,-5.94444 -3.12202,-9.25503 -0.37238,-2.42173 -0.76513,-4.85281 -0.84961,-7.30493 0,0 -3.00883,-1.50045 -3.00883,-1.50045 z"
           id="path3021"
           style="fill:#f05d00;fill-opacity:1" /><path
           inkscape:connector-curvature="0"
           d="m 447.23778,341.03124 c -0.68402,0.12308 -1.34504,0.10511 -2.01738,-0.0925 -0.33692,-0.099 -0.99493,-0.72406 -0.98527,-0.37302 0.0103,0.37486 1.10683,0.89112 0.98972,0.53487 -0.15953,-0.48533 -0.76517,-0.67711 -1.14776,-1.01566 -0.35683,-0.47725 -0.75659,-0.92524 -1.0705,-1.43176 -1.53743,-2.48079 -2.46173,-5.76743 -2.23575,-8.69104 0.0563,-0.72873 0.26569,-1.43745 0.39853,-2.15617 0.27856,-0.63049 0.47718,-1.30276 0.83567,-1.89148 1.05994,-1.74062 2.81119,-3.00965 4.79626,-3.47056 1.87805,-0.43606 2.5291,-0.17245 4.41968,0.0765 0.76346,0.27561 1.53599,0.52726 2.29037,0.82683 0.0866,0.0344 0.14913,0.11191 0.22148,0.17066 0.65967,0.53574 1.36066,1.02505 1.97447,1.61275 1.09792,1.05121 2.1823,2.40408 2.82458,3.79942 0.28272,0.61421 0.40483,1.2903 0.60725,1.93544 -0.009,0.61094 0.0961,1.23458 -0.0282,1.83281 -0.51739,2.4901 -3.07951,4.29982 -5.1492,5.44294 -0.52931,0.29234 -1.08706,0.52993 -1.63059,0.79489 -1.89498,0.73532 -0.98205,0.4153 -2.73296,0.97653 0,0 1.99105,1.3507 1.99105,1.3507 l 0,0 c 1.73044,-0.60208 0.82596,-0.2628 2.70771,-1.033 0.54276,-0.27431 1.09928,-0.52292 1.62826,-0.82292 2.13334,-1.20986 4.7251,-3.06743 5.27608,-5.63896 0.13329,-0.62206 0.0294,-1.27202 0.0441,-1.90803 -0.20203,-0.6654 -0.32173,-1.36161 -0.60608,-1.99622 -0.31573,-0.70462 -0.72753,-1.36779 -1.18122,-1.99256 -2.00206,-2.75704 -4.71673,-4.43781 -7.75267,-5.93206 -0.73703,-0.36276 -1.55479,-0.53091 -2.33219,-0.79637 -1.92815,-0.21868 -2.59955,-0.47424 -4.50572,0.002 -2.02742,0.50676 -3.81181,1.83929 -4.88915,3.62828 -0.36496,0.60604 -0.56706,1.29629 -0.85059,1.94443 -0.13621,0.73454 -0.34845,1.45898 -0.40861,2.20361 -0.23783,2.9434 0.64243,6.25619 2.12468,8.79507 0.30083,0.51527 0.68516,0.97701 1.02774,1.46552 0.36826,0.3508 0.68278,0.76852 1.10478,1.05243 1.45167,0.97663 3.23317,2.18164 5.09649,2.31656 0.45822,0.0332 0.79455,-0.0375 1.23423,-0.10299 0,0 -2.06933,-1.41719 -2.06933,-1.41719 z"
           id="path3023"
           style="fill:#f05d00;fill-opacity:1" /><path
           inkscape:connector-curvature="0"
           d="m 448.55117,332.99003 c -0.475,-0.67958 -0.60115,-1.49452 -0.32708,-2.28255 0.056,-0.16087 0.14059,-0.31026 0.2109,-0.4654 0.24752,-0.35757 0.54133,-0.74794 1.01303,-0.80446 0.12513,-0.015 0.25625,0.004 0.37546,0.0445 0.13164,0.0452 0.48664,0.26988 0.3618,0.20836 -0.58618,-0.2889 -1.16432,-0.59386 -1.74648,-0.89078 0.88373,1.08592 1.30487,2.45104 1.58387,3.80215 0.0507,0.39943 0.29126,1.29411 -0.29394,1.47495 -0.28487,0.088 -0.61215,-0.0461 -0.87315,-0.11164 -0.92891,-0.36292 -0.45548,-0.1516 -1.4151,-0.64546 0,0 1.9152,1.53104 1.9152,1.53104 l 0,0 c 0.9982,0.47766 0.50259,0.27881 1.48181,0.60888 0.40682,0.0471 0.63905,0.14696 1.01305,-0.056 0.62567,-0.33963 0.49347,-1.15891 0.39519,-1.72374 -0.26844,-1.38645 -0.70435,-2.76183 -1.50732,-3.93777 -0.83668,-0.5329 -1.65536,-1.09515 -2.51003,-1.5987 -0.12748,-0.0751 -0.27721,-0.11463 -0.42435,-0.13014 -0.69556,-0.0733 -1.19138,0.48714 -1.53222,1.00767 -0.0765,0.16765 -0.16684,0.32964 -0.22953,0.50293 -0.29819,0.82453 -0.24589,1.70734 0.2044,2.46412 0,0 2.3045,1.00206 2.3045,1.00206 z"
           id="path3025"
           style="fill:#f05d00;fill-opacity:1" /><path
           inkscape:connector-curvature="0"
           d="m 452.25971,331.57141 c 0.56351,-1.35775 0.92642,-2.82549 1.03135,-4.32443 0.0327,-0.4664 0.0231,-0.93537 0.0346,-1.40305 -0.0575,-2.13546 -0.4208,-4.15435 -1.57712,-5.89879 -0.84603,-1.2763 -1.3532,-1.59811 -2.46787,-2.61211 -0.56601,-0.41414 -1.11759,-0.85485 -1.69804,-1.24244 -1.99305,-1.33088 -3.47175,-2.26859 -5.47942,-3.31997 -1.36376,-0.71417 -2.85208,-1.43536 -4.29712,-1.91427 -0.76324,-0.25295 -1.54771,-0.41472 -2.32155,-0.62207 -0.84596,-0.11609 -1.68782,-0.28083 -2.53787,-0.34825 -1.98997,-0.15785 -3.92797,-0.0738 -5.91573,0.0956 -2.11919,0.18069 -4.41256,0.50642 -6.50917,0.89148 -1.04289,0.19152 -2.07839,0.43155 -3.11758,0.64733 -3.64056,1.00115 -1.89528,0.44383 -5.24235,1.64546 0,0 1.43352,1.10592 1.43352,1.10592 l 0,0 c 3.2998,-1.21914 1.57647,-0.65432 5.17709,-1.66631 1.03404,-0.21664 2.06402,-0.45984 3.10212,-0.64991 2.09275,-0.38315 4.40093,-0.69946 6.51696,-0.86328 2.00973,-0.15559 3.93407,-0.21524 5.94234,-0.0326 0.8513,0.0774 1.69357,0.25183 2.54036,0.37775 0.77203,0.21452 1.55466,0.38486 2.31609,0.64356 1.43617,0.48795 2.93177,1.21789 4.28758,1.93525 0.68811,0.36408 1.35857,0.76972 2.04202,1.14492 0.13002,0.0713 0.27386,0.11061 0.3979,0.19454 0.57123,0.3865 1.1227,0.80944 1.68405,1.21416 1.09913,0.97553 1.61388,1.30025 2.45959,2.53063 1.1689,1.70059 1.55007,3.6662 1.60423,5.77729 -0.0116,0.45885 -0.002,0.91907 -0.0348,1.37655 -0.1067,1.46456 -0.47087,2.90794 -1.07941,4.20457 0,0 1.70827,1.1125 1.70827,1.1125 z"
           id="path3027"
           style="fill:#f05d00;fill-opacity:1" /><path
           transform="matrix(2.35294,0,0,-2.35294,369.20195,393.68874)"
           inkscape:connector-curvature="0"
           d="m 18.353282,33.880508 c 0.545565,-0.307106 -0.342675,0.203977 -0.520809,0.293179 -0.08566,0.04289 0.159115,-0.106737 0.237936,-0.161181 0.234997,-0.162318 0.463866,-0.332269 0.691676,-0.504426 0.393338,-0.272729 0.625606,-0.442075 1.183962,-0.673872 0.08584,-0.03564 0.109592,0.161499 0.08015,0.282916 -0.03633,0.149823 -0.160101,0.334494 -0.234001,0.460021 -0.162617,0.249819 -0.351934,0.481669 -0.517474,0.729355 -0.05787,0.08658 -0.173457,0.238686 -0.157611,0.355944 0.196084,-0.357118 0.01527,0.0085 -0.73921,0.338623 -0.07123,0.03116 0.117699,-0.101726 0.173802,-0.155552 0.187347,-0.179744 0.356887,-0.378301 0.531843,-0.569821 0.378986,-0.428204 0.812574,-0.628648 1.36662,-0.89323 0.07394,-0.03531 0.183648,0.0731 0.213258,0.118386 0.02364,0.03616 0.03186,0.08032 0.04779,0.120486 0.02978,0.0042 -0.0058,0.157197 0.05224,0.171383 0.03221,0.0079 0.295633,-0.16119 0.239795,-0.133431 -0.664668,0.330433 -0.879617,0.526521 -0.332625,0.100155 0.277561,-0.209086 0.513443,-0.469019 0.78943,-0.679798 0.05078,-0.03878 0.103412,-0.07619 0.160707,-0.104466 0.346705,-0.171097 0.67824,-0.386449 1.049903,-0.492963 0.06103,-0.01749 0.06384,0.109751 0.09577,0.164626 0.0077,0.07853 0.02395,0.156697 0.023,0.235597 -0.0057,0.470891 -0.227482,1.060013 -0.376494,1.51019 -0.01586,0.05171 -0.03349,0.102904 -0.04759,0.155117 -0.05105,0.189039 0.05901,-0.09373 -0.03595,-0.05615 -0.299004,0.118339 -0.553071,0.331368 -0.847007,0.461788 -0.04282,0.019 0.05229,-0.07791 0.07464,-0.119084 0.0252,-0.04643 0.04515,-0.09552 0.06773,-0.143276 0.0186,-0.04889 0.0383,-0.09737 0.0558,-0.146664 0.01534,-0.04323 0.02834,-0.08725 0.04269,-0.130816 0.0093,-0.02821 0.01957,-0.05609 0.0282,-0.0845 0.003,-0.0099 -0.0028,-0.02615 0.0067,-0.03035 1.018119,-0.451857 1.04513,-0.737952 0.935758,-0.264937 -0.05944,0.277845 -0.229817,0.525394 -0.266309,0.808939 -0.0034,0.02667 -0.01881,0.07952 0.0081,0.08027 0.02728,7.6e-4 0.01302,-0.053 0.01952,-0.0795 -1.010889,0.521141 -0.980322,0.637901 -0.667586,0.244664 0.219794,-0.27637 0.437214,-0.555363 0.644689,-0.84118 0.240956,-0.325378 0.211215,-0.322088 0.991046,-0.407769 0.08751,-0.0096 -0.08896,0.151938 -0.133259,0.228015 -0.06131,0.105301 -0.122898,0.210444 -0.183561,0.31612 -0.206711,0.360093 -0.241838,0.426159 -0.446553,0.794013 -0.117717,0.204301 -0.294993,0.520271 -0.428874,0.723535 -0.02171,0.03296 -0.187203,0.283568 -0.268802,0.32406 -0.32742,0.162475 -0.646176,0.360574 -1.001357,0.446881 -0.06433,0.01563 -0.01954,-0.130957 -0.02931,-0.196435 0.0029,-0.307919 0.206277,-0.877321 -8.98e-4,-1.140142 -0.02937,-0.03726 -0.07749,-0.05477 -0.116241,-0.08216 -0.05016,-0.004 -0.100686,-0.01913 -0.150476,-0.01189 -0.162144,0.02361 -0.456886,0.228283 -0.332212,0.1681 0.960421,-0.463616 0.865746,-0.574154 0.511443,-0.104355 -0.281652,0.366823 -0.343793,0.346469 -1.09202,0.527317 -0.05409,0.01307 0.02518,-0.108727 0.04471,-0.160829 0.05727,-0.15277 0.150525,-0.316369 0.225637,-0.458486 0.235406,-0.435941 0.489403,-0.86244 0.787156,-1.258934 0.303581,-0.09982 0.592805,-0.267202 0.910743,-0.299447 0.08717,-0.0088 -0.09258,0.148839 -0.141629,0.221442 -0.255838,0.378679 -0.533426,0.741991 -0.81551,1.101251 -0.369029,0.377498 -0.405483,0.444629 -1.171293,0.737712 -0.05494,0.02103 -0.07198,-0.09947 -0.07883,-0.157896 -0.02835,-0.241969 0.191727,-0.711747 0.275234,-0.929043 0.143219,-0.339906 0.289911,-0.678307 0.428564,-1.020119 0.05284,-0.13027 0.123098,-0.274366 0.137602,-0.418852 0.003,-0.02961 -0.0095,-0.05875 -0.01422,-0.08813 -0.01838,0.0054 -0.03821,0.0072 -0.05513,0.0162 -0.04532,0.02404 -0.175223,0.106641 -0.130178,0.08209 0.239084,-0.130305 0.469851,-0.275973 0.712518,-0.399475 0.08389,-0.0427 -0.158645,0.10154 -0.235076,0.156487 -0.146199,0.105106 -0.328471,0.257298 -0.468186,0.371287 -0.461477,0.34267 -0.478677,0.368221 -1.275692,0.759869 -0.03989,0.0196 -0.09401,0.0056 -0.132216,-0.01713 -0.148614,-0.08831 -0.124863,-0.305327 -0.12104,-0.444367 0.01566,-0.166271 0.05288,-0.329055 0.09497,-0.490256 0,0 0.966606,-0.458855 0.966606,-0.458855 l 0,0 c -0.04871,0.154496 -0.09075,0.311249 -0.112327,0.472182 -0.0057,0.06375 -0.02619,0.186071 -0.0028,0.255839 0.02612,0.07803 0.134278,0.02073 0.134128,0.02083 -0.237584,0.157442 -0.488943,0.293035 -0.733415,0.439552 0.0697,-0.04864 0.139402,-0.09727 0.209103,-0.14591 0.222225,-0.183344 0.442126,-0.393122 0.690987,-0.540807 0.366191,-0.217315 0.730871,-0.438468 1.110182,-0.631973 0.05406,-0.02758 0.120436,-0.03711 0.180149,-0.02629 0.04424,0.008 0.073,0.05251 0.109504,0.07877 0.0087,0.04311 0.02791,0.08539 0.02608,0.129336 -0.0067,0.16094 -0.08146,0.297234 -0.142082,0.442055 -0.14274,0.341003 -0.2896,0.680223 -0.435238,1.019994 -0.08804,0.230261 -0.16805,0.423984 -0.237123,0.658618 -0.01849,0.06281 -0.02495,0.128837 -0.04458,0.191301 -0.0024,0.0077 -0.01298,0.0095 -0.01985,0.01373 -0.266725,0.16264 -0.525127,0.339952 -0.800898,0.486733 -0.06737,0.03586 0.11431,-0.101142 0.171465,-0.151713 0.216024,-0.267933 0.425458,-0.537786 0.624723,-0.818547 0.06388,-0.09 0.127871,-0.179939 0.189989,-0.271164 0.04645,-0.06822 0.06642,-0.162241 0.135688,-0.207123 0.330482,-0.214137 0.694857,-0.370766 1.042285,-0.556148 -0.334944,0.36789 -0.568199,0.816735 -0.81206,1.246301 -0.127324,0.237266 -0.119307,0.211546 -0.221038,0.437693 -0.01832,0.04072 -0.01393,0.100364 -0.05221,0.123344 -0.312659,0.187708 -0.652008,0.326905 -0.976134,0.494032 -0.05284,0.02724 0.348345,-0.130144 0.139165,-0.111529 0.394334,-0.555379 0.39576,-0.434679 1.285418,-0.981538 0.183428,-0.11275 0.359493,-0.141644 0.559109,-0.05543 0.04662,0.04197 0.103449,0.07483 0.139867,0.125902 0.228809,0.320894 0.03679,0.816662 0.02207,1.172383 -0.04787,0.449547 0.01871,0.09959 -0.900802,0.632939 -0.04483,0.026 0.09358,-0.04813 0.130514,-0.08449 0.267036,-0.262856 0.40994,-0.630189 0.612697,-0.937124 0.369866,-0.671371 0.07894,-0.143874 0.436477,-0.790618 0.05772,-0.104416 0.114055,-0.209611 0.173033,-0.313323 0.04072,-0.0716 0.05723,-0.167253 0.126019,-0.212553 0.324215,-0.2135 0.677857,-0.379628 1.027951,-0.547355 0.03674,-0.0176 -0.05292,0.06194 -0.07938,0.0929 -0.03494,0.04717 -0.275557,0.372326 -0.293625,0.395283 -0.0603,0.07662 -0.12662,0.148391 -0.186675,0.225208 -0.05712,0.07306 -0.110067,0.149277 -0.164686,0.224219 -0.04508,0.06185 -0.07166,0.142332 -0.134406,0.18616 -0.328817,0.229682 -0.685214,0.41711 -1.027822,0.625665 -0.03527,-0.02145 -0.08271,-0.03013 -0.105797,-0.06434 -0.04607,-0.06826 0.0105,-0.265342 0.02303,-0.307864 0.06178,-0.209577 0.170712,-0.403822 0.220814,-0.617479 0.123854,-0.475277 -0.0044,-0.104425 1.009294,-0.629718 0.0075,-0.0039 -0.01681,0.0067 -0.02111,0.01394 -0.01508,0.02544 -0.02534,0.05354 -0.03538,0.08135 -0.03438,0.09526 -0.05551,0.195025 -0.09586,0.288301 -0.006,0.01481 -0.103561,0.265514 -0.127126,0.282769 -0.174756,0.127956 -0.891078,0.892221 -1.071013,0.547896 -0.0385,-0.07368 0.129974,-0.184547 0.06763,-0.240047 0.107504,-0.298138 0.08373,-0.222189 0.18608,-0.553385 0.110886,-0.35882 0.233521,-0.726076 0.197946,-1.107151 -0.189317,-0.356854 -0.05355,-0.04085 0.765275,-0.583067 0.05506,-0.03646 -0.121247,0.05416 -0.175698,0.09152 -0.289293,0.198478 -0.517119,0.477004 -0.798255,0.685634 -0.587396,0.480148 -0.404318,0.354124 -1.460959,0.94457 -0.210858,0.117826 -0.392256,0.06861 -0.397716,-0.178459 -0.01297,-0.04486 -0.01084,-0.09664 -0.07138,-0.106206 -0.02917,-0.0046 -0.112484,0.02767 -0.08785,0.01138 0.250299,-0.165492 0.512423,-0.31244 0.77168,-0.463513 0.05873,-0.03422 -0.118367,0.06846 -0.169868,0.112828 -0.0609,0.05246 -0.110081,0.117165 -0.165122,0.175747 -0.176216,0.191207 -0.3483,0.385468 -0.527089,0.574284 -0.05356,0.05656 -0.09486,0.127898 -0.160488,0.169863 -0.342424,0.218969 -0.688321,0.436681 -1.056681,0.608475 -0.04409,0.02056 -0.09089,-0.03472 -0.136343,-0.05207 -0.0086,-0.03352 -0.02936,-0.06614 -0.02578,-0.100566 0.01075,-0.103509 0.113575,-0.270154 0.162962,-0.344894 0.163324,-0.247171 0.356316,-0.475344 0.521086,-0.72164 0.04826,-0.07702 0.100414,-0.151729 0.144774,-0.231057 0.03439,-0.06151 0.05906,-0.128009 0.09111,-0.190768 0.01526,-0.02988 0.03755,-0.05609 0.05072,-0.08695 0.0017,-0.004 -0.01639,1.32e-4 -0.01272,-0.0021 0.266671,-0.162852 0.534956,-0.323076 0.804374,-0.481343 0.05805,-0.0341 -0.113444,0.07252 -0.170165,0.108782 -0.703234,0.532121 -1.42176,1.040336 -2.219679,1.428155 0,0 0.83318,-0.666464 0.83318,-0.666464 z"
           id="path3029"
           style="fill:#f05d00;fill-opacity:1" /><path
           transform="matrix(2.35294,0,0,-2.35294,369.20195,393.68874)"
           inkscape:connector-curvature="0"
           d="m 12.556038,24.785862 c 1.471373,-0.874909 0.673598,-0.404519 0.397735,-0.125804 -0.168218,0.169957 -0.294343,0.357778 -0.40823,0.566053 -0.02127,0.0786 -0.07506,0.188831 -0.02097,0.27379 0.135141,0.212237 0.604812,0.100097 0.786936,0.06009 0.689258,-0.344361 -0.279586,0.19248 -0.435276,0.256838 -0.07627,0.03153 0.128474,-0.104581 0.184058,-0.165579 0.158674,-0.17413 0.239186,-0.373262 0.31044,-0.592616 0.0018,-0.05758 0.01454,-0.115843 0.0055,-0.172733 -0.03877,-0.243527 -0.312146,-0.376808 -0.531291,-0.407761 -0.07255,-0.01025 -0.146534,-0.0019 -0.219801,-0.0029 -0.227972,0.04835 -0.245798,0.0369 -0.458108,0.144658 -0.07705,0.03911 -0.299945,0.171451 -0.222789,0.132543 1.195071,-0.602636 0.783026,-0.52843 0.575742,-0.230404 -0.02886,0.0415 -0.04305,0.09147 -0.06458,0.137204 0.0023,0.03902 -0.0072,0.08058 0.0068,0.117048 0.08006,0.207754 0.42946,0.237776 0.608219,0.230203 0.0704,-0.003 0.139634,-0.01899 0.209451,-0.02848 0.335191,-0.138082 0.743342,-0.314295 -0.581531,0.34786 -0.04328,0.02163 0.07539,-0.06104 0.108979,-0.09586 0.07122,-0.07385 0.106532,-0.148559 0.130955,-0.245383 0,0 0.962284,-0.468812 0.962284,-0.468812 l 0,0 c -0.009,0.07264 -0.01085,0.126894 -0.04284,0.196214 -0.02344,0.05079 -0.12874,0.203463 -0.17073,0.229843 -0.954464,0.599646 -0.695693,0.510878 -1.256095,0.665401 -0.07348,0.0042 -0.146874,0.01511 -0.220426,0.01259 -0.248002,-0.0085 -0.581908,-0.09217 -0.690503,-0.348817 -0.02175,-0.0514 -0.01866,-0.110051 -0.02799,-0.165076 0.01823,-0.05656 0.02655,-0.117335 0.05468,-0.169681 0.219522,-0.408526 1.060221,-0.750695 1.21635,-0.844683 0.222483,-0.133932 0.458416,-0.221001 0.719645,-0.231753 0.07877,0.0079 0.158994,0.0068 0.236308,0.02383 0.264517,0.05829 0.542735,0.23896 0.601417,0.521083 0.01369,0.06582 0.0038,0.134405 0.0056,0.201608 -0.0196,0.0711 -0.03352,0.144028 -0.0588,0.213315 -0.275698,0.755348 -1.07717,1.115488 -1.794655,1.373455 -0.09151,0.01373 -0.182104,0.03688 -0.274541,0.04118 -0.254582,0.01184 -0.645696,-0.06321 -0.65062,-0.391531 -9.28e-4,-0.06186 0.02298,-0.121577 0.03447,-0.182365 0.0322,-0.0655 0.05944,-0.133682 0.0966,-0.196506 0.41057,-0.694242 0.998423,-0.943484 1.716808,-1.336199 0,0 -0.839219,0.658121 -0.839219,0.658121 z"
           id="path3031"
           style="fill:#f05d00;fill-opacity:1" /></g></g></g></svg>