<?xml version="1.0" encoding="UTF-8" standalone="no"?>
<!-- Generator: Adobe Illustrator 18.1.0, SVG Export Plug-In . SVG Version: 6.00 Build 0)  -->

<svg
   xmlns:dc="http://purl.org/dc/elements/1.1/"
   xmlns:cc="http://creativecommons.org/ns#"
   xmlns:rdf="http://www.w3.org/1999/02/22-rdf-syntax-ns#"
   xmlns:svg="http://www.w3.org/2000/svg"
   xmlns="http://www.w3.org/2000/svg"
   xmlns:sodipodi="http://sodipodi.sourceforge.net/DTD/sodipodi-0.dtd"
   xmlns:inkscape="http://www.inkscape.org/namespaces/inkscape"
   version="1.1"
   id="Layer_1"
   x="0px"
   y="0px"
   viewBox="0 0 48 48"
   enable-background="new 0 0 48 48"
   xml:space="preserve"
   inkscape:version="0.48.4 r9939"
   width="100%"
   height="100%"
   sodipodi:docname="ep-talk.svg"><metadata
     id="metadata9"><rdf:RDF><cc:Work
         rdf:about=""><dc:format>image/svg+xml</dc:format><dc:type
           rdf:resource="http://purl.org/dc/dcmitype/StillImage" /><dc:title></dc:title></cc:Work></rdf:RDF></metadata><defs
     id="defs7"><clipPath
       clipPathUnits="userSpaceOnUse"
       id="clipPath3238"><path
         inkscape:connector-curvature="0"
         d="m 0,841.89 595.275,0 L 595.275,0 0,0 0,841.89 z"
         id="path3240" /></clipPath><clipPath
       clipPathUnits="userSpaceOnUse"
       id="clipPath3090"><path
         inkscape:connector-curvature="0"
         d="m 0,841.89 595.275,0 L 595.275,0 0,0 0,841.89 z"
         id="path3092" /></clipPath></defs><sodipodi:namedview
     pagecolor="#ffffff"
     bordercolor="#666666"
     borderopacity="1"
     objecttolerance="10"
     gridtolerance="10"
     guidetolerance="10"
     inkscape:pageopacity="0"
     inkscape:pageshadow="2"
     inkscape:window-width="640"
     inkscape:window-height="480"
     id="namedview5"
     showgrid="false"
     inkscape:zoom="6.9532167"
     inkscape:cx="36.093367"
     inkscape:cy="11.34985"
     inkscape:window-x="1902"
     inkscape:window-y="338"
     inkscape:window-maximized="0"
     inkscape:current-layer="Layer_1" /><g
     id="g3086"
     transform="matrix(0.43184098,0,0,-0.43184098,-100.99736,169.23011)"><g
       id="g3088"
       clip-path="url(#clipPath3090)"><g
         id="g3094"
         transform="translate(263.4326,356.2891)"><path
           d="m 0,0 c 7.41,0.996 14.648,2.963 22.027,4.158 5.164,0.838 12.7,3.944 17.506,0.805 4.168,-2.723 5.073,-10.652 6.031,-15.096 1.356,-6.297 3.821,-12.685 3.545,-19.191 -0.046,-1.102 2.112,-0.783 2.153,0.166 0.281,6.668 -2.185,13.146 -3.574,19.595 C 46.66,-4.783 45.756,2.111 41.856,5.574 38.05,8.955 32.227,7.623 27.694,6.797 18.541,5.131 9.406,2.777 0.193,1.539 -0.973,1.383 -1.445,-0.195 0,0"
           style="fill:#7fbea7;fill-opacity:1;fill-rule:nonzero;stroke:none"
           id="path3096"
           inkscape:connector-curvature="0" /></g><g
         id="g3098"
         transform="translate(262.9834,354.6816)"><path
           d="m 0,0 c 3.051,-3.518 4.449,-8.213 6.272,-12.439 1.928,-4.467 3.794,-8.934 5.261,-13.577 1.426,-4.507 0.449,-9.511 2.758,-13.855 0.447,-0.842 1.531,-1.311 2.45,-1.024 3.027,0.944 5.798,2.639 8.841,3.655 9.867,3.299 21.147,6.201 31.518,6.9 0.56,0.037 1.765,0.883 0.902,1.43 -1.277,0.81 -1.075,0.73 -2.529,1.166 -0.946,0.281 -2.508,-1.084 -1.217,-1.471 l 2.115,-0.949 c 0.301,0.478 0.602,0.955 0.902,1.432 -8.613,-0.582 -16.83,-3.129 -25.178,-5.147 -3.602,-0.871 -7.228,-1.756 -10.663,-3.176 -1.327,-0.549 -2.489,-1.111 -3.741,-1.789 -1.961,-1.062 -2.164,1.619 -2.469,2.797 -1.387,5.358 -1.386,10.481 -3.328,15.744 -1.473,3.992 -3.263,7.869 -4.934,11.782 C 5.521,-5.154 4.371,-1.852 1.941,0.951 1.287,1.705 -0.727,0.838 0,0"
           style="fill:#7fbea7;fill-opacity:1;fill-rule:nonzero;stroke:none"
           id="path3100"
           inkscape:connector-curvature="0" /></g><g
         id="g3102"
         transform="translate(270.6318,351.6094)"><path
           d="M 0,0 C 4.055,3.68 10.34,3.518 15.408,4.842 16.661,5.168 16.445,5.959 15.195,5.633 9.387,4.115 2.74,4.158 -1.941,-0.092 -2.465,-0.566 -0.41,-0.373 0,0"
           style="fill:#7fbea7;fill-opacity:1;fill-rule:nonzero;stroke:none"
           id="path3104"
           inkscape:connector-curvature="0" /></g><g
         id="g3106"
         transform="translate(270.2646,346.8086)"><path
           d="M 0,0 C 2.05,0.875 6.209,3.818 8.035,2.195 8.441,1.834 9.229,1.764 9.754,1.863 10.528,2.01 11.307,2.299 12.002,2.666 16.355,4.965 21,6.297 25.962,6.248 26.375,6.244 28.373,7.051 27.354,7.061 22.029,7.111 16.252,5.922 11.586,3.305 10.554,2.727 8.244,3.885 6.594,3.518 3.851,2.91 1.353,1.307 -1.207,0.213 -2.489,-0.336 -0.468,-0.199 0,0"
           style="fill:#7fbea7;fill-opacity:1;fill-rule:nonzero;stroke:none"
           id="path3108"
           inkscape:connector-curvature="0" /></g><g
         id="g3110"
         transform="translate(297.1631,346.668)"><path
           d="M 0,0 C 1.842,0.027 3.654,0.393 5.494,0.42 5.99,0.428 6.611,0.561 6.889,1.029 7.14,1.453 6.676,1.768 6.283,1.762 4.441,1.732 2.629,1.367 0.789,1.34 0.293,1.332 -0.328,1.201 -0.605,0.732 -0.856,0.307 -0.393,-0.006 0,0"
           style="fill:#7fbea7;fill-opacity:1;fill-rule:nonzero;stroke:none"
           id="path3112"
           inkscape:connector-curvature="0" /></g><g
         id="g3114"
         transform="translate(277.1875,336.9102)"><path
           d="m 0,0 c 5.163,1.256 10.281,2.654 15.564,3.324 0.998,0.125 1.789,1.289 0.311,1.102 C 10.397,3.732 5.091,2.289 -0.264,0.986 -1.544,0.674 -1.269,-0.309 0,0"
           style="fill:#7fbea7;fill-opacity:1;fill-rule:nonzero;stroke:none"
           id="path3116"
           inkscape:connector-curvature="0" /></g><g
         id="g3118"
         transform="translate(278.6113,327.8828)"><path
           d="M 0,0 C 0.845,-1.514 1.479,-3.133 2.321,-4.65 2.695,-5.322 4.756,-4.633 4.286,-3.787 3.444,-2.27 2.81,-0.65 1.965,0.863 1.59,1.537 -0.471,0.846 0,0"
           style="fill:#7fbea7;fill-opacity:1;fill-rule:nonzero;stroke:none"
           id="path3120"
           inkscape:connector-curvature="0" /></g><g
         id="g3122"
         transform="translate(280.3594,328.1211)"><path
           d="M 0,0 C 0.157,0.152 0.351,0.322 0.552,0.414 0.767,0.512 0.672,0.459 0.598,0.445 0.832,0.49 0.554,0.473 0.783,0.449 1.175,0.406 1.501,0.162 1.749,-0.129 2.382,-0.869 1.868,-1.732 1.13,-2.096 0.872,-2.223 0.456,-2.641 0.915,-2.816 1.391,-3 1.981,-2.801 2.411,-2.59 3.161,-2.221 3.948,-1.635 4.13,-0.77 4.267,-0.119 3.951,0.514 3.466,0.93 1.868,2.297 -0.671,1.205 -1.957,-0.035 -2.334,-0.396 -1.636,-0.555 -1.41,-0.551 -0.893,-0.543 -0.374,-0.359 0,0"
           style="fill:#7fbea7;fill-opacity:1;fill-rule:nonzero;stroke:none"
           id="path3124"
           inkscape:connector-curvature="0" /></g><g
         id="g3126"
         transform="translate(283.6768,328.541)"><path
           d="m 0,0 c 0.797,-0.609 1.529,-1.297 2.326,-1.904 0.391,-0.297 0.985,-0.182 1.403,-0.008 0.188,0.078 0.962,0.533 0.574,0.83 C 3.505,-0.475 2.773,0.213 1.977,0.82 1.587,1.117 0.992,1.002 0.573,0.828 0.386,0.752 -0.389,0.295 0,0"
           style="fill:#7fbea7;fill-opacity:1;fill-rule:nonzero;stroke:none"
           id="path3128"
           inkscape:connector-curvature="0" /></g><g
         id="g3130"
         transform="translate(286.3506,329.2988)"><path
           d="m 0,0 c 0.185,-1.191 0.211,-2.389 0.211,-3.592 0,-0.533 2.125,-0.17 2.125,0.569 0,1.203 -0.026,2.4 -0.211,3.591 C 2.031,1.172 -0.106,0.688 0,0"
           style="fill:#7fbea7;fill-opacity:1;fill-rule:nonzero;stroke:none"
           id="path3132"
           inkscape:connector-curvature="0" /></g><g
         id="g3134"
         transform="translate(289.6064,331.0313)"><path
           d="M 0,0 C 0.854,-1.293 1.615,-2.637 2.238,-4.057 2.627,-4.943 4.727,-4.318 4.363,-3.488 3.69,-1.953 2.876,-0.492 1.953,0.906 1.464,1.646 -0.576,0.873 0,0"
           style="fill:#7fbea7;fill-opacity:1;fill-rule:nonzero;stroke:none"
           id="path3136"
           inkscape:connector-curvature="0" /></g><g
         id="g3138"
         transform="translate(289.5635,329.8555)"><path
           d="M 0,0 C 0.726,0.514 1.586,0.66 2.443,0.832 2.782,0.898 3.47,1.25 3.349,1.703 3.22,2.184 2.469,2.072 2.129,2.004 0.906,1.76 -0.311,1.457 -1.344,0.725 -1.64,0.516 -1.973,0.07 -1.51,-0.18 -1.071,-0.416 -0.389,-0.275 0,0"
           style="fill:#7fbea7;fill-opacity:1;fill-rule:nonzero;stroke:none"
           id="path3140"
           inkscape:connector-curvature="0" /></g><g
         id="g3142"
         transform="translate(293.7471,332.0469)"><path
           d="M 0,0 C 0.676,-1.146 1.259,-2.336 1.691,-3.594 1.878,-4.135 3.98,-3.504 3.816,-3.023 3.384,-1.766 2.801,-0.576 2.125,0.568 1.795,1.127 -0.199,0.338 0,0"
           style="fill:#7fbea7;fill-opacity:1;fill-rule:nonzero;stroke:none"
           id="path3144"
           inkscape:connector-curvature="0" /></g><g
         id="g3146"
         transform="translate(297.3721,329.3359)"><path
           d="M 0,0 C 0.32,0.303 0.83,0.543 1.2,0.672 1.554,0.795 2.228,1.086 2.093,1.59 1.968,2.057 1.214,2.063 0.86,1.939 -0.083,1.609 -1.007,1.188 -1.742,0.494 -2.092,0.164 -1.941,-0.277 -1.502,-0.402 -0.986,-0.549 -0.383,-0.361 0,0"
           style="fill:#7fbea7;fill-opacity:1;fill-rule:nonzero;stroke:none"
           id="path3148"
           inkscape:connector-curvature="0" /></g><g
         id="g3150"
         transform="translate(297.209,332.1074)"><path
           d="M 0,0 C 0.774,-1.209 1.197,-2.582 1.821,-3.865 2.214,-4.674 4.296,-4.016 3.946,-3.297 3.271,-1.908 2.801,-0.438 1.963,0.869 1.53,1.543 -0.524,0.816 0,0"
           style="fill:#7fbea7;fill-opacity:1;fill-rule:nonzero;stroke:none"
           id="path3152"
           inkscape:connector-curvature="0" /></g><g
         id="g3154"
         transform="translate(300.7852,332.5977)"><path
           d="m 0,0 c -0.637,-1.027 -0.54,-2.703 0.43,-3.506 1.227,-1.017 3.657,-0.307 4.323,1.1 0.5,1.06 -0.004,2.437 -0.883,3.142 -1.349,1.08 -3.211,0.399 -4.081,-0.947 -0.282,-0.437 0.238,-0.693 0.6,-0.715 0.496,-0.027 1.114,0.168 1.396,0.604 C 1.842,-0.234 2.004,-0.012 2.019,0 2.2,0.143 1.985,0.002 1.923,-0.018 1.819,-0.051 1.729,-0.043 1.626,-0.027 1.839,-0.061 2.04,-0.225 2.245,-0.455 2.7,-0.965 2.935,-1.723 2.721,-2.383 2.688,-2.482 2.634,-2.516 2.577,-2.57 2.69,-2.461 2.448,-2.639 2.44,-2.645 2.333,-2.701 2.704,-2.582 2.323,-2.688 c 0.106,0.03 0.239,-0.021 0.086,0.055 -0.152,0.076 -0.254,0.221 -0.351,0.356 -0.412,0.576 -0.43,1.572 -0.062,2.166 0.273,0.439 -0.23,0.693 -0.6,0.715 C 0.908,0.631 0.272,0.438 0,0"
           style="fill:#7fbea7;fill-opacity:1;fill-rule:nonzero;stroke:none"
           id="path3156"
           inkscape:connector-curvature="0" /></g><g
         id="g3158"
         transform="translate(303.9619,332.7949)"><path
           d="m 0,0 c 1.023,-0.053 1.684,-0.652 2.043,-1.596 0.678,0.254 1.355,0.508 2.032,0.764 C 3.57,-0.1 3.277,0.713 2.898,1.512 2.273,1.207 1.647,0.9 1.021,0.596 2.359,-0.248 3.504,-1.338 5.034,-1.84 5.599,-2.025 6.405,-1.83 6.662,-1.238 7.203,0.012 7.029,1.16 6.399,2.34 5.928,3.221 3.914,2.402 4.46,1.383 c 0.415,-0.776 0.513,-1.528 0.159,-2.34 0.543,0.199 1.086,0.4 1.628,0.602 C 4.873,0.096 3.852,1.102 2.65,1.859 2.129,2.188 0.338,1.861 0.773,0.943 1.214,0.016 1.549,-0.938 2.136,-1.789 2.627,-2.502 4.523,-1.959 4.168,-1.025 3.589,0.494 2.379,1.523 0.719,1.607 0.195,1.635 -0.426,1.471 -0.662,0.943 -0.869,0.48 -0.475,0.023 0,0"
           style="fill:#7fbea7;fill-opacity:1;fill-rule:nonzero;stroke:none"
           id="path3160"
           inkscape:connector-curvature="0" /></g><g
         id="g3162"
         transform="translate(266.6543,349.9688)"><path
           d="m 0,0 c -1.913,-0.35 -4.688,-0.561 -6.007,-2.223 -1.949,-2.459 1.811,-7.48 2.666,-9.783 2.531,-6.812 3.942,-14.207 5.231,-21.336 0.425,-2.357 0.017,-10.424 3.054,-11.256 3.541,-0.966 9.168,2.246 12.389,3.313 6.828,2.264 13.781,4.097 20.605,6.347 1.141,0.377 7.647,2.018 6.797,4.545 -1.029,3.059 -5.257,4.012 -8.097,4.196 -0.584,0.037 -2.477,-0.983 -1.328,-1.057 1.472,-0.096 2.827,-0.416 4.207,-0.932 2.435,-0.908 5.113,-3.191 -0.473,-5.337 -4.318,-1.661 -8.877,-2.659 -13.293,-4.014 -4.068,-1.248 -8.094,-2.641 -12.137,-3.969 -1.74,-0.574 -3.488,-1.123 -5.238,-1.666 -3.197,-0.99 -2.943,1.272 -3.254,3.207 -1.268,7.877 -2.641,15.633 -4.763,23.336 -0.856,3.109 -1.866,6.002 -3.242,8.906 -0.511,1.078 -0.913,2.164 -1.259,3.305 -0.83,2.729 1.854,3.018 3.816,3.377 C 0.621,-0.869 1.474,0.27 0,0"
           style="fill:#7fbea7;fill-opacity:1;fill-rule:nonzero;stroke:none"
           id="path3164"
           inkscape:connector-curvature="0" /></g><g
         id="g3166"
         transform="translate(265.1367,342.7188)"><path
           d="M 0,0 C 0.921,0.014 1.828,0.197 2.748,0.213 3.229,0.221 3.858,0.574 3.912,1.098 3.97,1.656 3.358,1.846 2.919,1.84 1.997,1.824 1.09,1.641 0.17,1.627 -0.311,1.619 -0.94,1.266 -0.994,0.742 -1.052,0.184 -0.44,-0.008 0,0"
           style="fill:#7fbea7;fill-opacity:1;fill-rule:nonzero;stroke:none"
           id="path3168"
           inkscape:connector-curvature="0" /></g><g
         id="g3170"
         transform="translate(266.3184,338.5938)"><path
           d="M 0,0 C 1.295,0 2.58,0.012 3.862,0.215 4.305,0.285 4.963,0.496 5.046,1.023 5.124,1.523 4.458,1.693 4.087,1.635 2.984,1.461 1.882,1.424 0.768,1.424 0.263,1.424 -0.358,1.287 -0.622,0.799 -0.858,0.361 -0.421,0 0,0"
           style="fill:#7fbea7;fill-opacity:1;fill-rule:nonzero;stroke:none"
           id="path3172"
           inkscape:connector-curvature="0" /></g><g
         id="g3174"
         transform="translate(267.9775,334.4941)"><path
           d="m 0,0 c 0.819,0.154 1.639,0.164 2.469,0.164 0.508,0 1.066,0.139 1.503,0.402 C 4.309,0.771 4.262,1.002 3.855,1.002 2.693,1.002 1.551,0.959 0.406,0.744 0.05,0.678 -0.646,0.543 -0.844,0.18 -1.021,-0.146 -0.084,-0.016 0,0"
           style="fill:#7fbea7;fill-opacity:1;fill-rule:nonzero;stroke:none"
           id="path3176"
           inkscape:connector-curvature="0" /></g><g
         id="g3178"
         transform="translate(270.7236,328.5684)"><path
           d="m 0,0 1.901,0 c 0.478,0 1.111,0.16 1.404,0.576 0.289,0.412 -0.243,0.61 -0.572,0.61 l -1.901,0 C 0.354,1.186 -0.279,1.025 -0.572,0.609 -0.861,0.197 -0.328,0 0,0"
           style="fill:#7fbea7;fill-opacity:1;fill-rule:nonzero;stroke:none"
           id="path3180"
           inkscape:connector-curvature="0" /></g><g
         id="g3182"
         transform="translate(274.4639,319.2227)"><path
           d="M 0,0 1.479,0 C 1.988,0 2.545,0.133 2.98,0.402 3.314,0.609 3.271,0.857 2.859,0.857 l -1.478,0 C 0.871,0.857 0.314,0.725 -0.121,0.455 -0.455,0.248 -0.412,0 0,0"
           style="fill:#7fbea7;fill-opacity:1;fill-rule:nonzero;stroke:none"
           id="path3184"
           inkscape:connector-curvature="0" /></g><g
         id="g3186"
         transform="translate(276.9756,311.2109)"><path
           d="M 0,0 C 0.889,0.016 1.771,0.197 2.615,0.469 3.055,0.611 3.613,0.992 3.468,1.539 3.33,2.053 2.635,2.18 2.195,2.039 1.524,1.822 0.866,1.678 0.16,1.664 -0.328,1.656 -0.949,1.297 -1,0.768 -1.054,0.205 -0.452,-0.008 0,0"
           style="fill:#7fbea7;fill-opacity:1;fill-rule:nonzero;stroke:none"
           id="path3188"
           inkscape:connector-curvature="0" /></g><g
         id="g3190"
         transform="translate(261.8291,341.4668)"><path
           d="m 0,0 c -6.209,-3.17 -2.196,-8.689 -0.84,-13.857 2.467,-9.397 4.101,-19.463 4.44,-29.166 0.017,-0.512 1.266,-0.157 1.464,-0.09 4.569,1.533 8.526,4.302 13.143,5.758 4.869,1.533 9.836,2.761 14.785,4.003 2.747,0.69 5.938,1.178 8.516,2.432 3.267,1.588 2.41,5.775 6.033,7.041 1.414,0.494 0.105,1.065 -0.805,0.748 -2.086,-0.728 -3.756,-1.724 -5.014,-3.558 -1.472,-2.147 4.212,-2.114 -3.223,-4.204 -2.528,-0.711 -5.069,-1.355 -7.618,-1.994 -4.943,-1.24 -9.86,-2.572 -14.721,-4.103 -4.18,-1.317 -7.75,-3.981 -11.9,-5.375 0.488,-0.03 0.976,-0.061 1.465,-0.09 -0.266,7.611 -1.563,15.084 -3.06,22.537 -0.62,3.088 -1.16,6.215 -2.14,9.211 -1.158,3.543 -4.009,7.754 0.764,10.189 C 2.559,0.131 0.629,0.322 0,0"
           style="fill:#7fbea7;fill-opacity:1;fill-rule:nonzero;stroke:none"
           id="path3192"
           inkscape:connector-curvature="0" /></g><g
         id="g3194"
         transform="translate(341.6885,335.7969)"><path
           d="m 0,0 c 0,28.689 -23.26,51.947 -51.948,51.947 -28.691,0 -51.948,-23.258 -51.948,-51.947 0,-28.689 23.257,-51.945 51.948,-51.945 C -23.26,-51.945 0,-28.689 0,0 z"
           style="fill:none;stroke:#7fbea7;stroke-width:1.222;stroke-linecap:butt;stroke-linejoin:miter;stroke-miterlimit:10;stroke-opacity:1;stroke-dasharray:none"
           id="path3196"
           inkscape:connector-curvature="0" /></g></g></g></svg>