<?xml version="1.0" encoding="UTF-8" standalone="no"?>
<!-- Generator: Adobe Illustrator 18.1.0, SVG Export Plug-In . SVG Version: 6.00 Build 0)  -->

<svg
   xmlns:dc="http://purl.org/dc/elements/1.1/"
   xmlns:cc="http://creativecommons.org/ns#"
   xmlns:rdf="http://www.w3.org/1999/02/22-rdf-syntax-ns#"
   xmlns:svg="http://www.w3.org/2000/svg"
   xmlns="http://www.w3.org/2000/svg"
   xmlns:sodipodi="http://sodipodi.sourceforge.net/DTD/sodipodi-0.dtd"
   xmlns:inkscape="http://www.inkscape.org/namespaces/inkscape"
   version="1.1"
   id="Layer_1"
   x="0px"
   y="0px"
   viewBox="0 0 48 48"
   enable-background="new 0 0 48 48"
   xml:space="preserve"
   inkscape:version="0.48.4 r9939"
   width="100%"
   height="100%"
   sodipodi:docname="eventi_sociali.svg"><metadata
     id="metadata9"><rdf:RDF><cc:Work
         rdf:about=""><dc:format>image/svg+xml</dc:format><dc:type
           rdf:resource="http://purl.org/dc/dcmitype/StillImage" /><dc:title></dc:title></cc:Work></rdf:RDF></metadata><defs
     id="defs7"><clipPath
       clipPathUnits="userSpaceOnUse"
       id="clipPath3238"><path
         inkscape:connector-curvature="0"
         d="m 0,841.89 595.275,0 L 595.275,0 0,0 0,841.89 z"
         id="path3240" /></clipPath></defs><sodipodi:namedview
     pagecolor="#ffffff"
     bordercolor="#666666"
     borderopacity="1"
     objecttolerance="10"
     gridtolerance="10"
     guidetolerance="10"
     inkscape:pageopacity="0"
     inkscape:pageshadow="2"
     inkscape:window-width="640"
     inkscape:window-height="480"
     id="namedview5"
     showgrid="false"
     inkscape:zoom="4.9166667"
     inkscape:cx="41.787152"
     inkscape:cy="30.188847"
     inkscape:window-x="1902"
     inkscape:window-y="338"
     inkscape:window-maximized="0"
     inkscape:current-layer="Layer_1" /><g
     id="g3234"
     transform="matrix(0.41812657,0,0,-0.41812657,131.998,202.9375)"><g
       id="g3236"
       clip-path="url(#clipPath3238)"
       transform="translate(-412.65217,90.226198)"><g
         id="g3242"
         transform="translate(206.3262,335.7969)"><path
           d="m 0,0 c 0,28.689 -23.258,51.947 -51.946,51.947 -28.692,0 -51.948,-23.258 -51.948,-51.947 0,-28.689 23.256,-51.945 51.948,-51.945 C -23.258,-51.945 0,-28.689 0,0 z"
           style="fill:none;stroke:#e66815;stroke-width:1.222;stroke-linecap:butt;stroke-linejoin:miter;stroke-miterlimit:10;stroke-opacity:1;stroke-dasharray:none"
           id="path3244"
           inkscape:connector-curvature="0" /></g><g
         id="g3246"
         transform="translate(124.6885,339.2344)"><path
           d="m 0,0 c 1.317,-3.627 4.959,-19.059 11.475,-12.383 2.601,2.666 0.267,8.319 -1.186,10.92 C 8.598,1.566 5.865,3.393 2.527,1.734 1.121,1.035 3.313,1.049 3.908,1.346 c 2.119,1.052 4.769,-4.828 5.239,-6.032 0.87,-2.222 1.744,-5.718 0.178,-7.828 C 8.203,-14.025 5.244,-7.633 4.928,-6.859 3.929,-4.41 3.262,-1.85 2.361,0.633 2.137,1.25 -0.193,0.533 0,0"
           style="fill:#e66815;fill-opacity:1;fill-rule:nonzero;stroke:none"
           id="path3248"
           inkscape:connector-curvature="0" /></g><g
         id="g3250"
         transform="translate(133.876,338.373)"><path
           d="m 0,0 c 10.135,11.443 19.172,23.916 30.543,34.211 -0.753,-0.119 -1.507,-0.24 -2.26,-0.359 7.259,-11.122 12.291,-23.497 19.549,-34.62 0.458,0.282 0.917,0.561 1.375,0.842 C 33.967,-2.857 18.613,-5.154 3.186,-6.848 2.499,-6.924 1.027,-7.926 2.5,-7.926 l 5.295,0 c 0.73,0 2.562,1.108 0.98,1.108 l -5.295,0 -0.685,-1.078 c 15.426,1.695 30.78,3.99 46.021,6.921 0.166,0.032 1.65,0.42 1.375,0.84 -7.256,11.123 -12.289,23.498 -19.548,34.619 -0.428,0.655 -1.838,0.024 -2.26,-0.359 C 17.01,23.832 7.973,11.357 -2.162,-0.086 -2.736,-0.734 -0.421,-0.475 0,0"
           style="fill:#e66815;fill-opacity:1;fill-rule:nonzero;stroke:none"
           id="path3252"
           inkscape:connector-curvature="0" /></g><g
         id="g3254"
         transform="translate(144.2412,331.0918)"><path
           d="M 0,0 C 1.89,-5.238 5.461,-22.695 13.672,-20.494 26.325,-17.104 5.597,-2.275 8.857,3.375 9.03,3.676 6.869,3.547 6.529,2.959 c -1.776,-3.08 2.205,-7.389 3.842,-9.703 2.025,-2.86 7.051,-8.592 3.994,-12.172 C 10.522,-23.414 3.326,-2.047 2.359,0.633 2.159,1.189 -0.169,0.467 0,0"
           style="fill:#e66815;fill-opacity:1;fill-rule:nonzero;stroke:none"
           id="path3256"
           inkscape:connector-curvature="0" /></g></g></g></svg>